<?xml version="1.0" encoding="UTF-8"?>
<svg width="24px" height="18px" viewBox="0 0 24 18" version="1.1" xmlns="http://www.w3.org/2000/svg" xmlns:xlink="http://www.w3.org/1999/xlink">
    <!-- Generator: Sketch 45.1 (43504) - http://www.bohemiancoding.com/sketch -->
    <title>Contact-card</title>
    <desc>Created with Sketch.</desc>
    <defs></defs>
    <g id="Welcome" stroke="none" stroke-width="1" fill="none" fill-rule="evenodd">
        <g id="Mobile-Portrait" transform="translate(-7.000000, -245.000000)" fill-rule="nonzero" fill="#00A8FF">
            <g id="About-me" transform="translate(0.000000, 241.000000)">
                <g id="Contact-card" transform="translate(7.000000, 4.000000)">
                    <path d="M22,2 L22,16 L2,16 L2,2 L22,2 Z M24,0 L0,0 L0,18 L24,18 L24,0 Z M14,13.597 L14,14 L4,14 L4,13.583 C3.996,12.471 4.044,11.836 5.324,11.54 C6.727,11.216 8.111,10.927 7.446,9.699 C5.473,6.062 6.883,4 9,4 C11.077,4 12.521,5.985 10.556,9.699 C9.909,10.919 11.244,11.209 12.677,11.54 C13.961,11.837 14.005,12.476 14,13.597 L14,13.597 Z M20,4 L16,4 L16,6 L20,6 L20,4 Z M20,8 L16,8 L16,10 L20,10 L20,8 Z M20,12 L16,12 L16,14 L20,14 L20,12 L20,12 Z" id="Shape"></path>
                </g>
            </g>
        </g>
    </g>
</svg>