<?xml version="1.0" encoding="UTF-8" standalone="no"?>
<svg width="20px" height="20px" viewBox="0 0 20 20" version="1.1" xmlns="http://www.w3.org/2000/svg" xmlns:xlink="http://www.w3.org/1999/xlink">
    <!-- Generator: Sketch 45.1 (43504) - http://www.bohemiancoding.com/sketch -->
    <title>iconmonstr-printer-4</title>
    <desc>Created with Sketch.</desc>
    <defs></defs>
    <g id="Welcome" stroke="none" stroke-width="1" fill="none" fill-rule="evenodd">
        <g id="Mobile-Portrait" transform="translate(-167.000000, -1858.000000)" fill-rule="nonzero" fill="#000000">
            <g id="Contact-links" transform="translate(7.000000, 1858.000000)">
                <g id="iconmonstr-printer-4" transform="translate(160.000000, 0.000000)">
                    <path d="M13.2785088,14.9383224 L6.63925439,14.9383224 L6.63925439,14.1084156 L13.2785088,14.1084156 L13.2785088,14.9383224 Z M11.6186952,15.7682292 L6.63925439,15.7682292 L6.63925439,16.598136 L11.6186952,16.598136 L11.6186952,15.7682292 Z M19.9177632,4.14953399 L19.9177632,14.9383224 L16.598136,14.9383224 L16.598136,19.9177632 L3.31962719,19.9177632 L3.31962719,14.9383224 L0,14.9383224 L0,4.14953399 L3.31962719,4.14953399 L3.31962719,0 L16.598136,0 L16.598136,4.14953399 L19.9177632,4.14953399 Z M4.97944079,4.14953399 L14.9383224,4.14953399 L14.9383224,1.6598136 L4.97944079,1.6598136 L4.97944079,4.14953399 Z M14.9383224,12.448602 L4.97944079,12.448602 L4.97944079,18.2579496 L14.9383224,18.2579496 L14.9383224,12.448602 Z M18.2579496,5.80934759 L1.6598136,5.80934759 L1.6598136,13.2785088 L3.31962719,13.2785088 L3.31962719,10.7887884 L16.598136,10.7887884 L16.598136,13.2785088 L18.2579496,13.2785088 L18.2579496,5.80934759 Z M17.0130894,6.63925439 C16.7840351,6.63925439 16.598136,6.82515351 16.598136,7.05420779 C16.598136,7.28326206 16.7840351,7.46916118 17.0130894,7.46916118 C17.2421436,7.46916118 17.4280428,7.28326206 17.4280428,7.05420779 C17.4280428,6.82515351 17.2421436,6.63925439 17.0130894,6.63925439 Z" id="Shape"></path>
                </g>
            </g>
        </g>
    </g>
</svg>