<?xml version="1.0" encoding="UTF-8" standalone="no"?>
<svg width="24px" height="24px" viewBox="0 0 24 24" version="1.1" xmlns="http://www.w3.org/2000/svg" xmlns:xlink="http://www.w3.org/1999/xlink">
    <!-- Generator: Sketch 45.1 (43504) - http://www.bohemiancoding.com/sketch -->
    <title>iconmonstr-building-32</title>
    <desc>Created with Sketch.</desc>
    <defs></defs>
    <g id="Symbols" stroke="none" stroke-width="1" fill="none" fill-rule="evenodd">
        <g id="School" transform="translate(0.000000, -4.000000)" fill="#535252">
            <g id="iconmonstr-building-32" transform="translate(0.000000, 4.000000)">
                <path d="M11,3 L11,0 L15,0 L15,2 L12,2 L12,3 L18,3 L18,6 L20,6 L20,8 L23,8 L23,22 L24,22 L24,24 L0,24 L0,22 L1,22 L1,8 L4,8 L4,6 L6,6 L6,3 L11,3 Z M14,23 L14,18 L12,17 L10,18 L10,23 L14,23 Z M16,5 L8,5 L8,8 L6,8 L6,10 L3,10 L3,22 L8,22 L8,17 L12,14.664 L16,17 L16,22 L21,22 L21,10 L18,10 L18,8 L16,8 L16,5 Z M18,18 L20,18 L20,20 L18,20 L18,18 Z M4,18 L6,18 L6,20 L4,20 L4,18 Z M18,15 L20,15 L20,17 L18,17 L18,15 Z M4,15 L6,15 L6,17 L4,17 L4,15 Z M18,12 L20,12 L20,14 L18,14 L18,12 Z M4,12 L6,12 L6,14 L4,14 L4,12 Z M12,7 C13.656,7 15,8.344 15,10 C15,11.656 13.656,13 12,13 C10.344,13 9,11.656 9,10 C9,8.344 10.344,7 12,7 Z M12,8 L11,8 L11,11 L14,11 L14,10 L12,10 L12,8 Z" id="Shape"></path>
            </g>
        </g>
    </g>
</svg>