<?xml version="1.0" encoding="UTF-8" standalone="no"?>
<svg width="20px" height="16px" viewBox="0 0 20 16" version="1.1" xmlns="http://www.w3.org/2000/svg" xmlns:xlink="http://www.w3.org/1999/xlink">
    <!-- Generator: Sketch 45.1 (43504) - http://www.bohemiancoding.com/sketch -->
    <title>iconmonstr-twitter-1</title>
    <desc>Created with Sketch.</desc>
    <defs></defs>
    <g id="Welcome" stroke="none" stroke-width="1" fill="none" fill-rule="evenodd">
        <g id="Mobile-Portrait" transform="translate(-8.000000, -1860.000000)" fill-rule="nonzero" fill="#00A8FF">
            <g id="Contact-links" transform="translate(7.000000, 1858.000000)">
                <g id="iconmonstr-twitter-1" transform="translate(1.000000, 2.000000)">
                    <path d="M19.3244485,2.05885895 C18.6134699,2.37449161 17.849349,2.58706055 17.0473843,2.6828776 C17.8662579,2.19251972 18.4951076,1.41551585 18.7906106,0.489552696 C18.0248794,0.943677237 17.176214,1.27380323 16.272796,1.4517492 C15.5505448,0.681186811 14.5191023,0.199685968 13.3789599,0.199685968 C10.8192756,0.199685968 8.93836263,2.58786573 9.51648572,5.06703144 C6.22247243,4.90196844 3.30125996,3.32380515 1.34546473,0.925157973 C0.30677562,2.70703316 0.806795726,5.03804477 2.57176203,6.2184465 C1.92278263,6.19751168 1.31084176,6.01956572 0.777003868,5.72245232 C0.733523859,7.55908012 2.05000191,9.27734566 3.95668084,9.65980871 C3.39868739,9.81118356 2.7875517,9.84661171 2.16594861,9.72744428 C2.66999464,11.3023868 4.13382161,12.4481656 5.86980124,12.480373 C4.20306756,13.7871888 2.10314415,14.3709482 -1.77635684e-15,14.1229511 C1.75449889,15.2477951 3.83912377,15.9040211 6.07753906,15.9040211 C13.4385436,15.9040211 17.5973259,9.68718501 17.3461081,4.11127642 C18.1206964,3.5516726 18.7930262,2.8535769 19.3244485,2.05885895 Z" id="Shape"></path>
                </g>
            </g>
        </g>
    </g>
</svg>