<svg xmlns="http://www.w3.org/2000/svg" width="39" height="39" fill="none"><path stroke="#fff" stroke-width="3" d="M2 2h35v35H2V2Z" clip-rule="evenodd"/><path fill="#fff" d="M10.278 32.5h-4.64V19.41h4.679c1.316 0 2.45.261 3.4.785a5.304 5.304 0 0 1 2.193 2.244c.515.976.773 2.143.773 3.503 0 1.363-.258 2.535-.773 3.515a5.315 5.315 0 0 1-2.206 2.257c-.954.524-2.096.786-3.426.786Zm-1.873-2.372h1.758c.818 0 1.507-.144 2.065-.434.562-.294.984-.748 1.265-1.362.286-.617.429-1.414.429-2.39 0-.968-.143-1.758-.429-2.372-.28-.613-.7-1.065-1.259-1.355-.558-.29-1.246-.434-2.064-.434H8.405v8.348ZM18.733 32.5V19.41h2.768v5.4h5.619v-5.4h2.761V32.5H27.12v-5.408H21.5V32.5h-2.768Z"/></svg>