<svg data-v-04125a6a="" width="20" height="20" viewBox="0 0 20 20" xmlns="http://www.w3.org/2000/svg"><title>iconmonstr-printer-4</title><path d="M13.279 14.938h-6.64v-.83h6.64v.83zm-1.66.83h-4.98v.83h4.98v-.83zM19.918 4.15v10.788h-3.32v4.98H3.32v-4.98H0V4.15h3.32V0h13.278v4.15h3.32zm-14.939 0h9.96V1.66h-9.96v2.49zm9.96 8.299h-9.96v5.809h9.96v-5.81zm3.319-6.64H1.66v7.47h1.66v-2.49h13.278v2.49h1.66v-7.47zm-1.245.83a.415.415 0 1 0 0 .83.415.415 0 0 0 0-.83z" fill-rule="nonzero" fill="#000"></path></svg>