<svg data-v-e8a3001a="" width="24" height="24" viewBox="0 0 24 24" xmlns="http://www.w3.org/2000/svg" class="school__icon"><title>iconmonstr-building-32</title><path d="M11 3V0h4v2h-3v1h6v3h2v2h3v14h1v2H0v-2h1V8h3V6h2V3h5zm3 20v-5l-2-1-2 1v5h4zm2-18H8v3H6v2H3v12h5v-5l4-2.336L16 17v5h5V10h-3V8h-2V5zm2 13h2v2h-2v-2zM4 18h2v2H4v-2zm14-3h2v2h-2v-2zM4 15h2v2H4v-2zm14-3h2v2h-2v-2zM4 12h2v2H4v-2zm8-5a3.001 3.001 0 0 1 0 6 3.001 3.001 0 0 1 0-6zm0 1h-1v3h3v-1h-2V8z" fill="#535252" fill-rule="evenodd"></path></svg>