<svg data-v-04125a6a="" width="20" height="16" viewBox="0 0 20 16" xmlns="http://www.w3.org/2000/svg"><title>iconmonstr-twitter-1</title><path d="M19.324 2.059a7.915 7.915 0 0 1-2.277.624A3.971 3.971 0 0 0 18.791.49a7.942 7.942 0 0 1-2.518.962A3.958 3.958 0 0 0 13.379.2c-2.56 0-4.44 2.388-3.863 4.867A11.255 11.255 0 0 1 1.346.925a3.97 3.97 0 0 0 1.226 5.293 3.948 3.948 0 0 1-1.795-.496C.734 7.56 2.05 9.277 3.957 9.66a3.974 3.974 0 0 1-1.791.067A3.968 3.968 0 0 0 5.87 12.48 7.972 7.972 0 0 1 0 14.123a11.224 11.224 0 0 0 6.078 1.781c7.36 0 11.52-6.217 11.268-11.793a8.072 8.072 0 0 0 1.978-2.052z" fill-rule="nonzero" fill="#00A8FF"></path></svg>