<?xml version="1.0" encoding="UTF-8"?>
<svg width="20px" height="22px" viewBox="0 0 20 22" version="1.1" xmlns="http://www.w3.org/2000/svg" xmlns:xlink="http://www.w3.org/1999/xlink">
    <!-- Generator: Sketch 45.1 (43504) - http://www.bohemiancoding.com/sketch -->
    <title>adobe</title>
    <desc>Created with Sketch.</desc>
    <defs></defs>
    <g id="Welcome" stroke="none" stroke-width="1" fill="none" fill-rule="evenodd">
        <g id="Mobile-Portrait" transform="translate(-79.000000, -536.000000)" fill-rule="nonzero">
            <g id="adobe" transform="translate(79.043796, 536.000000)">
                <path d="M16.8879708,0.500379562 L18.0889781,0.500379562 L18.0512409,0.712992701 L17.8261022,0.712992701 C17.7135328,0.712992701 17.6385401,0.68810219 17.6385401,0.68810219 L17.6385401,1.07591241 C17.6385401,1.21337226 17.6009635,1.35115328 17.6009635,1.48861314 C17.6009635,1.62623358 17.5633869,1.76385401 17.5633869,1.8390073 L17.2632555,1.8390073 L17.2632555,1.48861314 C17.2632555,1.35115328 17.3008321,1.21337226 17.3008321,1.07591241 C17.3008321,0.925766423 17.3380876,0.750729927 17.3380876,0.68810219 L17.1881022,0.68810219 L17.0377956,0.68810219 C16.9628029,0.68810219 16.8878102,0.712992701 16.8878102,0.712992701 L16.8878102,0.500379562 L16.8879708,0.500379562 Z M18.2388029,0.500379562 L18.6515036,0.500379562 C18.6515036,0.575372263 18.6890803,0.650525547 18.6890803,0.687941606 C18.6890803,0.750569343 18.764073,0.862978102 18.8016496,1.00059854 C18.8016496,1.03817518 18.8392263,1.13821898 18.8392263,1.21321168 C18.8764818,1.35083212 18.9517956,1.48845255 18.9517956,1.48845255 C18.9517956,1.41345985 19.0267883,1.31341606 19.064365,1.17579562 C19.1016204,1.07575182 19.1769343,0.925605839 19.2143504,0.825562044 C19.251927,0.712832117 19.3269197,0.575372263 19.3269197,0.500379562 L19.7773577,0.500379562 L19.7773577,0.925605839 C19.7773577,1.07575182 19.739781,1.27583942 19.739781,1.41345985 L19.739781,1.83884672 L19.4396496,1.83884672 L19.4396496,1.56360584 L19.4396496,1.21321168 C19.4396496,1.10064234 19.4772263,1.00059854 19.4772263,0.925445255 L19.4772263,0.788145985 L19.0645255,1.8390073 L18.764073,1.8390073 C18.764073,1.76385401 18.6890803,1.62639416 18.6890803,1.52618978 C18.6515036,1.35115328 18.5765109,1.21337226 18.5765109,1.1759562 C18.5765109,1.1009635 18.5015182,0.963343066 18.4639416,0.825722628 L18.4639416,1.1759562 C18.4639416,1.276 18.426365,1.41362044 18.426365,1.52618978 L18.426365,1.8390073 L18.1262336,1.8390073 C18.1262336,1.70138686 18.1638102,1.52618978 18.1638102,1.37620438 C18.1638102,1.25110949 18.2010657,1.07591241 18.2010657,0.925766423 C18.2012263,0.788145985 18.2388029,0.650525547 18.2388029,0.500379562 L18.2388029,0.500379562 Z M3.80294891,21.803927 L3.00227737,21.803927 L2.68962044,20.6782336 L1.21337226,20.6782336 L0.900715328,21.803927 L0.125094891,21.803927 L1.48861314,16.8251825 L2.36427737,16.8251825 L3.80294891,21.803927 Z M2.46432117,19.8650365 L1.93905109,17.9887737 L1.4510365,19.8650365 L2.46432117,19.8650365 L2.46432117,19.8650365 Z M6.68013139,21.803927 L6.00455474,21.803927 L6.00455474,21.2911825 C5.8919854,21.5163212 5.74183942,21.6666277 5.60421898,21.7290949 C5.46675912,21.8040876 5.31645255,21.891927 5.16630657,21.891927 C4.89106569,21.891927 4.6159854,21.7040438 4.41573723,21.3913869 C4.19059854,21.103781 4.09055474,20.603562 4.09055474,20.0155036 C4.09055474,19.4152409 4.19075912,18.8894891 4.37832117,18.5768321 C4.57840876,18.2767007 4.86617518,18.0891387 5.2040438,18.0891387 C5.46675912,18.0891387 5.742,18.2767007 5.97950365,18.6144088 L5.97950365,16.8253431 L6.68013139,16.8253431 L6.68013139,21.803927 L6.68013139,21.803927 Z M4.77865693,19.9278248 C4.77865693,20.3029489 4.82875912,20.6406569 4.89122628,20.7909635 C5.0039562,21.0161022 5.16646715,21.1660876 5.35418978,21.1660876 C5.52922628,21.1660876 5.66684672,21.0535182 5.77941606,20.9160584 C5.8919854,20.7281752 5.97950365,20.4155182 5.97950365,20.0403942 C5.97950365,19.6398978 5.9170365,19.3023504 5.80446715,19.1144672 C5.70426277,18.9269051 5.52922628,18.8018102 5.35418978,18.8018102 C5.2040438,18.8018102 5.06642336,18.9269051 4.94132847,19.0772117 C4.82859854,19.2647737 4.77865693,19.5523796 4.77865693,19.9278248 L4.77865693,19.9278248 Z M7.25550365,19.9278248 C7.25550365,19.6398978 7.29291971,19.3272409 7.40564964,19.039635 C7.53074453,18.7395036 7.69341606,18.514365 7.89350365,18.3640584 C8.10611679,18.2015474 8.36883212,18.0889781 8.61918248,18.0889781 C9.0069927,18.0889781 9.36975182,18.2765401 9.60741606,18.6142482 C9.87013139,18.9893723 10.0077518,19.4899124 10.0077518,20.0153431 C10.0077518,20.5407737 9.87013139,21.0161022 9.60741606,21.3539708 C9.33217518,21.7040438 9.0069927,21.891927 8.61918248,21.891927 C8.38151825,21.891927 8.14385401,21.8040876 7.91871533,21.6667883 C7.69357664,21.5164818 7.53090511,21.2913431 7.40581022,21.0162628 C7.29324088,20.7283358 7.25566423,20.3532117 7.25566423,19.9777664 L7.25566423,19.9278248 L7.25550365,19.9278248 L7.25550365,19.9278248 Z M7.9559708,20.0153431 C7.9559708,20.3907883 7.99354745,20.6783942 8.10611679,20.8659562 C8.23121168,21.0535182 8.41893431,21.1660876 8.59413139,21.1660876 C8.75664234,21.1660876 8.94436496,21.0535182 9.05693431,20.8659562 C9.1820292,20.6783942 9.2570219,20.3907883 9.2570219,20.0153431 C9.2570219,19.6398978 9.1820292,19.3272409 9.05693431,19.1396788 C8.94436496,18.9270657 8.75664234,18.8018102 8.59413139,18.8018102 C8.41893431,18.8018102 8.24389781,18.9269051 8.14369343,19.1144672 C8.03112409,19.3270803 7.9559708,19.6398978 7.9559708,20.0153431 L7.9559708,20.0153431 Z M10.558073,21.803927 L10.558073,16.8251825 L11.2583796,16.8251825 L11.2583796,18.6142482 C11.4587883,18.2763796 11.7463942,18.0889781 12.0214745,18.0889781 C12.3466569,18.0889781 12.6220584,18.2765401 12.8346715,18.5766715 C13.0472847,18.8893285 13.1725401,19.3648175 13.1725401,19.9777664 C13.1725401,20.5783504 13.0474453,21.103781 12.8346715,21.3913869 C12.6095328,21.7040438 12.3344526,21.891927 12.0590511,21.891927 C11.9090657,21.891927 11.7463942,21.8040876 11.6086131,21.7290949 C11.4586277,21.6666277 11.3210073,21.4790657 11.2456934,21.2911825 L11.2456934,21.803927 L10.558073,21.803927 Z M11.2583796,19.9278248 C11.2583796,20.3029489 11.3211679,20.6406569 11.3834745,20.7909635 C11.4960438,21.0161022 11.683927,21.1660876 11.8840146,21.1660876 C12.0590511,21.1660876 12.1966715,21.0535182 12.2967153,20.9160584 C12.4092847,20.7657518 12.4717518,20.4155182 12.4717518,20.0403942 C12.4717518,19.6398978 12.4092847,19.3023504 12.2967153,19.1144672 C12.1966715,18.9269051 12.0213139,18.8018102 11.8462774,18.8018102 C11.6837664,18.8018102 11.546146,18.9269051 11.4335766,19.0772117 C11.3211679,19.2647737 11.2583796,19.5523796 11.2583796,19.9278248 L11.2583796,19.9278248 Z M15.2989927,20.6783942 L15.9996204,20.7909635 C15.9243066,21.1660876 15.7492701,21.4790657 15.5743942,21.6165255 C15.3743066,21.7668321 15.0989051,21.891927 14.8112993,21.891927 C14.386073,21.891927 14.0106277,21.6667883 13.797854,21.2913431 C13.6228175,20.9786861 13.5475036,20.5407737 13.5475036,20.0405547 C13.5475036,19.4524964 13.6475474,18.9522774 13.8726861,18.6144088 C14.0978248,18.2765401 14.4231679,18.0891387 14.7734015,18.0891387 C15.1610511,18.0891387 15.4740292,18.2767007 15.6868029,18.6144088 C15.9243066,18.9895328 16.061927,19.5525401 16.061927,20.2656934 L14.2484526,20.2656934 C14.2484526,20.5783504 14.2860292,20.7909635 14.4112847,20.9534745 C14.5235328,21.103781 14.6613139,21.1660876 14.8114599,21.1660876 C14.9365547,21.1660876 15.0491241,21.1413577 15.0990657,21.0535182 C15.1613723,20.9785255 15.2366861,20.8285401 15.2989927,20.6783942 L15.2989927,20.6783942 Z M15.361781,19.6774745 C15.361781,19.4149197 15.2617372,19.1772555 15.1864234,19.0394745 C15.0863796,18.8891679 14.9363942,18.8018102 14.7987737,18.8018102 C14.6359416,18.8018102 14.4861168,18.9269051 14.4111241,19.0772117 C14.2860292,19.2271971 14.248292,19.4523358 14.248292,19.6774745 L15.361781,19.6774745 Z" id="Shape" fill="#000000"></path>
                <path d="M0,0 L6.00455474,0 L0,14.6237372 L0,0 Z M10.0951095,0 L16.1746569,0 L16.1746569,14.435854 L10.0951095,0 Z M8.11864234,5.59169343 L11.4337372,14.3610219 L9.38211679,14.3610219 L7.96849635,11.5840438 L5.71678832,11.5840438 L8.11864234,5.59169343 Z" id="Shape" fill="#CC2229"></path>
            </g>
        </g>
    </g>
</svg>