<?xml version="1.0" encoding="UTF-8"?>
<svg width="23px" height="24px" viewBox="0 0 23 24" version="1.1" xmlns="http://www.w3.org/2000/svg" xmlns:xlink="http://www.w3.org/1999/xlink">
    <!-- Generator: Sketch 45.1 (43504) - http://www.bohemiancoding.com/sketch -->
    <title>angular-icon 2</title>
    <desc>Created with Sketch.</desc>
    <defs></defs>
    <g id="Welcome" stroke="none" stroke-width="1" fill="none" fill-rule="evenodd">
        <g id="Mobile-Portrait" transform="translate(-17.000000, -613.000000)" fill-rule="nonzero">
            <g id="Skills-accordion" transform="translate(0.000000, 567.000000)">
                <g id="Angular" transform="translate(0.000000, 38.000000)">
                    <g id="angular-icon-2" transform="translate(17.000000, 8.000000)">
                        <polygon id="Shape" fill="#B3B3B3" points="11.0693376 0.0295804596 0.0736475372 3.8992424 1.81126099 18.30536 11.0809616 23.4001387 20.3985461 18.23631 22.1354656 3.83071289"></polygon>
                        <polygon id="Shape" fill="#A6120D" points="21.0387332 4.66330307 11.0436607 1.25487076 11.0436607 22.1829158 19.4199621 17.5471113 21.0386465 4.66330307"></polygon>
                        <polygon id="Shape" fill="#DD1B16" points="1.30752571 4.72471939 2.79652451 17.6087011 11.0434872 22.1829158 11.0434872 1.25452377 1.30761246 4.72463264"></polygon>
                        <path d="M13.7949905,12.3958607 L11.0436607,13.6824806 L8.14382149,13.6824806 L6.78069145,17.0920406 L4.24527306,17.1388836 L11.0436607,2.01485435 L13.7949905,12.3959475 L13.7949905,12.3958607 Z M13.5290266,11.7481268 L11.0619642,6.86405457 L9.03826172,11.6640697 L11.043574,11.6640697 L13.5290266,11.7482135 L13.5290266,11.7481268 Z" id="Shape" fill="#F2F2F2"></path>
                        <polygon id="Shape" fill="#B3B3B3" points="11.043574 2.01476761 11.0617907 6.86405457 13.357963 11.6677998 11.0487788 11.6677998 11.043574 13.6793578 14.2367022 13.6823939 15.7290841 17.1394041 18.1551155 17.1843386 11.043574 2.01476761"></polygon>
                    </g>
                </g>
            </g>
        </g>
    </g>
</svg>