<?xml version="1.0" encoding="UTF-8"?>
<svg width="22px" height="15px" viewBox="0 0 22 15" version="1.1" xmlns="http://www.w3.org/2000/svg" xmlns:xlink="http://www.w3.org/1999/xlink">
    <!-- Generator: Sketch 45.1 (43504) - http://www.bohemiancoding.com/sketch -->
    <title>aws</title>
    <desc>Created with Sketch.</desc>
    <defs></defs>
    <g id="Welcome" stroke="none" stroke-width="1" fill="none" fill-rule="evenodd">
        <g id="Mobile-Portrait" transform="translate(-138.000000, -613.000000)">
            <g id="aws" transform="translate(138.000000, 613.000000)">
                <rect id="backgroundrect" x="0" y="0" width="21.9717046" height="14.9178744"></rect>
                <g id="Layer-1" transform="translate(0.086957, 0.043478)" fill-rule="nonzero">
                    <g id="svg_1">
                        <polygon id="svg_2" fill="#F7981F" points="5.93629756 7.25368533 5.33093465 9.93898541 6.53399748 9.93898541 5.94998107 7.25368533"></polygon>
                        <path d="M0.0315437524,10.1760613 L0.0315437524,10.566885 C0.0315437524,12.5098541 1.99049038,14.4751223 4.40537523,14.4751223 L17.2860382,14.4751223 C19.7009231,14.4751223 21.6598697,12.5092672 21.6598697,10.566885 L21.6598697,10.1760613 C21.6598697,8.3698218 19.9641958,6.10175325 17.7841221,5.90223354 C17.7354084,4.28729816 16.5022408,2.99452846 14.9855487,2.99452846 C14.3966059,2.99452846 13.8503559,3.19052714 13.3993438,3.52266863 C12.5345392,1.45705369 10.6040546,0.0152308423 8.35501543,0.0152308423 C5.30137943,0.0152308423 2.82628686,2.66825498 2.82628686,5.94331114 C2.82628686,6.00199338 2.832855,6.05774151 2.83449703,6.11525012 C1.19629338,6.62402597 0.0315437524,8.68025047 0.0315437524,10.1760613 Z M6.98227332,11.968804 L6.66919215,10.6337829 L5.18205663,10.6337829 L4.85419718,11.968804 L4.00745492,11.968804 L5.45189751,6.52133138 L6.49075773,6.52133138 L7.82846814,11.968804 L6.98227332,11.968804 Z M11.9149442,11.968804 L10.9757007,11.968804 L10.3210765,7.86456793 L10.3068455,7.86456793 L9.65933679,11.968804 L8.72009333,11.968804 L7.73760965,6.52133138 L8.55643732,6.52133138 L9.22474516,10.7552553 L9.23952347,10.7552553 L9.9078313,6.52133138 L10.7622364,6.52133138 L11.4453225,10.7781414 L11.4595535,10.7781414 L12.1212932,6.52133138 L12.9253425,6.52133138 L11.9149442,11.968804 Z M14.8886671,12.0750187 C13.6292269,12.0750187 13.3446077,11.1754199 13.3446077,10.4119639 L13.3446077,10.2822761 L14.1557725,10.2822761 L14.1557725,10.4195925 C14.1557725,11.0832887 14.4261608,11.4189511 14.9882838,11.4189511 C15.5005984,11.4189511 15.7562084,11.029301 15.7562084,10.6243936 C15.7562084,10.0522417 15.4863675,9.80049484 15.0309767,9.65613657 L14.4754218,9.44957507 C13.7348644,9.14442742 13.4152152,8.73306492 13.4152152,7.95493839 C13.4152152,6.96262168 14.0413775,6.41335582 14.9948519,6.41335582 C16.2969848,6.41335582 16.432179,7.28302665 16.432179,7.84696306 L16.432179,7.96960895 L15.6210142,7.96960895 L15.6210142,7.85517858 C15.6210142,7.3587268 15.4146652,7.06883651 14.9094661,7.06883651 C14.5608075,7.06883651 14.2263799,7.275398 14.2263799,7.85517858 C14.2263799,8.32052875 14.4469598,8.55643141 14.9882837,8.77766345 L15.5356284,8.99185364 C16.2542919,9.26589972 16.5679205,9.6866514 16.5679205,10.4336764 C16.5684681,11.5949975 15.9132973,12.0750187 14.8886671,12.0750187 Z" id="svg_3" fill="#F7981F"></path>
                        <path d="M5.45189784,6.52133026 L4.00745525,11.9688028 L4.8541975,11.9688028 L5.18205696,10.6337818 L6.66919247,10.6337818 L6.98227365,11.9688028 L7.8290159,11.9688028 L6.49130549,6.52133026 L5.45189784,6.52133026 Z M5.3309343,9.9389854 L5.93575018,7.25368585 L5.9494338,7.25368585 L6.53290323,9.9389854 L5.3309343,9.9389854 Z" id="svg_4" fill="#FFFFFF"></path>
                        <polygon id="svg_5" fill="#FFFFFF" points="11.4595522 10.7781419 11.4447739 10.7781419 10.7616873 6.52133046 9.90783079 6.52133046 9.23952248 10.7546685 9.22474421 10.7546685 8.55643791 6.52133046 7.73760903 6.52133046 8.72009227 11.9688031 9.65933548 11.9688031 10.3062983 7.86456763 10.3210766 7.86456763 10.9757007 11.9688031 11.9149432 11.9688031 12.9247955 6.52133046 12.1212919 6.52133046"></polygon>
                        <path d="M15.5361772,8.99361387 L14.9888326,8.77942368 C14.448056,8.55819163 14.2269288,8.32228902 14.2269288,7.85693881 C14.2269288,7.27715827 14.5613564,7.07059674 14.910015,7.07059674 C15.4152141,7.07059674 15.621563,7.36048701 15.621563,7.85693881 L15.621563,7.97136918 L16.4327278,7.97136918 L16.4327278,7.84872329 C16.4327278,7.28478692 16.2975337,6.41511606 14.9954007,6.41511606 C14.0419263,6.41511606 13.415764,6.96438184 13.415764,7.95669863 C13.415764,8.73482515 13.7354133,9.14618766 14.4759707,9.45133531 L15.0315255,9.6578968 C15.4869163,9.80225512 15.7567573,10.0545888 15.7567573,10.6261538 C15.7567573,11.0304744 15.5006,11.4207113 14.9888327,11.4207113 C14.4267097,11.4207113 14.1563214,11.0850489 14.1563214,10.4213528 L14.1563214,10.2840363 L13.3451566,10.2840363 L13.3451566,10.4137241 C13.3451566,11.1771801 13.6303232,12.0767789 14.889216,12.0767789 C15.9138452,12.0767789 16.5684695,11.5967582 16.5684695,10.4366102 C16.5684681,9.68782458 16.2548407,9.26707345 15.5361772,8.99361387 Z" id="svg_6" fill="#FFFFFF"></path>
                    </g>
                </g>
            </g>
        </g>
    </g>
</svg>