<?xml version="1.0" encoding="UTF-8"?>
<svg width="22px" height="19px" viewBox="0 0 22 19" version="1.1" xmlns="http://www.w3.org/2000/svg" xmlns:xlink="http://www.w3.org/1999/xlink">
    <!-- Generator: Sketch 45.1 (43504) - http://www.bohemiancoding.com/sketch -->
    <title>browserify</title>
    <desc>Created with Sketch.</desc>
    <defs></defs>
    <g id="Welcome" stroke="none" stroke-width="1" fill="none" fill-rule="evenodd">
        <g id="Mobile-Portrait" transform="translate(-149.000000, -570.000000)" fill-rule="nonzero">
            <g id="browserify" transform="translate(149.000000, 570.000000)">
                <path d="M9.50314063,0.0007734375 C9.12269531,0.0078203125 8.64660156,0.24509375 8.30603125,0.163195313 C8.17016406,0.130367188 8.00404688,0.116273438 7.84145312,0.125125 C7.83853125,0.125296875 7.83560937,0.124953125 7.83277344,0.125125 C7.66742969,0.134921875 7.50603906,0.1698125 7.38710156,0.242601563 C7.38220312,0.245609375 7.37653125,0.248359375 7.37163281,0.251195313 C7.36702434,0.258000981 7.36178788,0.26435954 7.35599219,0.2701875 C7.19795312,0.4283125 6.84844531,0.442664063 6.68576562,0.60534375 C6.55299219,0.738203125 6.42984375,0.992492188 6.28332031,1.2203125 C6.28194531,1.22246094 6.28125781,1.22503906 6.27988281,1.2271875 C5.75841406,1.83519531 5.34230469,2.58328125 5.19509375,3.19472656 C5.07409375,3.69703125 5.0758125,4.37550781 4.87721094,4.87540625 C4.82169531,5.01522656 4.59146875,5.78900781 4.77013281,5.93948438 C4.89182031,6.04200781 5.410625,6.12046875 5.56299219,5.93948438 C5.64497656,5.84211719 6.39701562,5.59865625 6.63222656,5.31935938 C6.90920312,4.99047656 7.05211719,4.42234375 7.24203906,3.94435938 C7.27220312,3.86830469 7.31113281,3.78760938 7.35599219,3.7076875 C7.46375781,3.91634375 7.54926562,4.08667188 7.59438281,4.19142969 C7.68839844,4.40928125 7.79178125,4.71057813 7.87771875,5.03258594 C7.69157812,5.31772656 7.76917969,5.70771094 7.90358594,5.88594531 C7.35951562,6.05532813 7.61870312,6.64073438 7.59782031,6.66153125 C7.56198437,6.69736719 7.44854687,6.74523438 7.40265625,6.791125 C7.3459375,6.84784375 7.337,6.96626563 7.337,7.05194531 C7.337,7.13461719 7.34748437,7.20809375 7.36295312,7.2730625 C6.86786719,8.51846875 6.40053906,10.077375 5.8100625,10.9178438 C5.63999219,10.9953594 5.46614062,11.0619609 5.26238281,11.1026094 C4.8654375,11.2019531 3.86211719,11.3985781 3.01683594,11.6830313 C2.97765453,11.7343423 2.93492483,11.782844 2.88896094,11.8281797 C2.80525781,11.9118828 2.63767969,11.9119688 2.55380469,11.9957578 C2.48875,12.0608984 2.28567969,11.9875938 2.22053906,12.0527344 C2.02717969,12.2460938 1.74186719,12.3464688 1.43799219,12.4984063 C1.40430469,12.51525 1.29619531,12.472625 1.27041406,12.4984063 C1.13239844,12.6364219 0.885242187,12.7160859 0.767765625,12.8335625 C0.53796875,13.0632734 0.345382812,13.3129219 0.0975390625,13.5607656 C-0.148757813,13.8070625 0.353632812,14.4852813 0.432695312,14.5643438 C0.665414062,14.7970625 1.09295312,14.8341875 1.32567187,15.0670781 C1.42364062,15.1649609 1.75192187,15.0339922 1.86982812,15.1119375 C1.90025,15.1162344 1.92749219,15.1217344 1.94588281,15.1309297 C2.28877344,15.302375 2.96149219,15.4291328 3.36746094,15.5644844 C3.927,15.7509688 4.37086719,16.2494062 4.94802344,16.3936094 C5.38742187,16.5035234 5.88646094,16.5619609 6.32989844,16.7097734 C6.51535156,16.7715625 6.74050781,16.7291953 6.92071875,16.7891797 C7.25767969,16.9015859 7.56198437,17.0409766 7.86903906,17.1433281 C7.97542969,17.1788203 8.1159375,17.1160859 8.22482031,17.1433281 C8.47008594,17.2046016 8.73511719,17.2223906 8.97453906,17.3023125 C9.40096094,17.4443672 9.96978125,17.1600859 10.3962031,17.3023125 C10.6772187,17.3959844 12.4269062,17.2460234 12.5675859,17.1053437 C12.6709687,17.001875 13.0643047,17.1332734 13.1997422,17.0656406 C13.3173047,17.0068594 13.6741172,17.0645234 13.7524922,16.9861484 C13.954875,16.7837656 14.3702969,16.7749141 14.6593906,16.6303672 C14.7810781,16.5695234 14.9685078,16.6536563 15.09475,16.5905781 C15.1672812,16.5543125 15.31475,16.5989141 15.4747656,16.6682656 C15.7791562,16.6619063 16.0134219,16.6302812 16.3177266,16.6302812 C16.6795234,16.6302812 17.1789922,16.4584922 17.7081953,16.1984453 C18.2940312,16.0665313 19.0099766,15.9141641 19.0434922,15.8806484 C19.2980391,15.6261016 19.9744531,15.6993203 20.2268516,15.4470078 C20.4056016,15.2682578 20.6352266,15.1957266 20.8193047,15.0117344 C20.9831875,14.8477656 21.2084297,14.6600781 21.4445859,14.4624219 C21.48575,14.3477813 21.5909375,14.2400156 21.6881328,14.1429063 C21.7288672,14.1020859 22.0165,13.2605 21.9645078,13.1565156 C21.869375,12.9661641 21.7121094,12.8087266 21.5309531,12.6624609 C21.47475,12.6432109 21.4316953,12.6236172 21.4117578,12.6037656 C21.2182266,12.4102344 20.7545938,12.3801563 20.5826328,12.2081953 C20.3056563,11.9312188 19.8892031,11.6822578 19.3923984,11.5155391 C19.2884141,11.4639766 19.1910469,11.4090625 19.1212656,11.3393672 C19.03275,11.2508516 18.5214219,11.1378438 18.3715469,11.0629062 C18.2909375,11.0226016 18.115625,11.0850781 18.0554688,11.0249219 C17.9095469,10.8790859 17.2982734,10.7751016 16.8566406,10.6345078 C16.7921875,10.6386328 16.6888906,10.5894766 16.6701563,10.5706562 C16.6568359,10.5573359 16.3144609,10.5069766 16.2019688,10.3944844 C16.1891641,10.3815937 16.1432734,9.92303125 16.1432734,9.86588281 C16.1432734,9.84474219 16.0920547,9.75983594 16.1224766,9.72941406 C16.1272031,9.7246875 16.1319297,9.71910156 16.1363125,9.71385937 C15.9319531,8.45435937 15.7756328,7.06354687 15.6284219,6.939625 C15.4098828,6.75563281 15.2884531,5.73950781 15.0480859,5.53703906 C14.7967188,5.325375 14.6393672,5.09394531 14.4452344,4.91347656 C14.4450625,4.912875 14.4453203,4.91227344 14.4452344,4.91175781 C14.3721875,4.51017187 14.2333984,4.059 14.1895703,4.02213281 C14.1182422,3.96214844 14.2262656,3.68998437 14.1550234,3.63 C13.9333047,3.44325781 13.6443828,2.34549219 13.4364141,2.17035156 C13.1639922,1.94089844 13.0300156,1.58494531 12.7713438,1.36709375 C12.1322266,0.828953125 11.0706406,0.028015625 9.89699219,0.088859375 C9.84723599,0.0746944056 9.79824378,0.0579716553 9.75021094,0.0387578125 C9.67553125,0.009109375 9.59096875,-0.000859375 9.50314063,0.0007734375 L9.50314063,0.0007734375 Z" id="Shape" fill="#3C6991"></path>
                <path d="M9.24979687,6.9705625 C9.15122656,6.95285938 9.05480469,6.95182812 8.97917969,6.97692187 C8.85328125,7.0186875 8.65029687,6.9196875 8.5188125,6.94340625 C8.02166406,7.03321094 7.6319375,7.167875 7.56490625,7.3349375 C8.30267969,7.12344531 9.12175,7.59558594 9.45725,8.04417969 C9.5968125,8.23066406 9.381625,8.5133125 9.45759375,8.74199219 C9.47478125,8.79389844 9.48853125,9.12553125 9.42880469,9.17021875 C9.3039375,9.26354687 9.3163125,9.58942187 9.21310156,9.73817969 C8.97015625,10.0881172 8.75823438,10.3438672 8.5518125,10.6412109 C8.33903125,10.9478359 7.76986719,11.0091953 7.45224219,11.1147266 C7.38211719,11.1379297 7.2936875,11.0895469 7.21978125,11.1140391 C7.20225,11.1198828 7.18188281,11.1209141 7.16151562,11.1179922 C7.16864844,11.1260703 7.17698437,11.1338047 7.18282813,11.1417109 C7.20964063,11.1774609 7.34026562,11.1434297 7.37842187,11.1698984 C7.62523437,11.3412578 8.60191406,11.2755156 8.87270313,11.185625 C9.04114063,11.1297656 9.19754688,11.0470937 9.36598438,10.9911484 C9.58203125,10.9194766 9.79472656,10.5834609 9.94992969,10.4104687 C10.4836016,9.8154375 10.7275781,8.784875 10.4635781,7.98960937 C10.3308906,7.58982812 9.98353125,7.35023437 9.68782031,7.14484375 C9.58675781,7.07471875 9.41410938,7.00021094 9.24979688,6.9705625 L9.24979687,6.9705625 Z M10.4402031,6.20253906 C10.4084062,6.20150781 10.4040234,6.5126875 10.4015312,6.66101563 C10.3865781,6.661875 10.3872656,6.68052344 10.3912188,6.70175 C10.2308594,6.77299219 9.88160938,6.91564844 9.90842188,6.94417969 C9.90971094,6.94486719 9.90979688,6.94572656 9.91039844,6.94624219 C9.89776562,6.94684375 9.88453125,6.95114063 9.88392969,6.96858594 C9.88272656,6.99170313 9.93016406,6.969875 9.95319531,6.97064844 C9.99040625,6.9719375 10.3151641,7.09164844 10.4442422,7.14596094 C10.4602266,7.26859375 10.5074062,7.34189844 10.5074062,7.4820625 C10.5074062,7.56946094 10.5245937,7.68985938 10.52975,7.68985938 C10.5317266,7.68985938 10.53525,7.68728125 10.5379141,7.68582031 C10.5416953,7.70094531 10.5459922,7.70988281 10.5521797,7.704125 C10.5775312,7.68040625 10.6235078,7.61672656 10.6703437,7.54522656 C10.6724062,7.54213281 10.6745547,7.54015625 10.6763594,7.5370625 C10.7587734,7.43514063 10.8527891,7.30460156 10.9331406,7.18660938 C11.0889453,7.20929688 11.2316016,7.22742969 11.2672656,7.22742969 C11.2844531,7.22742969 11.8763047,7.32909375 11.705375,7.15807813 C11.6949766,7.14767969 11.6828594,7.13882813 11.6707422,7.12954688 C11.6745234,7.12653906 11.6766719,7.12353125 11.6767578,7.11940625 C11.6780469,7.08640625 11.3476172,6.93446875 11.2937344,6.87697656 C11.2676953,6.84913281 11.2301406,6.83142969 11.2041016,6.80358594 C11.1972266,6.79628125 11.2101172,6.77591406 11.2305703,6.74652344 L11.2305703,6.74454688 C11.2765469,6.69384375 11.3255312,6.64142188 11.3609375,6.60592969 C11.3779531,6.589 11.4735156,6.40999219 11.3828516,6.42185156 C11.3216641,6.42975781 11.1216875,6.44247656 10.8598359,6.51913281 C10.8598359,6.51913281 10.7891953,6.42666406 10.7886797,6.42692188 C10.7317891,6.40371875 10.5707422,6.20692188 10.4400312,6.20253906 L10.4402031,6.20253906 L10.4402031,6.20253906 Z" id="Shape" stroke-opacity="0" stroke="#FFFFFF" stroke-width="1.18" fill="#E6B35A"></path>
                <path d="M8.9615625,6.15639063 C8.94274219,6.1655 8.914125,6.20253906 8.90501562,6.18363281 C8.89590625,6.1648125 8.98046875,6.14728125 8.96164844,6.15639063 C8.90535937,6.18354688 8.68776562,6.37957031 8.76794531,6.44153125 C8.83385937,6.49249219 9.07852344,6.3971875 9.18233594,6.43345313 C9.19780469,6.43886719 9.37028125,6.70338281 9.39726562,6.626125 C9.44135156,6.50005469 9.38678125,6.2858125 9.38815625,6.28185938 C9.40852344,6.22376563 9.56776562,6.24757031 9.60660937,6.22883594 C9.63875,6.21336719 9.70397656,6.18586719 9.71291406,6.16008594 C9.71532031,6.15321094 9.717125,6.13258594 9.72030469,6.13920313 C9.72288281,6.14461719 9.67776562,6.10078906 9.62276562,6.081625 C9.54060937,6.05292188 9.45742187,6.07088281 9.39846875,6.05025781 C9.37139844,6.04080469 9.40414062,5.88104688 9.39417187,5.86059375 C9.36185937,5.7935625 9.34132031,5.71475781 9.34699219,5.72653125 C9.3630625,5.759875 9.27738281,5.7591875 9.25486719,5.78840625 C9.22667969,5.82484375 9.15277344,5.94842188 9.10507812,5.94782031 C9.04784375,5.94696094 8.81864844,5.89239063 8.80326562,5.93639063 C8.80197656,5.93896875 8.94609375,6.08153906 8.96164844,6.15639063 L8.9615625,6.15639063 Z M11.1770313,8.3799375 C11.1617344,8.36567188 11.116875,8.35252344 11.1310547,8.33722656 C11.1453203,8.32184375 11.1924141,8.39420313 11.1771172,8.3799375 C11.1313125,8.33748438 10.8694609,8.20634375 10.8410156,8.30345313 C10.8175547,8.38354688 10.9955313,8.5765625 10.9995703,8.68647656 C11.0008594,8.70289063 10.8166953,8.95992969 10.8985078,8.95683594 C11.0319688,8.9519375 11.2116641,8.82303125 11.2157031,8.82294531 C11.2773203,8.820625 11.3130703,8.97763281 11.3447813,9.00702344 C11.3709063,9.03125781 11.4202344,9.08196094 11.4474766,9.08092969 C11.4549531,9.08067187 11.4747188,9.07474219 11.4696484,9.08007031 C11.4656094,9.08445312 11.4899297,9.02653125 11.4876953,8.96835156 C11.4845156,8.88129687 11.4375078,8.81039844 11.4351875,8.74809375 C11.4338984,8.71930469 11.5947734,8.69154687 11.6102422,8.674875 C11.6609453,8.62030469 11.7266875,8.57252344 11.7178359,8.5820625 C11.6926563,8.60913281 11.6621484,8.529125 11.6266563,8.51872656 C11.5823984,8.50583594 11.4404297,8.48211719 11.4236719,8.43742969 C11.4035625,8.38380469 11.3708203,8.15048437 11.3242422,8.15220312 C11.3215781,8.15228906 11.2411406,8.33817187 11.1771172,8.3799375 L11.1770313,8.3799375 Z" id="Shape" stroke-opacity="0" stroke="#FFFFFF" stroke-width="0.803" fill="#E6B35A"></path>
                <path d="M16.2158047,10.4462188 C16.1711172,10.5997891 15.8913906,11.0919531 15.7735703,11.2097734 C15.6220625,11.3612813 15.4917813,11.5191484 15.3590078,11.6520078 C15.2649062,11.7461094 14.9962656,11.9870781 14.9167734,12.0665703 C14.7440391,12.2393047 14.6427188,12.1747656 14.4469531,12.3705313 C14.3498437,12.4676406 14.1545078,12.4695313 14.0599766,12.5640625 C13.9745547,12.6494844 13.2886875,12.7009609 13.1203359,12.7851797 C13.0795156,12.8055469 12.9578281,12.7541563 12.9268047,12.7851797 C12.8058047,12.9060938 11.84975,12.9501797 11.8213047,12.9785391 C11.6749531,13.1249766 11.2852266,12.9564531 11.0751094,13.0615547 C10.8887109,13.1547109 10.5188359,13.0891406 10.3012422,13.0891406 C10.1806719,13.0891406 9.86055469,13.0869063 9.5308125,13.0788281 C9.45295312,13.0677422 9.39159375,13.0590625 9.3891875,13.0615547 C9.38746875,13.0631875 9.37999219,13.0708359 9.37535156,13.0753047 C9.31347656,13.0734141 9.25375,13.0708359 9.19402344,13.0684297 C9.15672656,13.05425 9.11719531,13.0454844 9.08514062,13.0615547 C9.08367969,13.0622422 9.08153125,13.0625 9.07998437,13.0632734 C8.8226875,13.0508125 8.61265625,13.0325938 8.5600625,13.0062109 C8.34375781,12.8981016 8.11146875,12.8680234 7.84145313,12.8680234 C7.41872656,12.8680234 6.48278125,12.3683828 6.15544531,12.2047578 C6.10534375,12.1796641 5.96638281,12.0339141 5.8911875,11.9939531 C5.89058594,11.9650781 5.88955469,11.9387813 5.87915625,11.9283828 C5.80207031,11.8512969 5.76829687,11.6791641 5.71329687,11.5690781 C5.69035156,11.5231875 5.71329687,11.3550938 5.71329687,11.3755469 C5.71329687,11.3764922 5.7688125,11.1545156 5.76855469,11.1545156 C5.72120312,11.1545156 5.47353125,11.4772109 5.38157812,11.5690781 C5.38071875,11.5699375 5.38329688,11.5749219 5.38501562,11.5793906 C5.33328125,11.6507188 5.29701563,11.7572813 5.29701563,11.9179844 C5.29701563,12.46575 5.59908594,12.4947969 5.88259375,12.7782188 C5.95220312,12.8478281 6.10113281,12.8015938 6.15544531,12.8559922 C6.21096094,12.9114219 6.29242969,12.96075 6.38867969,13.0044922 C6.26836719,13.0751328 6.03633594,13.0925781 5.96028125,13.1686328 C5.88594531,13.2429688 5.54116406,13.4567813 5.4126875,13.5209766 C5.388625,13.5330078 5.27175,13.5462422 5.25722656,13.5607656 C4.52710156,14.2908906 3.70313281,14.7624297 3.02886719,15.4366953 C2.97214844,15.4934141 2.95117969,16.2347969 2.95117969,16.3746172 C2.95117969,16.6188516 2.86825,16.8773516 3.02895312,17.0379688 C3.09667187,17.1057734 3.32148437,17.0575625 3.38129687,17.1174609 C3.39427344,17.1303516 3.55772656,17.2519531 3.57646094,17.2331328 C3.64778906,17.1618047 3.53675781,16.7889219 3.53675781,16.6873438 C3.53675781,16.1535859 3.59433594,15.6139844 3.92889062,15.2795156 C4.5739375,14.6344688 5.49364062,14.3400469 6.07775781,13.7559297 C6.24946094,13.5842266 6.56407812,13.4927891 6.79292969,13.3051016 C6.78485156,13.3601016 6.79421875,13.4120078 6.83435156,13.4553203 C6.86099219,13.4841953 6.95603906,13.4271328 6.9898125,13.4450078 C7.21926562,13.5666953 7.91879687,13.8276016 8.12470312,13.5763203 C8.16208594,13.6473047 8.19164844,13.7192344 8.22834375,13.7559297 C8.3655,13.893 8.25825,14.5546328 8.18864062,14.6939375 C7.92592969,15.2192734 7.78739844,16.7361563 7.56327344,16.9601953 C7.52460156,16.9988672 7.60967969,17.3674531 7.64104687,17.4301016 C7.72242969,17.5929531 7.58140625,17.9560391 7.64104687,18.0156797 C7.69965625,18.0742891 7.66184375,18.2299219 7.72053906,18.2886172 C7.77382031,18.3418984 8.01779687,18.2748672 8.07116406,18.3283203 C8.09230469,18.3494609 8.37039844,18.5386953 8.42350781,18.4855859 C8.46759375,18.4414141 8.3029375,17.9333516 8.26632812,17.8602188 C8.234875,17.7971406 8.35123437,16.6404219 8.38380469,16.6078516 C8.42935156,16.5623047 8.33825781,16.3805469 8.38380469,16.3349141 C8.47257813,16.2461406 8.57896875,14.4062187 8.57896875,14.1463437 C8.57896875,14.1025156 8.69111719,13.828375 8.61875781,13.7559297 C8.61832812,13.7555 8.55396094,13.6076875 8.46673437,13.464 C8.59564062,13.4735391 8.70426562,13.4890937 8.73623437,13.5209766 C8.79355469,13.5783828 9.95001562,13.5209766 10.1422578,13.5209766 C10.9058984,13.5209766 12.1072187,13.4618516 12.5657813,13.3637969 C12.7486562,13.3246953 13.1822109,13.2905781 13.4260156,13.1686328 C13.5676406,13.0978203 14.0661641,13.0494375 14.1533047,13.0270078 C14.3394453,12.9789688 14.9377422,12.8350234 15.1050625,12.6677031 C15.2291562,12.5435234 15.6536016,12.1135781 15.8098359,12.0354609 C15.9860078,11.947375 16.0745234,11.6344766 16.1778203,11.4895859 C16.1910547,11.3823359 16.4797187,11.1020078 16.4230859,10.9886563 C16.3587187,10.7268906 16.3185859,10.4563594 16.2158047,10.4462188 Z" id="Shape" stroke-opacity="0" stroke="#FFFFFF" fill="#E6B35A"></path>
            </g>
        </g>
    </g>
</svg>