<?xml version="1.0" encoding="UTF-8"?>
<svg width="22px" height="22px" viewBox="0 0 22 22" version="1.1" xmlns="http://www.w3.org/2000/svg" xmlns:xlink="http://www.w3.org/1999/xlink">
    <!-- Generator: Sketch 45.1 (43504) - http://www.bohemiancoding.com/sketch -->
    <title>icon-codeigniter</title>
    <desc>Created with Sketch.</desc>
    <defs></defs>
    <g id="Welcome" stroke="none" stroke-width="1" fill="none" fill-rule="evenodd">
        <g id="Mobile-Portrait" transform="translate(-89.000000, -651.000000)" fill-rule="nonzero">
            <g id="icon-codeigniter" transform="translate(89.000000, 651.000000)">
                <circle id="Oval" fill="#FF3B00" cx="10.9648437" cy="10.9648437" r="10.9648437"></circle>
                <path d="M13.9743279,8.84789792 C14.0130703,9.89832995 12.983106,10.5346564 12.1366201,9.52004284 C11.3416689,8.56646693 12.3025547,7.26859492 12.4063552,6.19769518 C12.5364714,4.85523281 11.6077491,3.70355872 10.6417464,2.92432383 C11.1739068,3.85414258 10.4728878,5.08403255 9.91294974,5.77116276 C9.36945898,6.43819076 8.7086444,6.99483932 8.10923294,7.5997332 C7.46486563,8.25031393 6.84498646,8.93525117 6.31538451,9.69876979 C5.2558151,11.2269035 4.60742734,13.1483096 5.08439805,15.0547305 C5.43308008,16.4509206 6.34645156,17.4754025 7.4878918,18.0916267 C8.24702448,18.5908926 7.90309388,17.9297125 7.76895729,17.7641434 C7.38628424,17.2911931 7.12641745,16.7020155 7.12495547,16.1051625 C7.12312799,14.9531229 7.79856237,13.9750589 8.63810391,13.3328845 C8.53722734,13.7455281 8.48203763,14.1223533 8.73240156,14.491503 C8.96485625,14.8343371 9.37201745,15.0006372 9.75688346,14.91036 C10.6560007,14.698373 10.6973016,13.6300318 10.1640447,13.0072286 C9.63736667,12.3913699 9.12750143,11.6954678 9.32815807,10.8014676 C9.42830365,10.353371 9.68305352,9.93414844 10.0054199,9.63407721 C9.75761445,10.3383857 10.4622884,11.0328258 10.9253703,11.3782184 C11.7309208,11.9776298 12.6132253,12.4312089 13.3537177,13.1344208 C14.1314906,13.8734513 14.7064139,14.8727141 14.5909176,16.031698 C14.5086812,16.8493099 14.0883622,17.505373 13.5192868,17.9852677 C13.368703,18.0908957 13.4428984,18.1961582 13.7115371,18.1822694 C15.4542163,17.3756224 16.9648062,15.7594044 17.0028177,13.6201634 C17.0415602,11.4600892 15.6716857,9.79891536 13.9743279,8.84789792 Z" id="Shape" fill="#FFFFFF"></path>
            </g>
        </g>
    </g>
</svg>