<?xml version="1.0" encoding="UTF-8"?>
<svg width="20px" height="11px" viewBox="0 0 20 11" version="1.1" xmlns="http://www.w3.org/2000/svg" xmlns:xlink="http://www.w3.org/1999/xlink">
    <!-- Generator: Sketch 45.1 (43504) - http://www.bohemiancoding.com/sketch -->
    <title>express</title>
    <desc>Created with Sketch.</desc>
    <defs></defs>
    <g id="Welcome" stroke="none" stroke-width="1" fill="none" fill-rule="evenodd">
        <g id="Mobile-Portrait" transform="translate(-214.000000, -628.000000)" fill-rule="nonzero" fill="#888888">
            <g id="express" transform="translate(214.000000, 628.000000)">
                <path d="M8.70755556,2.08755556 C8.35555556,1.52444444 7.88844444,1.06044444 7.30622222,0.696 C6.72355556,0.331111111 5.99111111,0.148888889 5.108,0.148888889 C4.42933333,0.148888889 3.80577778,0.276888889 3.23644444,0.532888889 C2.66666667,0.788888889 2.17422222,1.14711111 1.75822222,1.608 C1.34222222,2.06888889 1.01911111,2.61288889 0.788888889,3.23955556 C0.558666667,3.86666667 0.443555556,4.55777778 0.443555556,5.31288889 C0.468888889,6.068 0.580888889,6.76577778 0.779555556,7.40533333 C0.977777778,8.04533333 1.27555556,8.59555556 1.67244444,9.05644444 C2.06888889,9.51733333 2.55866667,9.87555556 3.14088889,10.1315556 C3.72311111,10.3875556 4.41066667,10.5155556 5.20444444,10.5155556 C6.33066667,10.5155556 7.26488889,10.2342222 8.00711111,9.67066667 C8.74933333,9.10755556 9.22933333,8.41866667 9.44711111,7.30488889 L7.83466667,7.30488889 C7.69377778,7.95777778 7.40266667,8.29466667 6.96133333,8.61466667 C6.51955556,8.93466667 5.95333333,9.09466667 5.26222222,9.09466667 C4.72444444,9.09466667 4.25733333,9.00533333 3.86088889,8.82577778 C3.464,8.64666667 3.13777778,8.40666667 2.88177778,8.10577778 C2.62577778,7.80533333 2.44,7.45955556 2.32488889,7.06888889 C2.20977778,6.67866667 2.15822222,6.16622222 2.17111111,5.73111111 L9.60044444,5.73111111 C9.62577778,5.12977778 9.57155556,4.59555556 9.43733333,3.93022222 C9.30311111,3.26488889 9.05955556,2.65066667 8.70755556,2.08711111 L8.70755556,2.08755556 Z M2.17066667,4.39111111 C2.196,4.00711111 2.27911111,3.64577778 2.42,3.30622222 C2.56088889,2.96711111 2.75288889,2.66977778 2.996,2.41333333 C3.23911111,2.15733333 3.53022222,1.956 3.86933333,1.80844444 C4.20844444,1.66133333 4.58933333,1.58755556 5.01155556,1.58755556 C5.42088889,1.58755556 5.79555556,1.66133333 6.13466667,1.80844444 C6.47377778,1.95555556 6.768,2.15377778 7.01777778,2.40355556 C7.26755556,2.65333333 7.46577778,2.95066667 7.61288889,3.29644444 C7.76,3.64177778 7.84622222,4.00666667 7.872,4.39066667 L2.17022222,4.39066667 L2.17066667,4.39111111 Z M15.9937778,4.92888889 L19.5582222,0.163111111 L17.5155556,0.163111111 L14.9324444,3.78755556 L12.4493333,0.163111111 L10.2666667,0.163111111 L13.8711111,5.06888889 L9.98622222,10.5155556 L12.0488889,10.5155556 L14.9324444,6.23022222 L17.816,10.5155556 L19.9986667,10.5155556 L15.9937778,4.92888889 L15.9937778,4.92888889 Z" id="Shape"></path>
            </g>
        </g>
    </g>
</svg>