<?xml version="1.0" encoding="UTF-8"?>
<svg width="22px" height="4px" viewBox="0 0 22 4" version="1.1" xmlns="http://www.w3.org/2000/svg" xmlns:xlink="http://www.w3.org/1999/xlink">
    <!-- Generator: Sketch 45.1 (43504) - http://www.bohemiancoding.com/sketch -->
    <title>forge</title>
    <desc>Created with Sketch.</desc>
    <defs></defs>
    <g id="Welcome" stroke="none" stroke-width="1" fill="none" fill-rule="evenodd">
        <g id="Mobile-Portrait" transform="translate(-219.000000, -554.000000)" fill-rule="nonzero" fill="#353535">
            <g id="forge" transform="translate(219.000000, 554.000000)">
                <path d="M7.964,0.036 C8.378,0.036 8.568,0.11 8.684,0.256 C8.854,0.48 8.948,0.924 8.674,2.012 C8.398,3.102 8.092,3.534 7.806,3.768 C7.616,3.916 7.384,3.988 6.972,3.988 L5.65,3.988 C5.238,3.988 5.036,3.916 4.93,3.768 C4.762,3.546 4.666,3.102 4.95,2.012 C5.226,0.924 5.544,0.49 5.83,0.258 C6.02,0.11 6.252,0.036 6.664,0.036 L7.964,0.036 Z M6.04,3.028 C6.06,3.06 6.114,3.068 6.284,3.068 L6.792,3.068 C6.96,3.068 7.024,3.06 7.066,3.028 C7.12,2.984 7.214,2.88 7.426,2.012 C7.646,1.146 7.606,1.04 7.574,0.998 C7.554,0.966 7.5,0.954 7.33,0.954 L6.834,0.954 C6.664,0.954 6.602,0.966 6.558,0.998 C6.506,1.038 6.41,1.146 6.198,2.012 C5.966,2.89 6.008,2.984 6.04,3.028 Z M11.168,2.71 C11.128,2.658 11.084,2.636 10.83,2.636 L10.334,2.636 C10.2773529,2.6372816 10.2287801,2.67679847 10.216,2.732 L9.932,3.894 C9.91941164,3.94850069 9.87189335,3.98782617 9.816,3.99 L8.79,3.99 C8.736,3.99 8.706,3.948 8.716,3.894 L9.656,0.13 C9.66935615,0.0762904962 9.71668858,0.0379349083 9.772,0.036 L12.184,0.036 C12.574,0.036 12.786,0.088 12.904,0.236 C13.03,0.416 13.072,0.606 12.934,1.156 C12.754,1.896 12.48,2.108 12.004,2.202 L12.004,2.214 C12.374,2.308 12.574,2.434 12.448,3.006 C12.3833459,3.29649015 12.3299725,3.58937654 12.288,3.884 C12.278,3.936 12.226,3.99 12.172,3.99 L11.126,3.99 C11.084,3.99 11.042,3.958 11.052,3.904 C11.084,3.662 11.126,3.418 11.19,3.112 C11.232,2.826 11.21,2.772 11.17,2.712 L11.168,2.71 Z M11.094,1.78 C11.316,1.78 11.38,1.77 11.422,1.738 C11.496,1.684 11.55,1.59 11.602,1.358 C11.654,1.124 11.644,1.038 11.602,0.986 C11.57,0.954 11.518,0.946 11.296,0.946 L10.746,0.946 C10.6906886,0.947934908 10.6433561,0.986290496 10.63,1.04 L10.47,1.696 C10.46,1.748 10.49,1.79 10.544,1.79 L11.094,1.79 L11.094,1.78 L11.094,1.78 Z M16.264,0.004 C16.688,0.004 16.91,0.056 17.036,0.204 C17.184,0.384 17.236,0.658 17.122,1.272 C17.1092199,1.32720153 17.0606471,1.3667184 17.004,1.368 L16.022,1.368 C15.968,1.368 15.936,1.326 15.948,1.282 C15.988,1.04 15.936,1.008 15.906,0.966 C15.884,0.934 15.842,0.924 15.662,0.924 L15.154,0.924 C14.974,0.924 14.922,0.934 14.88,0.964 C14.816,1.018 14.7,1.198 14.51,2.002 C14.32,2.806 14.35,2.996 14.382,3.048 C14.402,3.08 14.456,3.09 14.636,3.09 L15.176,3.09 C15.336,3.09 15.396,3.08 15.44,3.05 C15.492,3.006 15.6,2.9 15.662,2.614 L15.672,2.584 L14.912,2.584 C14.858,2.584 14.826,2.54 14.838,2.488 L14.986,1.854 C14.9985884,1.79949931 15.0461066,1.76017383 15.102,1.758 L16.93,1.758 C16.984,1.758 17.016,1.8 17.004,1.854 L16.91,2.244 C16.688,3.208 16.424,3.544 16.15,3.768 C15.948,3.936 15.662,4 15.292,4 L13.972,4 C13.558,4 13.358,3.926 13.24,3.768 C13.06,3.534 12.966,3.102 13.23,2.002 C13.494,0.902 13.802,0.458 14.086,0.236 C14.276,0.076 14.51,0.004 14.922,0.004 L16.264,0.004 L16.264,0.004 Z M20.388,4 L17.228,4 C17.174,4 17.142,3.958 17.152,3.904 L18.04,0.098 C18.053556,0.0435911182 18.1019376,0.00504984699 18.158,0.004 L21.838,0.004 C21.9,0.004 21.932,0.066 21.89,0.13 C21.73,0.384 21.118,0.924 20.43,0.924 L19.15,0.924 C19.0946886,0.925934908 19.0473561,0.964290496 19.034,1.018 L18.94,1.442 C18.93,1.494 18.96,1.536 19.014,1.536 L20.738,1.536 C20.79,1.536 20.822,1.578 20.812,1.632 L20.664,2.298 C20.650444,2.35240888 20.6020624,2.39095015 20.546,2.392 L18.824,2.392 C18.7681066,2.39417383 18.7205884,2.43349931 18.708,2.488 L18.59,2.974 C18.58,3.028 18.61,3.07 18.664,3.07 L20.6,3.07 C20.652,3.07 20.684,3.11 20.674,3.164 L20.504,3.894 C20.4955129,3.9524506 20.4469769,3.99680241 20.388,4 L20.388,4 Z M5.194,0.036 L0.86,0.036 C0.804688576,0.0379349083 0.757356148,0.0762904962 0.744,0.13 L0.638,0.51 C0.628,0.554 0.648,0.584 0.68,0.606 C0.85,0.658 1.76,0.68 1.62,1.186 L1.59,1.326 L1.22,2.71 L1.188,2.848 C1.05,3.356 0.564,3.376 0.362,3.428 C0.322,3.44 0.288,3.482 0.278,3.524 L0.172,3.904 C0.162,3.958 0.192,4 0.246,4 L2.012,4 C2.066,4 2.118,3.958 2.128,3.904 L2.446,2.678 C2.45935615,2.6242905 2.50668858,2.58593491 2.562,2.584 L3.694,2.584 C3.746,2.584 3.8,2.54 3.81,2.488 L3.978,1.832 C3.99,1.78 3.958,1.738 3.904,1.738 L2.774,1.738 C2.72,1.738 2.69,1.696 2.7,1.642 L2.86,1.05 C2.87238513,0.996185948 2.91886324,0.957046486 2.974,0.954 L4.676,0.954 C4.73,0.954 4.782,0.914 4.794,0.86 L5.248,0.14 C5.268,0.078 5.248,0.036 5.194,0.036 L5.194,0.036 Z" id="Shape"></path>
            </g>
        </g>
    </g>
</svg>