<?xml version="1.0" encoding="UTF-8"?>
<svg width="22px" height="22px" viewBox="0 0 22 22" version="1.1" xmlns="http://www.w3.org/2000/svg" xmlns:xlink="http://www.w3.org/1999/xlink">
    <!-- Generator: Sketch 45.1 (43504) - http://www.bohemiancoding.com/sketch -->
    <title>git</title>
    <desc>Created with Sketch.</desc>
    <defs></defs>
    <g id="Welcome" stroke="none" stroke-width="1" fill="none" fill-rule="evenodd">
        <g id="Mobile-Portrait" transform="translate(-111.000000, -431.000000)" fill-rule="nonzero" fill="#F03C2E">
            <g id="git" transform="translate(111.000000, 431.000000)">
                <path d="M21.5849696,11.9798439 L11.9796054,21.5850147 C11.4266861,22.1383284 10.5295029,22.1383284 9.97584156,21.5850147 L7.98143844,19.5902128 L10.5114505,17.0600564 C11.099541,17.2586116 11.7738466,17.1253466 12.2423941,16.656695 C12.7137665,16.1851216 12.8458073,15.5050087 12.6422033,14.9148708 L15.0808522,12.4764612 C15.6709777,12.679877 16.3513646,12.5483841 16.8227374,12.0763552 C17.4811463,11.4181255 17.4811463,10.3510756 16.8227374,9.69229594 C16.1638503,9.03349047 15.0970372,9.03349047 14.4378627,9.69229594 C13.9426676,10.18798 13.8201559,10.9156902 14.071261,11.525867 L11.7967592,13.8002236 L11.7967592,7.81531609 C11.9571474,7.73582562 12.1086535,7.62995234 12.2423941,7.49659281 C12.9008021,6.83824281 12.9008021,5.77131328 12.2423941,5.11195781 C11.5839857,4.45382266 10.5164065,4.45382266 9.85847715,5.11195781 C9.20006871,5.77131328 9.20006871,6.83824281 9.85847715,7.49659281 C10.0212114,7.65913844 10.2096603,7.78210812 10.4107261,7.8644225 L10.4107261,13.9046841 C10.2096603,13.9869984 10.0216664,14.1089386 9.85847715,14.27261 C9.35981063,14.7711197 9.23981266,15.5031405 9.49561035,16.1156394 L7.00131996,18.6103397 L0.414895104,12.0243527 C-0.138298372,11.4705852 -0.138298372,10.5733839 0.414895104,10.0200942 L10.0207327,0.414902812 C10.5737479,-0.138300938 11.4706436,-0.138300938 12.0244966,0.414902812 L21.5849696,9.97558547 C22.1383435,10.5289697 22.1383435,11.4266264 21.5849696,11.9798439" id="Shape"></path>
            </g>
        </g>
    </g>
</svg>