<?xml version="1.0" encoding="UTF-8"?>
<svg width="22px" height="22px" viewBox="0 0 22 22" version="1.1" xmlns="http://www.w3.org/2000/svg" xmlns:xlink="http://www.w3.org/1999/xlink">
    <!-- Generator: Sketch 45.1 (43504) - http://www.bohemiancoding.com/sketch -->
    <title>googlemaps</title>
    <desc>Created with Sketch.</desc>
    <defs></defs>
    <g id="Welcome" stroke="none" stroke-width="1" fill="none" fill-rule="evenodd">
        <g id="Mobile-Portrait" transform="translate(-251.000000, -650.000000)" fill-rule="nonzero">
            <g id="googlemaps" transform="translate(251.000000, 650.000000)">
                <path d="M3.37619512,18.9049756 C5.35297561,20.8087805 8.03804878,21.9785366 11,21.9785366 C17.0698537,21.9785366 21.9892683,17.059122 21.9892683,10.9892683 C21.9892683,7.95434146 20.7594146,5.20702439 18.7697561,3.2195122 L3.37619512,18.9049756 Z" id="XMLID_15_" fill="#F1F2F4"></path>
                <path d="M11.0665366,11.0794146 L3.37619512,18.9049756 C5.35297561,20.8087805 8.03804878,21.9785366 11,21.9785366 C14.0778537,21.9785366 16.8595122,20.7143415 18.8534634,18.6753171 L11.0665366,11.0794146 L11.0665366,11.0794146" id="XMLID_17_" fill="#5680C1"></path>
                <polygon id="Shape" fill="#FFFFFF" points="18.3190244 19.1861463 10.5578537 11.4249756 11.4163902 10.5642927 19.1797073 18.3276098 18.7590244 18.7740488"></polygon>
                <g id="Group">
                    <path d="M11,0 C4.93014634,0 0.0107317073,4.91941463 0.0107317073,10.9892683 C0.0107317073,13.7322927 1.01736585,16.2413659 2.67863415,18.1687805 L2.67863415,18.1687805 L2.67863415,18.1687805 C2.71941463,18.216 2.76019512,18.2632195 2.80312195,18.3082927 L18.3190244,2.79239024 C16.3765854,1.056 13.8117073,0 11,0 Z" id="Shape" fill="#3AAA52"></path>
                    <path d="M18.9521951,3.39765854 L18.6345366,3.09073171 L18.6366829,3.08858537 C18.5701463,3.02419512 18.5057561,2.96195122 18.4370732,2.90185366 L18.4349268,2.89970732 L18.4349268,2.89970732 C18.3962927,2.86536585 18.3576585,2.82887805 18.3190244,2.79453659 L2.80312195,18.3082927 C2.91473171,18.4327805 3.0284878,18.555122 3.14653659,18.6753171 L3.37619512,18.9049756 L3.66165854,19.1689756 L19.1797073,3.65092683 L18.9521951,3.39765854 Z" id="Shape" fill="#F7BB19"></path>
                </g>
                <g id="XMLID_13_" transform="translate(4.035122, 3.927805)" fill="#FFFFFF">
                    <path d="M4.85717073,0.766243902 C4.58458537,1.03882927 4.31629268,1.30712195 4.05229268,1.57112195 C3.91707317,1.48526829 3.784,1.38009756 3.63590244,1.31141463 C2.95336585,0.993756098 2.17209756,1.15902439 1.65482927,1.72136585 C0.757658537,2.69365854 1.21482927,4.30556098 2.49619512,4.63395122 C3.10790244,4.79063415 3.68097561,4.67902439 4.15102439,4.21970732 C4.34419512,4.03082927 4.45580488,3.79473171 4.50731707,3.51785366 C3.97717073,3.51785366 3.45560976,3.51785366 2.9297561,3.51785366 C2.9297561,3.13580488 2.9297561,2.7644878 2.9297561,2.38673171 C3.83765854,2.38673171 4.74341463,2.38673171 5.6684878,2.38673171 C5.6835122,2.53268293 5.70497561,2.68292683 5.71141463,2.83102439 C5.73931707,3.44487805 5.62985366,4.03082927 5.31004878,4.56312195 C4.91082927,5.23063415 4.31414634,5.62556098 3.5564878,5.7715122 C2.64429268,5.94536585 1.80936585,5.76507317 1.08390244,5.17268293 C0.461463415,4.664 0.107317073,4.00292683 0.0343414634,3.20019512 C-0.0472195122,2.31160976 0.227512195,1.53678049 0.843512195,0.897170732 C1.34146341,0.379902439 1.9617561,0.0965853659 2.68078049,0.027902439 C3.46634146,-0.0493658537 4.2862439,0.223219512 4.85717073,0.766243902 Z" id="XMLID_16_"></path>
                </g>
                <g id="Group" transform="translate(13.071220, 3.541463)">
                    <path d="M8.00370732,4.10165854 C8.00370732,4.06517073 8.00585366,4.03082927 8.00585366,3.99434146 C8.00585366,1.78790244 6.21580488,0 4.0115122,0 C1.80507317,0 0.0171707317,1.78790244 0.0171707317,3.99434146 C-0.128780488,5.6684878 1.232,7.28468293 1.232,7.28468293 C3.54790244,10.2316098 3.29034146,11.0965854 3.74536585,12.3586341 C3.98146341,13.0154146 4.15531707,12.7707317 4.25619512,12.5861463 C4.29268293,12.5217561 4.312,12.3586341 4.312,12.3586341 C4.43004878,10.4333659 5.8337561,8.50809756 6.93697561,7.06146341 C8.03804878,5.61482927 8.00370732,4.10165854 8.00370732,4.10165854 L8.00370732,4.10165854 Z" id="Shape" fill="#E94636"></path>
                    <circle id="Oval" fill="#802D28" cx="4.00507317" cy="4.00721951" r="1.408"></circle>
                </g>
            </g>
        </g>
    </g>
</svg>