<?xml version="1.0" encoding="UTF-8"?>
<svg width="17px" height="22px" viewBox="0 0 17 22" version="1.1" xmlns="http://www.w3.org/2000/svg" xmlns:xlink="http://www.w3.org/1999/xlink">
    <!-- Generator: Sketch 45.1 (43504) - http://www.bohemiancoding.com/sketch -->
    <title>grunt</title>
    <desc>Created with Sketch.</desc>
    <defs></defs>
    <g id="Welcome" stroke="none" stroke-width="1" fill="none" fill-rule="evenodd">
        <g id="Mobile-Portrait" transform="translate(-103.000000, -567.000000)" fill-rule="nonzero">
            <g id="grunt" transform="translate(103.000000, 567.000000)">
                <path d="M1.10620349,5.33199419 C1.10620349,5.33199419 1.48193023,6.78105233 1.53552326,7.26415698 C1.58924419,7.74713372 0.569505814,8.82052907 0.569505814,9.35722674 C0.569505814,9.89398837 0.783877907,10.8600058 1.96477907,11.3431105 C3.14568023,11.8261512 3.30652326,13.0604535 3.30652326,13.8120349 C3.30652326,14.5633605 2.87720349,16.0122907 2.87720349,16.0122907 C2.87720349,16.0122907 2.60898256,19.6081395 4.05791279,20.2521512 C5.50684302,20.8960988 5.18496512,20.8960988 5.50684302,20.8960988 C5.82878488,20.8960988 8.1903314,21.862436 9.5856686,21.4866453 C10.9811337,21.1109826 11.3565407,20.6816628 11.3565407,20.6816628 C11.3565407,20.6816628 12.7520698,20.7889128 13.1813895,19.5543547 C13.6109012,18.3200523 13.8791221,15.7440058 13.7180233,14.5632326 C13.5569884,13.3823314 13.3424244,11.8262151 14.308314,11.2894535 C15.2746512,10.7526919 16.2941977,10.1088721 16.1331628,9.57204651 C15.9721279,9.03528488 15.1136802,8.28389535 15.1136802,8.28389535 C15.1136802,8.28389535 14.8989244,6.94227907 15.0598314,6.6202093 C15.2207384,6.29820349 16.1868837,5.49296512 15.6501221,4.90273837 C15.1137442,4.31244767 14.147407,4.31244767 14.147407,4.31244767 L12.9131047,4.41963372 C12.9131047,4.41963372 10.8200349,2.54131977 8.08288953,2.64863372 C5.34587209,2.75594767 3.62833721,4.41963372 3.62833721,4.41963372 C3.62833721,4.41963372 2.7160407,4.09762791 1.91093023,4.41963372 C1.10581977,4.74176744 0.945296512,4.41956977 1.10620349,5.33199419 Z" id="Shape" fill="#FBA919"></path>
                <path d="M6.01022093,13.3227907 C6.01022093,13.3227907 4.94737791,14.9478488 4.16778488,16.1011221 C4.0471686,16.2795523 4.94737791,16.2918953 4.94737791,16.2918953 L6.01022093,13.3227267 L6.01022093,13.3227907 Z M6.51622093,9.95352907 C6.51622093,9.95352907 6.19581395,10.7528198 6.02032558,11.1765116 C5.82987209,11.6371686 5.10348837,11.866314 5.10348837,11.866314 C5.10348837,11.866314 5.47998256,11.4714012 5.47998256,10.4709767 C5.47998256,10.051314 6.02186047,9.88439535 6.02186047,9.88439535 L6.51622093,9.95346512 L6.51622093,9.95352907 Z" id="Shape" fill="#E78724"></path>
                <path d="M6.19261628,10.4054244 C6.19261628,10.4054244 5.53619767,11.1868081 4.3175,10.7491744 C3.09848256,10.3117326 2.97351744,8.74883721 2.97351744,8.31126744 C2.97351744,7.87369767 5.2863314,8.74883721 5.599,8.93641279 C5.91160465,9.12398837 6.50509302,9.87397093 6.19255233,10.4054244 L6.19261628,10.4054244 Z M1.58879651,2.05629651 C1.58879651,2.05629651 2.71393023,1.83731977 3.46391279,2.43125581 C4.21427907,3.02506395 4.43280814,3.49397093 4.43280814,3.49397093 L3.16851163,4.49612209 C3.16851163,4.49612209 2.55762791,4.21293605 2.37011628,3.40021512 C2.18260465,2.58755814 2.30763372,2.21259884 1.58879651,2.05629651 Z" id="Shape" fill="#E78724"></path>
                <path d="M5.86440698,8.14850581 C5.38002326,7.46087791 4.58169186,7.16093605 3.94426744,7.11124419 C2.85744186,7.02625 2.34146512,7.41048256 2.34146512,7.41048256 C2.34146512,7.41048256 4.1214186,7.48581977 4.63445349,8.15963372 C5.58953488,9.41376163 6.98288953,9.51563953 7.20570349,9.24019186 C6.94803488,9.25304651 6.66465698,9.12539535 6.36126163,8.83856395 C6.17176744,8.65911047 6.01815116,8.36677907 5.86440698,8.14850581 L5.86440698,8.14850581 Z M2.85961628,10.5798895 C2.85961628,10.5798895 0.884732558,9.9009593 1.26007558,9.21352326 C1.63503488,8.5258314 1.33656395,8.15112791 1.33656395,8.15112791 C1.33656395,8.15112791 0.233813953,8.97433721 0.514761628,9.84947674 C0.6875,10.3865581 0.977209302,10.7754593 2.56811628,11.5210291 C3.3312093,12.9384302 2.72569767,15.4896628 2.7619593,15.5016221 C2.82239535,15.5217035 3.83337209,15.0019535 3.76436628,12.6150814 C3.74326163,11.8821744 3.68468023,10.8815581 2.85961628,10.5799535 L2.85961628,10.5798895 Z M5.44755814,3.27927907 C4.61948837,3.69996512 3.48501744,4.28584302 3.48501744,4.28584302 L3.9315407,4.50923256 C3.88888372,4.57823837 3.86835465,4.61942442 3.86835465,4.61942442 L4.32664535,4.82778488 C4.32664535,4.82778488 5.44538372,5.63820349 6.13077326,6.15929651 C5.90226744,5.45542442 5.23139535,4.34986047 5.23139535,4.34986047 C5.23139535,4.34986047 5.04132558,3.84187791 5.44755814,3.27921512 L5.44755814,3.27927907 Z M8.1985814,20.4280233 C5.65323256,20.4280233 4.79113953,19.135907 4.79113953,19.135907 L5.18893023,20.1045465 C5.33922093,20.5235698 6.94317442,21.8275814 8.19474419,21.8275814 L8.1985814,20.4280233 Z" id="Shape" fill="#E78724"></path>
                <path d="M5.0700407,18.262814 C5.0700407,18.262814 5.30423837,19.6939651 6.24192442,19.6939651 C7.03872093,19.6939651 7.27349419,18.4850523 7.27349419,18.235186 L5.0700407,18.262814 L5.0700407,18.262814 Z M3.50963953,16.1043837 C3.59297093,15.8750465 3.88466279,14.9478488 3.97835465,14.1040465 C4.09065698,13.0933895 4.04972674,11.6152965 4.04972674,11.6152965 C4.04972674,11.6152965 3.7995407,12.5841919 3.58075581,12.74075 C3.36209884,12.8969244 2.95567442,13.9595116 2.95567442,13.9595116 C2.95567442,13.9595116 2.73797674,15.5414651 2.63437209,16.0731744 C2.92113953,16.1305407 3.1625,15.9616395 3.50963953,16.1043837 L3.50963953,16.1043837 Z M1.24530233,9.83387209 C1.24530233,9.83387209 1.7765,9.6461686 1.93293023,8.48988953 C2.0891686,7.3334186 1.7452907,6.33325 1.7452907,6.33325 C1.7452907,6.33325 1.7765,7.92722674 1.58905233,8.23989535 C1.40141279,8.55230814 1.24530233,8.64612791 1.02638953,9.05255233 C0.807476744,9.4590407 1.1200814,9.70877907 1.24530233,9.83387209 L1.24530233,9.83387209 Z" id="Shape" fill="#E78724"></path>
                <path d="M5.87988372,2.93687209 C5.87988372,2.93687209 5.38002326,2.85360465 5.12983721,2.4785814 C4.87965116,2.10349419 4.17136628,1.35325581 3.04213953,1.34494186 C1.91297674,1.3365 0.795837209,1.64507558 0.795837209,1.64507558 L1.771,2.26126744 C1.87415698,2.25787791 2.05450581,2.25928488 2.35272093,2.26926163 C3.57659884,2.30993605 3.76500581,3.52044767 3.76500581,3.52044767 L8.07815698,2.92651163" id="Shape" fill="#FBA919"></path>
                <path d="M6.29679651,9.62301744 C6.29679651,9.62301744 5.71328488,10.2064651 4.8171686,10.0188256 C3.92111628,9.83137791 3.37923837,9.43544186 3.33760465,8.74775 C3.29597093,8.06012209 3.52530814,7.78927907 3.52530814,7.78927907 C3.52530814,7.78927907 4.52534884,8.10201163 5.00487209,8.51879651 C5.48413953,8.93545349 5.83831395,9.60223256 6.29673256,9.62301744 L6.29679651,9.62301744 Z" id="Shape" fill="#FFFFFF"></path>
                <path d="M5.59062209,9.41459302 C5.59062209,9.41459302 5.08455814,9.64572093 4.51895349,9.45744186 C3.77856395,9.21045349 3.72925581,8.44045349 3.72925581,8.44045349 C3.72925581,8.44045349 3.27499419,9.77343605 4.5485,10.0300174 C5.56990116,10.2357558 6.17400581,9.64386628 6.17400581,9.64386628 L5.59062209,9.41452907 L5.59062209,9.41459302 Z" id="Shape" fill="#C9C9C9"></path>
                <path d="M5.95023256,2.65406977 C5.89580814,1.51096512 6.8329186,0.600523256 7.15767442,0.561703488 C7.1755814,0.755418605 7.13951163,1.51102907 7.46413953,1.74337209 C7.55866279,1.12622093 7.87823837,0.445755814 9.14023256,0 C8.86996512,0.716854651 9.10409884,1.31731395 9.21569767,1.59563953 C10.077407,0.813488372 10.6580407,0.942674419 10.6580407,0.942674419 C10.6580407,0.942674419 10.0592442,1.97590698 10.2935058,2.65387791 C8.56356395,2.51823256 5.95867442,2.83768023 5.95023256,2.65413372 L5.95023256,2.65406977 Z M2.28275581,4.39539535 C1.86993605,4.05292442 2.17761628,3.73513953 2.145,3.34604651 C2.12728488,3.13902907 2.11091279,2.94371512 2.04267442,2.83595349 C1.6627907,2.23619767 0.766738372,2.05418605 0.757784884,2.05226744 L0.337226744,1.96989535 L0.615616279,1.64424419 C0.651686047,1.60203488 1.7949186,0.511180233 3.56419186,1.08241279 C4.80181977,1.48154651 5.71801744,2.83505814 5.75210465,2.88973837 L5.13156395,3.18155814 C5.12427326,3.17004651 4.39993605,1.89775581 3.33818023,1.55541279 C2.47992442,1.27849419 1.68881977,1.54198256 1.35005814,1.71465698 C1.71024419,1.85842442 2.18113372,2.12031395 2.46489535,2.56830814 C2.59875,2.77993023 2.62138953,3.04629651 2.64319767,3.30428488 C2.67197674,3.64579651 2.69883721,3.96818605 2.95017442,4.17699419 L2.28275581,4.39539535 L2.28275581,4.39539535 Z M1.18032558,9.39431977 C1.18032558,9.39431977 1.7003314,8.74941279 1.85439535,7.49464535 C1.91489535,7.00034884 1.80738953,6.02550581 1.6354186,5.65048256 C1.66669186,6.5725 1.43230233,7.49464535 1.43230233,7.49464535 C1.43230233,7.49464535 1.27427326,9.20674419 1.18032558,9.39431977 Z" id="Shape" fill="#463014"></path>
                <path d="M3.92252326,3.74409302 C3.92220349,3.74275 3.75560465,3.01470349 3.29373256,2.64716279 C2.64217442,2.12888372 1.84665698,2.40458721 1.83898256,2.40701744 L1.72348256,2.05015698 C1.76198256,2.03768605 2.67127326,1.75117442 3.50925581,2.34025 C4.3522907,2.93265116 4.45346512,3.4696686 4.46222674,3.52895349 L3.9224593,3.74409302 L3.92252326,3.74409302 Z M2.81363372,8.93180814 C2.81363372,8.93180814 2.54080814,8.54124419 2.58986047,8.11173256 C2.6142907,7.89959884 2.71265116,7.68183721 2.88807558,7.6045814 C3.21423837,7.46132558 3.35877326,7.83097674 3.35877326,7.83097674 C3.35877326,7.83097674 2.89977907,7.94423837 2.81363372,8.93180814 L2.81363372,8.93180814 Z" id="Shape" fill="#463014"></path>
                <path d="M5.80927907,9.52715116 C5.82066279,9.54838372 5.82654651,9.56034302 5.82654651,9.56034302 C5.82654651,9.56034302 4.97551744,10.1989826 4.10344767,9.55087791 C3.63658721,9.20361047 3.68071512,8.34477907 3.82371512,7.98056395 C4.1956686,8.06485465 4.51108721,8.21674419 4.77470349,8.39415116 C4.44150581,8.09676744 4.14987791,7.87785465 4.15064535,7.87280233 L3.77191279,7.76561628 L3.03580814,7.51319186 C3.02640698,7.56934302 2.75793023,8.82781977 3.5329186,9.68530814 C3.87634884,10.0655756 5.48669767,10.9170523 6.25132558,9.46108721 L5.80927907,9.52708721 L5.80927907,9.52715116 Z" id="Shape" fill="#463014"></path>
                <path d="M5.72959302,9.62071512 C6.2086686,10.3499128 7.41751744,9.93319186 7.39673256,9.16229651 C7.39673256,9.16229651 6.589,9.60805233 5.87534302,8.78727326 C5.45868605,8.30813372 4.12365698,6.9869186 2.31313372,7.4259593 C3.56342442,7.7009593 5.21873256,8.8431686 5.72952907,9.62071512 L5.72959302,9.62071512 Z" id="Shape" fill="#463014"></path>
                <path d="M2.1440407,11.6787384 C2.25928488,11.745314 2.66577326,12.1663198 2.66602907,12.7958779 C2.66602907,13.1116163 2.63462791,14.6976628 2.47832558,15.6666221 C2.71335465,15.819343 2.87707558,15.8518314 3.11114535,16.0074942 C3.22830814,14.8853023 3.31234302,13.2588372 3.27320349,12.6022267 C3.22843605,11.8537791 2.82763953,11.3514884 2.45600581,11.1373081 C2.33961047,11.0703488 2.21803488,11.0045407 2.09556395,10.9383488 C1.45903488,10.594407 0.800761628,10.2385698 0.800761628,9.63107558 C0.800761628,9.15577326 0.985587209,9.00714535 1.18115698,8.84956395 L1.20226163,8.83248837 C1.33208721,8.72760465 1.47892442,8.60865116 1.56596512,8.41340116 C1.80342442,7.87951744 1.84224419,6.5194186 1.56596512,6.17419767 C1.4282093,6.00216279 1.05919767,5.42363953 1.16529651,5.03486628 C1.20571512,4.88649419 1.29915116,4.77649419 1.45129651,4.69859884 C1.61226744,4.61609884 1.82977326,4.57433721 2.09748256,4.57433721 C2.62330814,4.57433721 3.20656395,4.73441279 3.50746512,4.82970349 C4.58271512,5.17051163 5.88020349,6.15309302 6.25209302,6.44612791 C6.26277326,6.45431395 6.2690407,6.45911047 6.27019186,6.45987791 L6.50816279,6.62538953 L6.35934302,6.37635465 C6.35013372,6.36081395 5.40752326,4.81083721 3.72202907,4.24254651 C3.39413953,4.13197093 2.74993605,3.94644186 2.11679651,3.94644186 C1.7399186,3.94644186 1.42002326,4.01231395 1.1668314,4.14194767 C0.858127907,4.29984884 0.649127907,4.55176163 0.56227907,4.87025 C0.34944186,5.65093023 1.04263372,6.52012209 1.06623256,6.54794186 C1.14706977,6.69222093 1.18134884,7.74022674 0.994604651,8.15963372 C0.969023256,8.21757558 0.898546512,8.27443023 0.809459302,8.34637791 C0.781511628,8.36895349 0.750302326,8.39242442 0.717238372,8.41749419 C0.453813953,8.61632558 0.0555116279,8.91671512 0.0555116279,9.60913953 C0.0555116279,10.5565465 1.0157093,11.0702209 1.78737209,11.4832326 C1.914,11.551343 2.03480814,11.6158081 2.1440407,11.6787384 Z" id="Shape" fill="#463014"></path>
                <path d="M2.28275581,4.39539535 C1.86993605,4.05292442 2.17761628,3.73513953 2.145,3.34604651 C2.12728488,3.13902907 2.11091279,2.94371512 2.04267442,2.83595349 C1.6627907,2.23619767 0.766738372,2.05418605 0.757784884,2.05226744 L0.337226744,1.96989535 L0.615616279,1.64424419 C0.651686047,1.60203488 1.7949186,0.511180233 3.56419186,1.08241279 C4.80181977,1.48154651 5.71801744,2.83505814 5.75210465,2.88973837 L5.13156395,3.18155814 C5.12427326,3.17004651 4.39993605,1.89775581 3.33818023,1.55541279 C2.47992442,1.27849419 1.68881977,1.54198256 1.35005814,1.71465698 C1.71024419,1.85842442 2.18113372,2.12031395 2.46489535,2.56830814 C2.59875,2.77993023 2.62138953,3.04629651 2.64319767,3.30428488 C2.67197674,3.64579651 2.69883721,3.96818605 2.95017442,4.17699419 L2.28275581,4.39539535 L2.28275581,4.39539535 Z" id="Shape" fill="#463014"></path>
                <path d="M2.26932558,4.46555233 L2.24265698,4.44342442 C1.93657558,4.18940116 1.99087209,3.93921512 2.04344186,3.69708721 C2.06736047,3.58536047 2.09255814,3.46986047 2.08232558,3.35135465 C2.06563372,3.15213953 2.0495814,2.96418023 1.98959302,2.86933721 C1.62793605,2.29823256 0.753819767,2.11532558 0.745186047,2.11353488 L0.22,2.01050581 L0.568162791,1.60344186 C0.57455814,1.59576744 1.30861628,0.854802326 2.55180814,0.854802326 C2.89076163,0.854802326 3.23796512,0.911209302 3.58337791,1.02280814 C4.87511047,1.43927326 5.79655233,2.8426686 5.80525,2.85654651 L5.84253488,2.91615116 L5.10847674,3.26137209 L5.07905814,3.21468605 C5.00001163,3.08 4.30400581,1.93216279 3.31937791,1.61456977 C3.07756977,1.53654651 2.82277907,1.49708721 2.56236047,1.49708721 C2.09063953,1.49708721 1.70813372,1.62563372 1.50456977,1.71197093 C1.84473837,1.86513953 2.25730233,2.12293605 2.51823256,2.53460465 C2.6602093,2.75882558 2.68323256,3.03286628 2.70574419,3.29769767 C2.73337209,3.62693023 2.75946512,3.93659302 2.99046512,4.12832558 L3.07763372,4.20059302 L2.26938953,4.46555233 L2.26932558,4.46555233 Z" id="Shape" fill="#463014"></path>
                <path d="M3.92252326,3.74409302 C3.92220349,3.74275 3.75560465,3.01470349 3.29373256,2.64716279 C2.64217442,2.12888372 1.84665698,2.40458721 1.83898256,2.40701744 L1.72348256,2.05015698 C1.76198256,2.03768605 2.67127326,1.75117442 3.50925581,2.34025 C4.3522907,2.93265116 4.45346512,3.4696686 4.46222674,3.52895349 L3.9224593,3.74409302 L3.92252326,3.74409302 Z" id="Shape" fill="#463014"></path>
                <path d="M3.87769186,3.82921512 L3.86144767,3.75758721 C3.85978488,3.75055233 3.69638372,3.04744767 3.25465698,2.69621512 C3.00287209,2.49578488 2.69928488,2.39397093 2.35278488,2.39397093 C2.08232558,2.39397093 1.88131977,2.45856395 1.85938372,2.46617442 L1.79971512,2.486 L1.64475581,2.00999419 L1.7041686,1.99080814 C1.73077326,1.98230233 1.97213372,1.90702907 2.31351744,1.90702907 C2.76387791,1.90702907 3.18968023,2.03922093 3.54538953,2.28902326 C4.40959302,2.89626163 4.51511628,3.45783721 4.52406977,3.51980814 L4.53168023,3.56879651 L3.87769186,3.82921512 Z M2.35284884,2.26919767 C2.72301163,2.26919767 3.06209302,2.38303488 3.33261628,2.59817442 C3.72484302,2.91058721 3.90934884,3.46205814 3.96511628,3.65980233 L4.39027907,3.49032558 C4.35177907,3.34022674 4.18230233,2.88973837 3.47344186,2.39141279 C3.13429651,2.15305814 2.74418023,2.03231395 2.3135814,2.03231395 C2.07727326,2.03231395 1.89372674,2.0699186 1.8030407,2.09281395 L1.87972093,2.32982558 C1.96861628,2.30590698 2.13975581,2.26919767 2.35284884,2.26919767 Z M6.20272093,19.3506628 C6.01802326,19.3506628 5.82955233,19.2836395 5.6989593,19.1705698 C5.59893605,19.0843605 5.26075,18.7737384 5.11161047,18.3932151 C5.05597093,18.2509186 5.06844186,18.1370814 5.14921512,18.055157 C5.20485465,17.9990058 5.3204186,17.9319186 5.55493605,17.9319186 L5.7217907,17.9316628 C5.92062209,17.931407 6.25535465,17.931407 6.54148256,17.931407 L6.81584302,17.931407 C6.99427326,17.931407 7.12218023,17.9700349 7.19566279,18.0452442 C7.29012209,18.1422616 7.25987209,18.2656919 7.23339535,18.3306686 C7.18747674,18.4445058 6.99721512,18.8148605 6.67514535,19.159186 C6.55983721,19.2826163 6.39202326,19.3506628 6.20272093,19.3506628 L6.20272093,19.3506628 Z M6.39630814,9.66356395 L5.72952907,9.62071512 C5.72952907,9.62071512 5.89996512,9.9211686 6.01041279,10.30975 C6.13512209,10.7493023 5.89638372,11.3917151 5.89638372,11.3917151 C5.89638372,11.3917151 6.78546512,10.3850872 6.39630814,9.66356395 L6.39630814,9.66356395 Z M5.56395349,21.1113023 C3.19070349,20.928907 2.35572674,18.6863779 2.35572674,18.2193256 L2.9755,18.2195814 L2.66564535,18.2193256 L2.9755,18.2193256 C2.97863372,18.4212267 3.60927907,20.3395116 5.61140698,20.4935116 L5.56395349,21.1113023 L5.56395349,21.1113023 Z" id="Shape" fill="#463014"></path>
                <path d="M4.89704651,17.0934884 C4.85995349,16.8791802 4.85611628,16.6758721 4.9013314,16.4761453 C4.72098256,16.340564 4.39737791,16.2902326 4.15454651,16.2115058 C3.95597093,16.0858372 2.93981395,16.3403081 2.20268605,15.448157 C1.27900581,14.3310174 1.47336047,13.6640465 1.47336047,13.6640465 C1.2365407,13.9271512 1.00701163,13.8268721 0.64605814,15.0537558 C0.28452907,16.2808953 0.815726744,17.1363372 1.80572674,17.9951686 C2.2734186,18.4008256 2.93456977,18.568 3.50330814,18.6319535 C3.3127907,18.4407326 3.82870349,18.4215465 4.18428488,18.2885233 C4.15595349,18.0013721 4.20347093,17.7226628 4.41752326,17.49825 C4.5465814,17.3629244 4.7126686,17.2820872 4.88502326,17.2176221 C4.89461628,17.1953663 4.90273837,17.1747733 4.91188372,17.1534128 C4.90581712,17.1337323 4.90086354,17.1137258 4.89704651,17.0934884 L4.89704651,17.0934884 Z" id="Shape" fill="#FFFFFF"></path>
                <path d="M4.17955233,18.2810407 C4.1589593,18.2207326 4.1434186,18.1593372 4.12819767,18.0974942 C4.11176163,18.0300233 4.02990116,17.8386744 4.13075581,18.0571395 C4.10485465,18.0011802 4.08790698,17.9435581 4.07543605,17.8854884 C2.47212209,17.8834419 1.07729651,16.7826105 1.34679651,14.4683256 C1.13690116,14.1896802 0.84297093,15.0302209 0.84297093,15.0302209 C0.84297093,15.0302209 0.0402906977,17.360814 2.11327907,18.264093 C2.80397674,18.565314 3.41441279,18.7812849 3.55843605,18.6941163 C3.85844186,18.755064 4.12922093,18.545936 4.23077907,18.4083721 C4.21178488,18.3661628 4.19438953,18.3238256 4.17955233,18.2810407 Z" id="Shape" fill="#C9C9C9"></path>
                <path d="M4.86813953,16.7579244 C4.87063372,16.5626105 4.9105407,16.3733721 5.005,16.1849012 C5.01158721,16.1719186 5.01919767,16.1594477 5.02629651,16.1467849 C4.40933721,16.1414767 3.69881395,16.0824477 3.09375,15.8402558 C2.42869767,15.5742093 1.5967907,14.6641512 1.45385465,13.5948488 C1.45385465,13.5948488 0.201389535,14.561314 0.569377907,16.6300174 C0.914854651,18.5724767 2.54036047,19.2057442 4.39418023,19.3128663 C4.39520349,19.3003314 4.18569186,18.8676221 4.25188372,18.6026628 C3.1992093,18.6791512 2.0220814,18.2724709 1.45385465,17.3374709 C0.933593023,16.4816453 1.07953488,15.020564 1.2933314,14.8064477 C1.81487209,16.4520988 3.69152326,16.7866395 4.86813953,16.7579244 L4.86813953,16.7579244 Z" id="Shape" fill="#463014"></path>
                <path d="M5.06236628,15.5798372 C4.72878488,16.5587733 4.04742442,17.351093 4.04742442,17.351093 C4.04742442,17.351093 4.98472674,17.308436 5.03646512,17.1426047 C5.07477326,17.0203256 5.88282558,15.1287093 6.193,12.9127209 C5.90124419,13.3920523 5.09095349,15.4959942 5.06236628,15.5798372 L5.06236628,15.5798372 Z" id="Shape" fill="#463014"></path>
                <path d="M10.3728721,13.3227907 C10.3728721,13.3227907 11.4354593,14.9478488 12.2153081,16.1011221 C12.3359244,16.2795523 11.4354593,16.2918953 11.4354593,16.2918953 L10.3728721,13.3227267 L10.3728721,13.3227907 Z M9.86674419,9.95352907 C9.86674419,9.95352907 10.1871512,10.7528198 10.3623837,11.1765116 C10.5529651,11.6371686 11.2792209,11.866314 11.2792209,11.866314 C11.2792209,11.866314 10.9027907,11.4714012 10.9027907,10.4709767 C10.9027907,10.051314 10.3609767,9.88439535 10.3609767,9.88439535 L9.86674419,9.95346512 L9.86674419,9.95352907 Z" id="Shape" fill="#E78724"></path>
                <path d="M10.1903488,10.4054244 C10.1903488,10.4054244 10.8467035,11.1868081 12.0657849,10.7491744 C13.2848663,10.3116047 13.4097035,8.74883721 13.4097035,8.31126744 C13.4097035,7.87369767 11.0968895,8.74883721 10.7842209,8.93641279 C10.4716163,9.12398837 9.87787209,9.87397093 10.1903488,10.4054244 Z M14.7942326,2.05629651 C14.7942326,2.05629651 13.6690988,1.83731977 12.9187965,2.43125581 C12.168814,3.02506395 11.9499012,3.49397093 11.9499012,3.49397093 L13.2142616,4.49612209 C13.2142616,4.49612209 13.8254012,4.21280814 14.0129128,3.40015116 C14.2003605,2.58755814 14.0753953,2.21253488 14.7942326,2.05629651 L14.7942326,2.05629651 Z" id="Shape" fill="#E78724"></path>
                <path d="M10.5186221,8.14850581 C11.0030058,7.46087791 11.8010814,7.16093605 12.4387616,7.11124419 C13.5256512,7.02625 14.0413721,7.41048256 14.0413721,7.41048256 C14.0413721,7.41048256 12.2614186,7.48581977 11.7482558,8.15963372 C10.7931105,9.41376163 9.40026744,9.51563953 9.17745349,9.24019186 C9.43505814,9.25304651 9.71862791,9.12539535 10.0217674,8.83856395 C10.2111977,8.65911047 10.3649419,8.36677907 10.5186221,8.14850581 L10.5186221,8.14850581 Z M13.5234128,10.5798895 C13.5234128,10.5798895 15.4981047,9.9009593 15.1230174,9.21352326 C14.7480581,8.5258314 15.0462733,8.15112791 15.0462733,8.15112791 C15.0462733,8.15112791 16.1492791,8.97433721 15.8680756,9.84941279 C15.6953372,10.3864942 15.4056279,10.7753953 13.8147209,11.5209651 C13.0516279,12.9383663 13.6571395,15.4895988 13.6210698,15.5015581 C13.5605698,15.5216395 12.5497209,15.0018895 12.6187267,12.6150174 C12.6397035,11.8821105 12.6983488,10.8814942 13.5234128,10.5798895 Z M10.9355349,3.27927907 C11.7633488,3.69996512 12.8980116,4.28584302 12.8980116,4.28584302 L12.4516163,4.50923256 C12.4942093,4.57823837 12.5148023,4.61942442 12.5148023,4.61942442 L12.0565116,4.82778488 C12.0565116,4.82778488 10.9377093,5.63820349 10.2522558,6.15929651 C10.4805698,5.45548837 11.1514419,4.34992442 11.1514419,4.34992442 C11.1514419,4.34992442 11.3418953,3.84194186 10.9355349,3.27927907 L10.9355349,3.27927907 Z M8.18457558,20.4280233 C10.7294767,20.4280233 11.5916337,19.135907 11.5916337,19.135907 L11.1940988,20.1045465 C11.0438081,20.5235698 9.43966279,21.8275814 8.18847674,21.8275814 L8.18457558,20.4280233 Z" id="Shape" fill="#E78724"></path>
                <path d="M11.3129884,18.262814 C11.3129884,18.262814 11.0785349,19.6939651 10.1411047,19.6939651 C9.3445,19.6939651 9.10959884,18.4850523 9.10959884,18.235186 L11.3129884,18.262814 Z M12.8733895,16.1043837 C12.7900581,15.8750465 12.4983663,14.9478488 12.4044186,14.1040465 C12.2921163,13.0933895 12.3333023,11.6152965 12.3333023,11.6152965 C12.3333023,11.6152965 12.5833605,12.5841919 12.8019535,12.74075 C13.0209302,12.8969244 13.4270988,13.9595116 13.4270988,13.9595116 C13.4270988,13.9595116 13.6447326,15.5414651 13.7483372,16.0731744 C13.4616977,16.1305407 13.220593,15.9616395 12.8733895,16.1043837 L12.8733895,16.1043837 Z M15.1379186,9.83387209 C15.1379186,9.83387209 14.6064651,9.6461686 14.4502907,8.48988953 C14.2940523,7.3334186 14.6378663,6.33325 14.6378663,6.33325 C14.6378663,6.33325 14.6064651,7.92722674 14.7941047,8.23989535 C14.9817442,8.55243605 15.1379186,8.64612791 15.3567674,9.05255233 C15.5753605,9.45891279 15.2628198,9.70877907 15.1379186,9.83387209 L15.1379186,9.83387209 Z" id="Shape" fill="#E78724"></path>
                <path d="M10.5028895,2.93687209 C10.5028895,2.93687209 11.0030698,2.85360465 11.253,2.4785814 C11.5030581,2.10349419 12.2116628,1.35325581 13.3409535,1.34487791 C14.4701163,1.33643605 15.5872558,1.64501163 15.5872558,1.64501163 L14.6120291,2.26120349 C14.5088721,2.25781395 14.3285233,2.25922093 14.0300523,2.26919767 C12.8063663,2.30987209 12.6179593,3.52038372 12.6179593,3.52038372 L8.30493605,2.92644767" id="Shape" fill="#FBA919"></path>
                <path d="M10.0862326,9.62301744 C10.0862326,9.62301744 10.6697442,10.2064651 11.5656686,10.0188256 C12.4617849,9.83137791 13.0035988,9.43544186 13.0452965,8.74775 C13.0868663,8.06012209 12.8577849,7.78927907 12.8577849,7.78927907 C12.8577849,7.78927907 11.8574244,8.10201163 11.3782209,8.51879651 C10.8989535,8.9355814 10.5447791,9.60223256 10.0862326,9.62301744 L10.0862326,9.62301744 Z" id="Shape" fill="#FFFFFF"></path>
                <path d="M10.7922151,9.41459302 C10.7922151,9.41459302 11.2984709,9.64572093 11.8638837,9.45744186 C12.6044651,9.21045349 12.6537733,8.44045349 12.6537733,8.44045349 C12.6537733,8.44045349 13.1077791,9.77343605 11.8342733,10.0300174 C10.813064,10.2357558 10.2088314,9.64386628 10.2088314,9.64386628 L10.7922151,9.41452907 L10.7922151,9.41459302 Z" id="Shape" fill="#C9C9C9"></path>
                <path d="M14.1002093,4.39539535 C14.5130291,4.05292442 14.2056047,3.73513953 14.2382209,3.34604651 C14.2556163,3.13902907 14.2719884,2.94371512 14.3402907,2.83595349 C14.7201744,2.23619767 15.6162267,2.05418605 15.625436,2.05226744 L16.0461221,1.96989535 L15.7676047,1.64424419 C15.7315349,1.60203488 14.5883023,0.511180233 12.8187093,1.08241279 C11.5813372,1.48154651 10.6652035,2.83505814 10.6311163,2.88973837 L11.2514651,3.18155814 C11.2589477,3.17004651 11.9833488,1.89775581 13.0451047,1.55541279 C13.9033605,1.27849419 14.6943372,1.54198256 15.0329709,1.71465698 C14.6729767,1.85842442 14.2018953,2.12031395 13.9181337,2.56830814 C13.7842791,2.77993023 13.7618314,3.04629651 13.7400872,3.30428488 C13.7113081,3.64579651 13.6841919,3.96818605 13.4327907,4.17699419 L14.1002093,4.39539535 L14.1002093,4.39539535 Z M15.2024477,9.39431977 C15.2024477,9.39431977 14.6826977,8.74941279 14.5286337,7.49464535 C14.4681337,7.00034884 14.5754477,6.02550581 14.7473547,5.65048256 C14.7160814,6.5725 14.9507267,7.49464535 14.9507267,7.49464535 C14.9507267,7.49464535 15.1087558,9.20674419 15.2024477,9.39431977 Z" id="Shape" fill="#463014"></path>
                <path d="M12.4605698,3.74409302 C12.4608256,3.74275 12.6274244,3.01470349 13.0893605,2.64716279 C13.7408547,2.12888372 14.536436,2.40458721 14.5438547,2.40701744 L14.6596744,2.05015698 C14.6210465,2.03768605 13.7118837,1.75117442 12.8736453,2.34025 C12.0306105,2.93265116 11.9296919,3.4696686 11.9206744,3.52895349 L12.4605698,3.74409302 L12.4605698,3.74409302 Z M13.5693953,8.93180814 C13.5693953,8.93180814 13.8422209,8.54124419 13.7929128,8.11173256 C13.7687384,7.89959884 13.6704419,7.68183721 13.4948895,7.6045814 C13.1687907,7.46132558 13.0241919,7.83097674 13.0241919,7.83097674 C13.0241919,7.83097674 13.48325,7.94423837 13.5693953,8.93180814 Z" id="Shape" fill="#463014"></path>
                <path d="M10.573814,9.52715116 C10.5624302,9.54838372 10.5565465,9.56034302 10.5565465,9.56034302 C10.5565465,9.56034302 11.4071919,10.1989826 12.2793256,9.55087791 C12.7464419,9.20361047 12.702314,8.34477907 12.5590581,7.98056395 C12.1872965,8.06485465 11.8719419,8.21674419 11.6081337,8.39415116 C11.9413953,8.09676744 12.2330872,7.87785465 12.232064,7.87280233 L12.6110523,7.76561628 L13.3470291,7.51331977 C13.3564942,7.56947093 13.624907,8.82794767 12.8496628,9.6855 C12.5062326,10.0657035 10.8958837,10.9171802 10.1315116,9.46121512 L10.573814,9.52708721 L10.573814,9.52715116 Z" id="Shape" fill="#463014"></path>
                <path d="M10.6532442,9.62071512 C10.1741686,10.3499128 8.96563953,9.93319186 8.98648837,9.16229651 C8.98648837,9.16229651 9.79396512,9.60805233 10.5076221,8.78727326 C10.9242151,8.30813372 12.259564,6.9869186 14.0699593,7.4259593 C12.8197326,7.7009593 11.1643605,8.8431686 10.6532442,9.62071512 L10.6532442,9.62071512 Z" id="Shape" fill="#463014"></path>
                <path d="M14.2392442,11.6787384 C14.1238721,11.745314 13.7171919,12.1663198 13.7171919,12.7958779 C13.716936,13.1116163 13.7484012,14.6976628 13.9048953,15.6666221 C13.6698023,15.819343 13.5060814,15.8518314 13.2720116,16.0074942 C13.1548488,14.8853023 13.0705581,13.2588372 13.1100174,12.6022267 C13.1547209,11.8537791 13.5553256,11.3514884 13.9268953,11.1373081 C14.0432907,11.0703488 14.1649302,11.0045407 14.287657,10.9383488 C14.924186,10.594407 15.5824593,10.2385698 15.5824593,9.63107558 C15.5824593,9.15577326 15.3975058,9.00714535 15.201936,8.84956395 L15.1810872,8.83248837 C15.0512616,8.72760465 14.9041047,8.60865116 14.8173198,8.41340116 C14.5797965,7.87951744 14.5408488,6.5194186 14.817064,6.17419767 C14.9548198,6.00216279 15.3240872,5.42363953 15.2179884,5.03486628 C15.177314,4.88649419 15.083814,4.77649419 14.9317326,4.69859884 C14.7706977,4.61609884 14.5535756,4.57433721 14.2855465,4.57433721 C13.7600407,4.57433721 13.1764651,4.73441279 12.8758198,4.82970349 C11.8005698,5.17051163 10.5031453,6.15309302 10.130936,6.44612791 C10.1203198,6.45431395 10.1141802,6.45911047 10.1130291,6.45987791 L9.87486628,6.62538953 L10.023686,6.37635465 C10.0331512,6.36081395 10.9755698,4.81083721 12.661,4.24254651 C12.9889535,4.13197093 13.633093,3.94644186 14.2662326,3.94644186 C14.6431744,3.94644186 14.962686,4.01231395 15.2161977,4.14194767 C15.5249651,4.29984884 15.7338372,4.55176163 15.820814,4.87025 C16.0336512,5.65093023 15.3403953,6.52012209 15.3167326,6.54794186 C15.2359593,6.69222093 15.2017442,7.74022674 15.3881686,8.15963372 C15.4138779,8.21757558 15.4842907,8.27443023 15.5736337,8.34637791 C15.6015174,8.36895349 15.6324709,8.39242442 15.6657907,8.41749419 C15.9292791,8.61632558 16.3273895,8.91671512 16.3273895,9.60913953 C16.3273895,10.5565465 15.3671919,11.0702209 14.5957849,11.4832326 C14.469093,11.551343 14.348093,11.6158081 14.2391802,11.6787384 L14.2392442,11.6787384 Z" id="Shape" fill="#463014"></path>
                <path d="M13.0937733,4.28392442 C12.9410523,4.02523256 12.5504244,3.52575581 11.6502791,3.08684302 C10.6456337,2.59721512 9.4829593,2.34869186 8.19397674,2.34811628 L8.19397674,2.34779651 L8.18898837,2.34779651 L8.18898837,2.34792442 C6.89981395,2.34856395 5.73688372,2.59715116 4.73255814,3.08671512 C3.83234884,3.52569186 3.44197674,4.02510465 3.28912791,4.28379651 L3.22351163,4.3705814 L3.99440698,4.5421686 L4.01883721,4.51127907 L4.03175581,4.48301163 C4.04365116,4.4320407 4.147,4.15697674 5.00640698,3.73788953 C5.92522674,3.28976744 6.99689535,3.0625407 8.1912907,3.06215698 C9.38594186,3.0625407 10.4571628,3.28976744 11.3758547,3.73788953 C12.2353895,4.15697674 12.3390581,4.4320407 12.3508256,4.48294767 L12.3636802,4.51127907 L12.3878547,4.5421686 L13.1589419,4.3705814 L13.0937093,4.28392442 L13.0937733,4.28392442 Z" id="Shape" fill="#463014"></path>
                <path d="M14.1002093,4.39539535 C14.5130291,4.05292442 14.2056047,3.73513953 14.2382209,3.34604651 C14.2556163,3.13902907 14.2719884,2.94371512 14.3402907,2.83595349 C14.7201744,2.23619767 15.6162267,2.05418605 15.625436,2.05226744 L16.0461221,1.96989535 L15.7676047,1.64424419 C15.7315349,1.60203488 14.5883023,0.511180233 12.8187093,1.08241279 C11.5813372,1.48154651 10.6652035,2.83505814 10.6311163,2.88973837 L11.2514651,3.18155814 C11.2589477,3.17004651 11.9833488,1.89775581 13.0451047,1.55541279 C13.9033605,1.27849419 14.6943372,1.54198256 15.0329709,1.71465698 C14.6729767,1.85842442 14.2018953,2.12031395 13.9181337,2.56830814 C13.7842791,2.77993023 13.7618314,3.04629651 13.7400872,3.30428488 C13.7113081,3.64579651 13.6841919,3.96818605 13.4327907,4.17699419 L14.1002093,4.39539535 L14.1002093,4.39539535 Z" id="Shape" fill="#463014"></path>
                <path d="M13.3057791,4.20091279 L13.3926279,4.1285814 C13.6238198,3.93684884 13.6497209,3.62718605 13.6776686,3.29795349 C13.7000523,3.03305814 13.7231395,2.75895349 13.8650523,2.53486047 C14.1258547,2.12331977 14.5386744,1.8654593 14.8787151,1.71209884 C14.6751512,1.62588953 14.2925814,1.49734302 13.8207965,1.49734302 C13.56025,1.49734302 13.3059709,1.53673837 13.0640349,1.61482558 C12.0791512,1.9324186 11.3832093,3.08025581 11.3044186,3.21494186 L11.2748721,3.26162791 L10.540814,2.91640698 L10.5781628,2.85680233 C10.5867965,2.84292442 11.5080465,1.43959302 12.7997791,1.02306395 C13.1451919,0.911465116 13.4923953,0.855122093 13.8316047,0.855122093 C15.0747965,0.855122093 15.8089186,1.59627907 15.815186,1.60376163 L16.1634128,2.01082558 L15.6380349,2.1137907 C15.6293372,2.1155814 14.7552849,2.29842442 14.3933721,2.86965698 C14.3333837,2.96456395 14.3176512,3.1523314 14.3006395,3.35167442 C14.2907267,3.47024419 14.3156047,3.58574419 14.339843,3.69740698 C14.3923488,3.93953488 14.4466453,4.18997674 14.1403721,4.44374419 L14.1137674,4.46587209 L13.3057791,4.20091279 L13.3057791,4.20091279 Z" id="Shape" fill="#463014"></path>
                <path d="M12.4605698,3.74409302 C12.4608256,3.74275 12.6274244,3.01470349 13.0893605,2.64716279 C13.7408547,2.12888372 14.536436,2.40458721 14.5438547,2.40701744 L14.6596744,2.05015698 C14.6210465,2.03768605 13.7118837,1.75117442 12.8736453,2.34025 C12.0306105,2.93265116 11.9296919,3.4696686 11.9206744,3.52895349 L12.4605698,3.74409302 L12.4605698,3.74409302 Z" id="Shape" fill="#463014"></path>
                <path d="M11.8517326,3.56879651 L11.8590233,3.51980814 C11.8681686,3.45783721 11.9737558,2.89638953 12.8377674,2.28902326 C13.1932209,2.03922093 13.6191512,1.90709302 14.0695116,1.90709302 C14.4110872,1.90709302 14.6524477,1.98217442 14.6791802,1.99080814 L14.7384651,2.00999419 L14.5836337,2.486 L14.5238372,2.46617442 C14.5014535,2.45862791 14.3005756,2.39397093 14.0302442,2.39397093 C13.6838081,2.39397093 13.3804128,2.49565698 13.1286279,2.69621512 C12.6868372,3.04757558 12.5233721,3.75068023 12.5218372,3.75758721 L12.505593,3.82908721 L11.8517326,3.56879651 Z M14.5033721,2.32982558 L14.5803081,2.09281395 C14.4895581,2.0697907 14.3058198,2.03231395 14.0695116,2.03231395 C13.6389767,2.03231395 13.2487326,2.15318605 12.9097791,2.39141279 C12.2006628,2.88986628 12.031186,3.34022674 11.99275,3.49032558 L12.4182326,3.65980233 C12.4738721,3.46193023 12.658186,2.9104593 13.0506047,2.59817442 C13.3213837,2.38297093 13.6600814,2.26919767 14.0301802,2.26919767 C14.2430174,2.26919767 14.4144767,2.30590698 14.503436,2.32982558 L14.5033721,2.32982558 Z M9.70813953,19.159186 C9.38613372,18.8149244 9.19561628,18.4444419 9.14956977,18.3306686 C9.12322093,18.2658198 9.0932907,18.1422616 9.18768605,18.0451802 C9.26129651,17.9700349 9.38888372,17.931407 9.56725,17.931407 L9.84180233,17.931407 C10.1279302,17.931407 10.4624709,17.931407 10.6614302,17.9316628 L10.8283488,17.9319186 C11.0626744,17.9319186 11.1781744,17.9989419 11.23375,18.055157 C11.3145872,18.1369535 11.327186,18.2507267 11.2714826,18.3932151 C11.1224709,18.7738023 10.784157,19.0844244 10.6841977,19.1705698 C10.5532209,19.2836395 10.3651977,19.3506628 10.1805,19.3506628 C9.99119767,19.3506628 9.82344767,19.2826163 9.70813953,19.159186 L9.70813953,19.159186 Z M9.98684884,9.66356395 L10.6532442,9.62071512 C10.6532442,9.62071512 10.483064,9.9211686 10.3726163,10.30975 C10.247907,10.7493023 10.4866453,11.3917151 10.4866453,11.3917151 C10.4866453,11.3917151 9.5975,10.3850872 9.98684884,9.66356395 L9.98684884,9.66356395 Z" id="Shape" fill="#463014"></path>
                <path d="M8.19161047,7.28302326 C7.76663953,7.28302326 7.21254651,7.27138372 6.79678488,6.97259302 C6.79678488,6.97259302 7.34115698,7.92684302 8.19090698,7.92684302 L8.19161047,7.80609884 L8.19231395,7.92684302 C9.04212791,7.92684302 9.58637209,6.97265698 9.58637209,6.97265698 C9.17067442,7.27131977 8.61619767,7.28302326 8.19161047,7.28302326 Z" id="Shape" fill="#E78724"></path>
                <path d="M9.36170349,7.2784186 C8.93545349,7.53640698 8.55473837,7.62581395 8.19161047,7.63374419 C7.82835465,7.62581395 7.4478314,7.53640698 7.02151744,7.2784186 C7.02151744,7.2784186 7.64231395,8.03594767 8.18847674,8.04176744 L8.18847674,8.04221512 C8.18943605,8.04221512 8.19039535,8.0419593 8.19154651,8.0419593 C8.19250581,8.0419593 8.19346512,8.04221512 8.19461628,8.04221512 L8.19461628,8.04176744 C8.74065116,8.03594767 9.36170349,7.2784186 9.36170349,7.2784186 L9.36170349,7.2784186 Z M10.8191395,21.1113023 L10.7716221,20.4933837 C12.7732384,20.3394477 13.4039477,18.4211628 13.4072093,18.2191977 L14.0270465,18.2191977 C14.0273023,18.68625 13.1920698,20.928907 10.8191395,21.1113023 Z" id="Shape" fill="#463014"></path>
                <path d="M11.4859186,17.0934884 C11.5232035,16.8791802 11.5268488,16.6758721 11.4816337,16.4761453 C11.6622384,16.340564 11.9855872,16.2902326 12.2284186,16.2115058 C12.4269942,16.0858372 13.443407,16.3403081 14.1805988,15.448157 C15.1042151,14.3310174 14.9096047,13.6640465 14.9096047,13.6640465 C15.1466163,13.9271512 15.3759535,13.8268721 15.7371628,15.0537558 C16.0986919,16.2808953 15.5672384,17.1363372 14.5772384,17.9951686 C14.1096105,18.4008256 13.4483953,18.568 12.879657,18.6319535 C13.0701744,18.4407326 12.5542616,18.4215465 12.1988721,18.2885233 C12.2272674,18.0013721 12.1795581,17.7226628 11.9655058,17.49825 C11.8367035,17.3629244 11.6703605,17.2820872 11.4981977,17.2176221 C11.4884767,17.1953663 11.4801628,17.1747733 11.4712733,17.1534128 C11.4769651,17.133907 11.4823372,17.1142093 11.4859826,17.0934884 L11.4859186,17.0934884 Z" id="Shape" fill="#FFFFFF"></path>
                <path d="M12.2032209,18.2810407 C12.2240698,18.2207326 12.2392907,18.1593372 12.2545756,18.0974942 C12.2712674,18.0300233 12.3531279,17.8386744 12.2520814,18.0571395 C12.2780465,18.0011802 12.2949302,17.9435581 12.3074651,17.8854884 C13.9107791,17.8834419 15.3056047,16.7826105 15.0358488,14.4683256 C15.2457442,14.1896802 15.5398663,15.0302209 15.5398663,15.0302209 C15.5398663,15.0302209 16.3425465,17.360814 14.2695581,18.264093 C13.5788605,18.565314 12.9685523,18.7812849 12.8244651,18.6941163 C12.5242035,18.755064 12.2533605,18.545936 12.1520581,18.4083721 C12.1709884,18.3661628 12.1887674,18.3238256 12.2032209,18.2810407 L12.2032209,18.2810407 Z" id="Shape" fill="#C9C9C9"></path>
                <path d="M11.5146337,16.7579244 C11.5123953,16.5626105 11.4722326,16.3733721 11.378093,16.1849012 C11.3713779,16.1719186 11.3637674,16.1594477 11.3567326,16.1467849 C11.9736279,16.1414767 12.6842151,16.0824477 13.2892791,15.8402558 C13.9542674,15.5742093 14.7861744,14.6641512 14.9291744,13.5948488 C14.9291744,13.5948488 16.1816395,14.561314 15.8136512,16.6300174 C15.4679186,18.5724767 13.8426047,19.2057442 11.9888488,19.3128663 C11.9878256,19.3003314 12.1974012,18.8676221 12.1311453,18.6026628 C13.1835,18.6791512 14.3606919,18.2724709 14.9292384,17.3374709 C15.4491802,16.4816453 15.3033663,15.020564 15.0895058,14.8064477 C14.568157,16.4520988 12.691314,16.7866395 11.5146337,16.7579244 L11.5146337,16.7579244 Z" id="Shape" fill="#463014"></path>
                <path d="M12.2632093,17.245186 C12.0417384,17.0057442 11.6345465,16.7203837 10.6956453,16.7203837 L8.19474419,16.7188488 L8.18860465,16.7188488 C7.46784884,16.7193605 5.68738372,16.7203837 5.68738372,16.7203837 C4.74867442,16.7203837 4.34148256,17.0058081 4.11988372,17.245186 C3.79711047,17.5936686 3.7464593,18.0783721 3.96978488,18.6842674 C4.56314535,20.2969826 5.39703488,21.9354709 8.18847674,21.9377733 L8.18847674,21.9380291 C8.1895,21.9380291 8.19039535,21.9377733 8.19154651,21.9377733 C8.19250581,21.9377733 8.19346512,21.9380291 8.19461628,21.9380291 L8.19461628,21.9377733 C10.9858023,21.935343 11.8196919,20.2969826 12.4132442,18.6842674 C12.6365698,18.0783721 12.5857907,17.5936686 12.2632093,17.245186 Z M11.8286453,18.5711977 C11.5459709,19.3810407 10.7861395,21.3412151 8.19148256,21.3446047 C5.59650581,21.3412151 4.83699419,19.3811047 4.55425581,18.5711977 C4.39782558,18.1218605 4.40972093,17.7893663 4.59083721,17.5828605 C4.71458721,17.4416512 4.99879651,17.2731337 5.64651744,17.2731337 L6.3232093,17.2728779 C6.82243023,17.2724302 7.44923837,17.2719186 8.19154651,17.2715988 C8.93359884,17.2719186 9.56072674,17.2724302 10.0598198,17.2728779 L10.7362558,17.2731337 C11.3841686,17.2731337 11.668314,17.4415872 11.7921279,17.5828605 C11.9730523,17.7895581 11.9850756,18.1218605 11.8285814,18.5711977 L11.8286453,18.5711977 Z" id="Shape" fill="#463014"></path>
                <path d="M11.3205349,15.5798372 C11.6541163,16.5587733 12.3354767,17.351093 12.3354767,17.351093 C12.3354767,17.351093 11.3981744,17.308436 11.3463721,17.1426047 C11.3083198,17.0203256 10.5002674,15.1287093 10.190093,12.9127209 C10.481593,13.3920523 11.2918837,15.4959942 11.3205349,15.5798372 L11.3205349,15.5798372 Z" id="Shape" fill="#463014"></path>
            </g>
        </g>
    </g>
</svg>