<?xml version="1.0" encoding="UTF-8"?>
<svg width="10px" height="22px" viewBox="0 0 10 22" version="1.1" xmlns="http://www.w3.org/2000/svg" xmlns:xlink="http://www.w3.org/1999/xlink">
    <!-- Generator: Sketch 45.1 (43504) - http://www.bohemiancoding.com/sketch -->
    <title>gulp</title>
    <desc>Created with Sketch.</desc>
    <defs></defs>
    <g id="Welcome" stroke="none" stroke-width="1" fill="none" fill-rule="evenodd">
        <g id="Mobile-Portrait" transform="translate(-41.000000, -536.000000)" fill-rule="nonzero" fill="#D34A47">
            <g id="gulp" transform="translate(41.000000, 536.000000)">
                <path d="M7.66812721,21.3294664 L7.87907067,17.8145194 L8.4615265,16.8202438 C8.4615265,16.8202438 7.13585159,17.3625477 4.91645583,17.3625477 C2.6970212,17.3625477 1.3914417,16.8302721 1.3914417,16.8302721 L2.04421201,17.9148799 L2.27513428,21.3294664 C2.27513428,21.6955371 3.48237456,21.992265 4.97165018,21.992265 C6.46084806,21.992265 7.66812721,21.6955371 7.66812721,21.3294664 M7.00272438,4.91517314 L7.4454841,3.16508481 L9.89739576,0.58509894 L9.25115548,0.0346713781 L6.65531095,2.783 L6.14122615,4.87389399 C5.7543151,4.8609298 5.36721298,4.85448954 4.98008481,4.85457597 C2.24617668,4.85457597 0.0298904594,5.16615194 0.0298904594,5.55041343 C0.0298904594,5.93471378 2.24617668,6.24625088 4.98008481,6.24625088 C7.71395406,6.24625088 9.93020141,5.93471378 9.93020141,5.55041343 C9.93020141,5.26744523 8.72820848,5.02389046 7.00272438,4.91517314" id="Shape"></path>
                <path d="M9.89257597,0.590190813 C9.95422261,0.518982332 9.86066431,0.336840989 9.68361484,0.183424028 C9.50648763,0.0300848057 9.31291873,-0.0365371025 9.25115548,0.0346713781 C9.18946996,0.105879859 9.28306714,0.288021201 9.46019435,0.441360424 C9.63724382,0.594738516 9.83089046,0.661438163 9.89257597,0.590190813 M7.55019788,12.7438693 C7.49208834,12.1847739 8.77310247,11.3750495 8.44434629,11.3491237 C7.73661484,11.3895866 7.38438163,12.1785159 7.02830035,13.0047986 C6.89781625,13.307629 6.45132509,14.5989435 6.1584841,14.4399682 C5.86572085,14.2810707 6.5380424,13.2192014 6.72648057,12.5885866 C6.50904594,12.7480283 5.71164311,13.3675654 5.50614134,12.787364 C5.17575265,13.0679611 4.46977032,13.2199788 4.54941343,12.4829011 C4.37364664,12.7942438 3.97916254,13.2289187 3.50565724,13.0482933 C2.88382686,12.8111519 3.86597527,10.8303357 4.11019081,10.9302686 C4.35444523,11.0301625 4.06090459,11.4813958 3.9840212,11.6566184 C3.81493993,12.0422403 3.61962191,12.5270177 3.75010601,12.6262509 C3.97364311,12.796265 4.581947,11.9830813 4.5954735,11.9652014 C4.70924382,11.814894 5.03337456,10.8315406 5.29461484,10.9444558 C5.55585512,11.057371 4.6430106,12.3557208 4.98432155,12.6133852 C5.05315901,12.6653922 5.33480565,12.581318 5.50614134,12.3959505 C5.61699647,12.2760389 5.57886572,12.0104452 5.94839576,11.1292014 C6.3179258,10.2479965 6.64726502,9.15056184 6.90069258,9.23416961 C7.15412014,9.31773852 6.94523675,9.88099293 6.85432155,10.0909647 C6.42769258,11.0764558 5.68995406,12.7045724 6.03787279,12.581318 C6.38579152,12.4581025 6.56696113,12.4508728 6.90765018,12.0521908 C7.24833922,11.6535088 7.23263604,10.9968127 7.45971025,11.0107668 C7.68686219,11.0247597 7.64873145,11.2353145 7.59365371,11.3956502 C7.81715194,11.1398905 8.6530742,10.6012403 8.85488339,11.1347208 C9.09392933,11.7663074 7.65891519,12.6786078 8.01670671,12.6320813 C8.3655583,12.5867208 8.93071731,12.2287739 9.17201767,11.9033216 L9.83621555,5.93199293 C9.83621555,5.93199293 9.16785866,6.48510247 4.91579505,6.48510247 C0.66369258,6.48510247 0.0644840989,5.94349823 0.0644840989,5.94349823 L0.629954064,11.3939011 C0.930102473,10.5408375 1.64284806,8.81535336 2.76632509,8.87326855 C3.27737809,8.89962191 3.95961131,9.88367491 3.37521201,9.91702473 C3.12784806,9.93109541 3.10273852,9.42583392 2.80981979,9.35163251 C2.59844876,9.29807067 2.30416961,9.46991166 2.11398233,9.65609541 C1.73469611,10.0272968 0.918946996,11.4918516 1.02673145,12.2220106 C1.16405654,13.1528905 2.31128269,11.8985406 2.50539576,11.5261343 C2.64209894,11.2638057 2.7344523,10.486576 3.03343463,10.5681237 C3.33245583,10.6496714 3.00735336,11.4517774 2.79061837,12.160947 C2.54714134,12.9572615 2.41914488,13.797265 2.11398233,13.700636 C1.80878092,13.6040848 2.30591873,12.5760707 2.28792226,12.3959505 C2.00106714,12.6606113 1.47260071,13.3306396 0.796508834,12.9990071 L1.14769258,16.3836643 C1.14769258,16.3836643 2.08106007,17.1211307 4.89274558,17.1211307 C7.7044311,17.1211307 8.67235336,16.3951696 8.67235336,16.3951696 L9.10842756,12.4749329 C8.75164664,12.8223463 7.6224947,13.4392792 7.55019788,12.7438693" id="Shape"></path>
            </g>
        </g>
    </g>
</svg>