<?xml version="1.0" encoding="UTF-8"?>
<svg width="22px" height="22px" viewBox="0 0 22 22" version="1.1" xmlns="http://www.w3.org/2000/svg" xmlns:xlink="http://www.w3.org/1999/xlink">
    <!-- Generator: Sketch 45.1 (43504) - http://www.bohemiancoding.com/sketch -->
    <title>jquery</title>
    <desc>Created with Sketch.</desc>
    <defs></defs>
    <g id="Welcome" stroke="none" stroke-width="1" fill="none" fill-rule="evenodd">
        <g id="Mobile-Portrait" transform="translate(-233.000000, -575.000000)" fill-rule="nonzero">
            <g id="jquery" transform="translate(233.000000, 575.000000)">
                <circle id="Oval" fill="#1B75BB" cx="11" cy="11" r="11"></circle>
                <g id="Group" transform="translate(4.033333, 3.300000)" fill="#FFFFFF">
                    <path d="M13.9575333,10.7767 C11.8433333,13.0885333 7.95116667,13.3397 4.8741,11.2398 C1.69986667,9.07316667 0.539366667,5.18723333 2.13363333,2.3485 C1.80253333,2.6532 1.50223333,2.99823333 1.24006667,3.38286667 C-0.825366667,6.40933333 0.230633333,10.7261 3.59846667,13.0247333 C6.96666667,15.3233667 11.3718,14.7337667 13.4372333,11.7073 C13.6407333,11.4084667 13.8138,11.0971667 13.9575333,10.7767 L13.9575333,10.7767 Z" id="Shape"></path>
                    <path d="M14.4833333,6.93733333 L14.3905667,7.06933333 C13.0218,8.94043333 10.0716,9.20186667 7.70953333,7.63033333 C5.2932,6.0225 4.40806667,3.1053 5.73246667,1.11466667 C5.8344,0.9614 5.9466,0.8184 6.0676,0.6853 C6.16256667,0.5808 6.2634,0.482533333 6.369,0.3905 C6.25643333,0.484366667 6.1468,0.583366667 6.0412,0.687133333 C5.78196667,0.942333333 5.54473333,1.22796667 5.335,1.54256667 C3.6938,4.0095 4.3626,7.33956667 6.82953333,8.98113333 C9.29646667,10.6227 12.5858333,9.92566667 14.2274,7.45873333 C14.2277667,7.4591 14.3788333,7.2094 14.4833333,6.93733333 Z" id="Shape"></path>
                    <path d="M9.43763333,5.30603333 C10.8298667,6.25643333 12.6342333,6.08666667 13.6770333,4.97493333 C13.7786,4.8664 13.8735667,4.74943333 13.9597333,4.6233 C14.0979667,4.4209 14.2061333,4.20676667 14.2875333,3.9853 C14.2497667,4.05716667 14.2079667,4.1272 14.1614,4.1954 C14.0011667,4.43006667 13.8006,4.6244 13.5714333,4.77876667 C12.6217667,5.41713333 11.1708667,5.35773333 9.96966667,4.53823333 C8.63573333,3.6278 8.06263333,2.0889 8.54626667,0.910066667 C8.60346667,0.7711 8.67423333,0.6369 8.76076667,0.509666667 C8.82676667,0.412866667 8.90046667,0.3234 8.9793,0.240166667 C8.77103333,0.411766667 8.58366667,0.6138 8.42526667,0.846266667 L8.40693333,0.874866667 C7.46313333,2.29313333 7.91963333,4.26983333 9.43763333,5.30603333 L9.43763333,5.30603333 Z" id="Shape"></path>
                </g>
            </g>
        </g>
    </g>
</svg>