<?xml version="1.0" encoding="UTF-8"?>
<svg width="29px" height="20px" viewBox="0 0 29 20" version="1.1" xmlns="http://www.w3.org/2000/svg" xmlns:xlink="http://www.w3.org/1999/xlink">
    <!-- Generator: Sketch 45.1 (43504) - http://www.bohemiancoding.com/sketch -->
    <title>laravel</title>
    <desc>Created with Sketch.</desc>
    <defs></defs>
    <g id="Welcome" stroke="none" stroke-width="1" fill="none" fill-rule="evenodd">
        <g id="Mobile-Portrait" transform="translate(-71.000000, -652.000000)" fill-rule="nonzero">
            <g id="laravel" transform="translate(71.000000, 652.000000)">
                <path d="M28.0851746,9.45864624 C27.9001428,9.2471814 25.3185095,6.01793701 24.8647412,5.47165283 C24.4109729,4.92536865 24.1862915,5.03110107 23.9087439,5.0619397 C23.6311963,5.09277832 20.3843298,5.65227905 19.9834277,5.7139563 C19.5825256,5.77563354 19.3666553,5.92982666 19.6001477,6.25583496 L22.42849,10.2604504 L13.8905969,12.2957996 L7.10169434,0.960402832 C6.83295776,0.559500732 6.77568604,0.4009021 6.16772461,0.444957275 C5.55976318,0.489012451 0.841453857,0.885509033 0.506634521,0.885509033 C0.171815186,0.885509033 -0.198248291,1.06172974 0.136571045,1.8547229 C0.471390381,2.64771606 5.8152832,14.1813611 5.9650708,14.4985583 C6.19082933,15.0714195 6.8290869,15.3633056 7.41008057,15.159386 C8.33964478,14.9347046 11.5644836,14.0932507 13.3266907,13.6306714 C14.2562549,15.3179846 16.155033,18.7366663 16.5074744,19.2256787 C16.9744592,19.8821008 17.3004675,19.7719629 18.0185669,19.551687 C18.5824731,19.3798718 26.8296021,16.419364 27.1820435,16.2695764 C27.5344849,16.1197888 27.7811938,16.0096509 27.5300793,15.6351819 C27.3494531,15.3796619 25.177533,12.4764258 24.0409094,10.9741443 L27.8869263,9.94765869 C28.2261511,9.83752075 28.2746118,9.65248901 28.0851746,9.45864624 Z M12.5689417,12.6306189 L7.43210815,13.8553528 C7.17658813,13.9126245 7.17658813,13.8861914 7.14574951,13.7980811 C7.11491089,13.7099707 1.46263184,2.04856567 1.38333252,1.90318359 C1.3040332,1.75780151 1.30843872,1.64325806 1.38333252,1.64325806 C1.45822632,1.64325806 5.89898804,1.24676147 6.05318115,1.23795044 C6.20737427,1.2291394 6.19415771,1.26438354 6.25142944,1.36130493 L12.6218079,12.3750989 C12.7363513,12.5513196 12.776001,12.5777527 12.5689417,12.6306189 Z M26.0498254,15.1549805 C26.1247192,15.2739294 26.2040186,15.3532288 25.9617151,15.4369336 C25.7194116,15.5206384 17.8687793,18.1771655 17.7189917,18.2432483 C17.5692041,18.3093311 17.4458496,18.3313586 17.2520068,18.045 C17.0581641,17.7586414 14.5029639,13.3399072 14.5029639,13.3399072 L22.8205811,11.1767981 C23.0628845,11.0974988 23.1201563,11.1283374 23.2258887,11.2737195 C23.3316211,11.4191016 25.9925537,15.040437 26.0498254,15.159386 L26.0498254,15.1549805 Z M26.5828931,9.2471814 C26.3978613,9.29123657 23.3492432,10.0489856 23.3492432,10.0489856 L20.8513147,6.62149292 C20.7808264,6.52016602 20.7235547,6.42324463 20.8997754,6.40121704 C21.0759961,6.37918945 23.9131494,5.8637439 24.0409094,5.83731079 C24.1918828,5.7741155 24.3659276,5.83986574 24.437406,5.98709839 C24.5960046,6.20296875 26.7547083,8.93879517 26.8384131,9.04452759 C26.9221179,9.15026001 26.7679248,9.21193726 26.5828931,9.25158691 L26.5828931,9.2471814 Z" id="Shape" fill="#F0543F"></path>
                <path d="M12.7231348,12.5336975 C12.7231348,12.5821582 12.6967017,12.5997803 12.5733472,12.6306189 L11.8948975,12.7980286 L12.5072644,13.8729749 L13.3443127,13.652699" id="Shape" fill="#2B2626" opacity="0.4"></path>
                <g id="Group" opacity="0.4" transform="translate(22.908691, 10.573242)" fill="#2B2626">
                    <path d="M0.198248291,0.58152832 C0.247559162,0.612090115 0.2884482,0.654493562 0.317197266,0.704882812 L0.722504883,1.28200562 L1.6036084,1.01767456 L1.13221802,0.4009021" id="Shape"></path>
                </g>
            </g>
        </g>
    </g>
</svg>