<?xml version="1.0" encoding="UTF-8"?>
<svg width="20px" height="22px" viewBox="0 0 20 22" version="1.1" xmlns="http://www.w3.org/2000/svg" xmlns:xlink="http://www.w3.org/1999/xlink">
    <!-- Generator: Sketch 45.1 (43504) - http://www.bohemiancoding.com/sketch -->
    <title>mocha</title>
    <desc>Created with Sketch.</desc>
    <defs></defs>
    <g id="Welcome" stroke="none" stroke-width="1" fill="none" fill-rule="evenodd">
        <g id="Mobile-Portrait" transform="translate(-215.000000, -672.000000)" fill-rule="nonzero">
            <g id="mocha" transform="translate(215.000000, 672.000000)">
                <path d="M18.7638832,16.9170172 L10.2670447,21.8263436 C9.90232737,22.038711 9.45162452,22.038711 9.08690722,21.8263436 L0.590068729,16.9170172 C0.224233677,16.7045773 0,16.3152302 0,15.9021443 L0,6.08349141 C0,5.65868729 0.224233677,5.28105842 0.590068729,5.06861856 L9.08690722,0.159292096 C9.45162452,-0.053075256 9.90232737,-0.053075256 10.2670447,0.159292096 L18.7638832,5.06861856 C19.1297938,5.28105842 19.3539519,5.6704811 19.3539519,6.08349141 L19.3539519,15.9021443 C19.3421581,16.3151546 19.1179244,16.7045773 18.7638832,16.9170172 Z" id="Shape" fill="#8D6748"></path>
                <path d="M9.66518213,1.49290034 C9.48819931,1.49290034 9.31114089,1.5400756 9.1577457,1.63450172 L1.81738144,5.87112715 C1.49872165,6.04818557 1.30994502,6.39035739 1.30994502,6.74432302 L1.30994502,15.2176495 C1.30994502,15.5834845 1.49872165,15.9139381 1.81738144,16.0909966 L9.1577457,20.327622 C9.31114089,20.4220481 9.48812371,20.4692234 9.66518213,20.4692234 C9.84208935,20.4692234 10.0192234,20.4220481 10.1726186,20.327622 L17.5129828,16.090921 C17.8316426,15.9139381 18.0204192,15.5716907 18.0204192,15.2177251 L18.0204192,6.74432302 C18.0204192,6.37856357 17.8316426,6.04818557 17.5129828,5.87112715 L10.1726186,1.63442612 C10.0191478,1.5400756 9.84216495,1.49290034 9.66518213,1.49290034 Z M9.66518213,1.84694158 C9.78312027,1.84694158 9.88941581,1.88232302 9.99556014,1.9413677 L17.3359244,6.17799313 C17.5365704,6.29593127 17.6663024,6.52024055 17.6663024,6.75626804 L17.6663024,15.2295189 C17.6663024,15.4655464 17.5365704,15.6897045 17.3359244,15.8077182 L9.99563574,20.0443436 C9.88941581,20.1033127 9.78319588,20.1387698 9.66518213,20.1387698 C9.5484324,20.1382855 9.43408185,20.105584 9.33472852,20.044268 L1.99436426,15.8077938 C1.79371821,15.6897801 1.66391065,15.465622 1.66391065,15.2295945 L1.66391065,6.75626804 C1.66391065,6.52024055 1.79371821,6.29600687 1.99428866,6.17791753 L9.33465292,1.9413677 C9.44087285,1.88232302 9.5588866,1.84686598 9.66503093,1.84686598 L9.66518213,1.84694158 Z M8.98658419,9.2344811 L9.97786942,9.2344811 C10.0133265,9.2344811 10.0369141,9.22261168 10.0605017,9.19902405 C10.6505704,8.53819244 10.7096151,7.15740893 10.7096151,6.74439863 C10.7096151,6.68542955 10.6623643,6.62638488 10.5916014,6.62638488 L8.37292784,6.62638488 C8.31395876,6.62638488 8.25491409,6.67356014 8.25491409,6.74439863 C8.25491409,7.14561512 8.31395876,8.52639863 8.90402749,9.19902405 C8.92761512,9.22261168 8.95120275,9.2344811 8.98658419,9.2344811 L8.98658419,9.2344811 Z M8.71517526,6.99221993 L10.2729416,6.99221993 C10.3319107,6.99221993 10.3909553,7.03939519 10.3909553,7.11023368 C10.3909553,7.44068729 10.3319107,8.37292784 9.93069416,8.85677663 C9.89531271,8.88043986 9.87172509,8.89223368 9.83626804,8.89223368 L9.14005498,8.89223368 C9.10459794,8.89223368 9.08101031,8.88043986 9.05742268,8.85677663 C8.65613058,8.38479725 8.60895533,7.44068729 8.59716151,7.11023368 C8.59716151,7.0512646 8.64433677,6.99221993 8.71517526,6.99221993 Z M9.70646048,6.39043299 C9.70646048,6.39043299 10.1313402,6.14253608 9.87164948,5.69414433 C9.7182543,5.45804124 9.64749141,5.25747079 9.70646048,5.17483849 C9.55306529,5.36369072 9.29345017,5.56426117 9.57665292,5.98914089 C9.67115464,6.09536082 9.7182543,6.3195189 9.70646048,6.39035739 L9.70646048,6.39043299 Z M9.2344055,6.42573883 C9.2344055,6.42573883 9.51760825,6.26054983 9.34062543,5.95368385 C9.2344055,5.80028866 9.18723024,5.65868729 9.2344055,5.61143643 C9.12818557,5.74124399 8.96299656,5.87105155 9.1517732,6.16612371 C9.21081787,6.22509278 9.2344055,6.37856357 9.2344055,6.42573883 Z M9.19902405,8.7506323 L9.78909278,8.7506323 C9.81268041,8.7506323 9.83626804,8.73883849 9.85985567,8.71525086 C10.0605017,8.47922337 10.1549278,8.11338832 10.2021031,7.79472852 C10.2021031,7.79472852 10.1903093,7.90094845 9.90710653,8.00716838 C9.51775945,8.14876976 8.833189,8.05434364 8.833189,8.05434364 C8.89215808,8.30216495 8.98665979,8.53819244 9.12818557,8.71525086 C9.13997938,8.73883849 9.17543643,8.7506323 9.19902405,8.7506323 Z M4.76175258,12.0667354 L4.76175258,9.70653608 L4.32515464,9.70653608 L3.60527835,10.8158351 L2.88540206,9.70653608 L2.44872852,9.70653608 L2.44872852,12.0785292 L2.86173883,12.0785292 L2.86173883,10.3909553 L3.59340893,11.4884605 L3.60520275,11.4884605 L4.34874227,10.3791615 L4.34874227,12.0667354 L4.76175258,12.0667354 Z M7.40530584,9.75371134 C7.25183505,9.69474227 7.08664605,9.65928522 6.90966323,9.65928522 C6.73260481,9.65928522 6.56741581,9.68287285 6.41394502,9.75378694 C6.26047423,9.81275601 6.13074227,9.90710653 6.02452234,10.0133265 C5.91297671,10.1246013 5.82472024,10.256986 5.76490722,10.4027491 C5.70593814,10.5562199 5.6704055,10.7095395 5.6704055,10.8748041 L5.6704055,10.8865979 C5.6704055,11.0517869 5.70593814,11.2170515 5.76490722,11.3586529 C5.82387629,11.5121237 5.90650859,11.6418557 6.01272852,11.7480756 C6.11894845,11.8542955 6.24875601,11.9487216 6.4020756,12.0076907 C6.55554639,12.0667354 6.720811,12.1021924 6.89779381,12.1021924 C7.07485223,12.1021924 7.24004124,12.0785292 7.39351203,12.0076907 C7.54690722,11.9487216 7.67671478,11.8542955 7.78285911,11.7480756 C7.89442356,11.6368299 7.98270557,11.5044711 8.04254983,11.3587285 C8.1015189,11.2052577 8.13697595,11.0517869 8.13697595,10.8865979 L8.13697595,10.8748041 C8.13697595,10.7095395 8.1014433,10.5444261 8.04247423,10.4027491 C7.98350515,10.249354 7.90094845,10.1195464 7.79472852,10.0134021 C7.68850859,9.90710653 7.55870103,9.81268041 7.40530584,9.75371134 L7.40530584,9.75371134 Z M7.68850859,10.8983918 C7.68850859,11.0046117 7.66492096,11.1108316 7.62946392,11.2170515 C7.58228866,11.3114021 7.5351134,11.4058282 7.46427491,11.4766667 C7.39178756,11.5486807 7.30809227,11.6084521 7.21645361,11.6536495 C7.12195189,11.7009003 7.01580756,11.724488 6.89779381,11.724488 C6.79164948,11.724488 6.67363574,11.7009003 6.57920962,11.6536495 C6.48757629,11.6084751 6.40388132,11.5487295 6.33138832,11.4767423 C6.26054983,11.3940344 6.20158076,11.3114021 6.16612371,11.2053333 C6.13074227,11.0990378 6.10715464,10.9928935 6.10715464,10.8748041 L6.10715464,10.8630103 C6.10715464,10.7567904 6.13074227,10.6505704 6.16612371,10.5443505 C6.21337457,10.4499244 6.26054983,10.3555739 6.33138832,10.2847354 C6.40387262,10.2126975 6.4875677,10.1529007 6.57920962,10.107677 C6.67363574,10.0605017 6.77978007,10.0369141 6.89779381,10.0369141 C7.01573196,10.0369141 7.12202749,10.0605017 7.21645361,10.107677 C7.30809553,10.1529007 7.39179062,10.2126975 7.46427491,10.2847354 C7.5351134,10.3673677 7.59408247,10.4499244 7.62946392,10.5561443 C7.66492096,10.6623643 7.68843299,10.7685842 7.68843299,10.8865979 L7.68843299,10.8983918 L7.68850859,10.8983918 Z M9.43505155,10.5443505 C9.4822268,10.4499244 9.52947766,10.3554983 9.60024055,10.2847354 C9.67275332,10.2127312 9.7564426,10.1529386 9.84806186,10.107677 C9.94248797,10.0605017 10.0369141,10.0369141 10.1549278,10.0369141 C10.2965292,10.0369141 10.414543,10.0605017 10.5207629,10.1194708 C10.6269828,10.1785155 10.7214089,10.249354 10.8157595,10.3319107 L11.087244,10.0251203 C11.0281993,9.9661512 10.9692302,9.91890034 10.9101856,9.87164948 C10.8512165,9.82447423 10.780378,9.78909278 10.7096151,9.75371134 C10.6269828,9.73004811 10.5561443,9.70646048 10.4617182,9.68287285 C10.3673677,9.67107904 10.2729416,9.65928522 10.1667216,9.65928522 C9.97786942,9.65928522 9.82447423,9.69466667 9.67107904,9.75363574 C9.51768385,9.81268041 9.38787629,9.90710653 9.28165636,10.0133265 C9.17749143,10.1280863 9.09368063,10.2597853 9.03383505,10.4027491 C8.97198715,10.5524709 8.93991383,10.7128118 8.93940893,10.8748041 L8.93940893,10.8865979 C8.93940893,11.0517869 8.97479038,11.2051821 9.03383505,11.3586529 C9.09280412,11.5121237 9.17543643,11.6418557 9.28165636,11.7480756 C9.38787629,11.8542955 9.51768385,11.9487216 9.65928522,12.0076907 C9.8086527,12.0707068 9.96922534,12.1028522 10.1313402,12.1021924 C10.2375601,12.1021924 10.3437045,12.1021924 10.4499244,12.0785292 C10.5325567,12.0667354 10.6269828,12.0312784 10.6977457,11.9958969 C10.7685842,11.9605155 10.8394227,11.9250584 10.9101856,11.8660893 C10.9810241,11.8071203 11.0399931,11.7598694 11.0990378,11.6890309 L10.8276289,11.417622 C10.7214089,11.5121237 10.615189,11.5828866 10.5207629,11.6418557 C10.4263368,11.7009003 10.2965292,11.724488 10.1549278,11.724488 C10.0487079,11.724488 9.94248797,11.6890309 9.84806186,11.6536495 C9.75371134,11.618268 9.67107904,11.5474296 9.60024055,11.4767423 C9.52947766,11.3940344 9.47043299,11.3114021 9.43505155,11.2051821 C9.3996701,11.0990378 9.37600687,10.9928179 9.37600687,10.8748041 L9.37600687,10.8630103 C9.37600687,10.7567904 9.3996701,10.6505704 9.43505155,10.5443505 L9.43505155,10.5443505 Z M11.925134,9.70653608 L11.925134,12.0667354 L12.3381443,12.0667354 L12.3381443,11.0754502 L13.4711065,11.0754502 L13.4711065,12.0667354 L13.8841168,12.0667354 L13.8841168,9.70646048 L13.4711065,9.70646048 L13.4711065,10.6860275 L12.3381443,10.6860275 L12.3381443,9.70646048 L11.925134,9.70646048 L11.925134,9.70653608 Z M16.456756,11.5003299 L16.6927835,12.066811 L17.1293814,12.066811 L16.090921,9.69474227 L15.7132165,9.69474227 L14.674756,12.0667354 L15.0996357,12.0667354 L15.3473814,11.5002543 L16.456756,11.5002543 L16.456756,11.5003299 Z M15.9020687,10.1903849 L16.3032852,11.1344948 L15.5008522,11.1344948 L15.9020687,10.1903849 L15.9020687,10.1903849 Z M2.15373196,12.9399313 L17.2002199,12.9399313 L17.2002199,12.8101237 L2.15373196,12.8101237 L2.15373196,12.9399313 Z M10.8040412,8.37285223 C10.8040412,8.42002749 10.7921718,8.45548454 10.7921718,8.5027354 L17.2002199,8.5027354 L17.2002199,8.37285223 L10.8039656,8.37285223 L10.8040412,8.37285223 Z M8.17235739,8.37285223 L2.15373196,8.37285223 L2.15373196,8.5027354 L8.1841512,8.5027354 C8.1841512,8.45556014 8.17228179,8.42010309 8.17228179,8.37285223 L8.17235739,8.37285223 Z" id="Shape" fill="#FFFFFF"></path>
            </g>
        </g>
    </g>
</svg>