<?xml version="1.0" encoding="UTF-8"?>
<svg width="11px" height="22px" viewBox="0 0 11 22" version="1.1" xmlns="http://www.w3.org/2000/svg" xmlns:xlink="http://www.w3.org/1999/xlink">
    <!-- Generator: Sketch 45.1 (43504) - http://www.bohemiancoding.com/sketch -->
    <title>mongodb</title>
    <desc>Created with Sketch.</desc>
    <defs></defs>
    <g id="Welcome" stroke="none" stroke-width="1" fill="none" fill-rule="evenodd">
        <g id="Mobile-Portrait" transform="translate(-192.000000, -650.000000)" fill-rule="nonzero">
            <g id="mongodb" transform="translate(192.487889, 650.000000)">
                <path d="M4.97629,16.43587 C4.86266,17.88149 4.69942,18.93661 4.53893,19.30467 C4.53893,19.30467 4.51627,19.28916 4.47546,19.25935 C4.87861,20.1982 4.83846,21.80464 4.83846,21.80464 L5.42784,22 C5.42784,22 5.30816,20.44141 5.47503,19.6878 C5.52552,19.45988 5.64179,19.26045 5.77907,19.09292 C5.75707,19.10821 5.74541,19.11591 5.74541,19.11591 C5.16901,18.85037 5.0017,17.60099 4.97629,16.43587 Z" id="Shape" fill="#C2BFBF"></path>
                <path d="M9.66724,8.72509 C8.51224,3.62945 5.78424,1.95448 5.49076,1.31483 C5.16802,0.86229 4.84308,0.0605 4.84308,0.0605 L4.84308,0.0715 C5.11643,1.1275 5.07012,9.64821 5.1007,10.66879 C5.16505,12.80279 5.1007,14.85341 4.97596,16.43587 C5.00115,17.60099 5.16857,18.85037 5.74596,19.11602 C5.74596,19.11602 5.75762,19.10832 5.77962,19.09303 C5.87048,19.02967 6.13954,18.83409 6.49847,18.50519 L6.52388,18.48198 C7.9068,17.20565 10.5677,13.98991 9.66724,8.72509 Z" id="Shape" fill="#599636"></path>
                <path d="M4.97629,16.43587 C5.1007,14.85341 5.16538,12.80301 5.1007,10.66879 C5.07012,9.64821 5.11643,1.1275 4.84319,0.0715 C4.83737402,0.0470453845 4.82949927,0.0231267325 4.81965,0 C4.78665,0.44979 4.76894,0.62557 4.3417,1.08152 C3.68093,1.59852 0.28798,4.44444 0.01155,10.23352 C-0.24618,15.63199 3.91193,18.8485 4.47546,19.25935 C4.51638,19.28916 4.53893,19.30467 4.53893,19.30467 C4.69942,18.9365 4.86277,17.88149 4.97629,16.43587 Z" id="Shape" fill="#69B240"></path>
            </g>
        </g>
    </g>
</svg>