<?xml version="1.0" encoding="UTF-8"?>
<svg width="26px" height="23px" viewBox="0 0 26 23" version="1.1" xmlns="http://www.w3.org/2000/svg" xmlns:xlink="http://www.w3.org/1999/xlink">
    <!-- Generator: Sketch 45.1 (43504) - http://www.bohemiancoding.com/sketch -->
    <title>react</title>
    <desc>Created with Sketch.</desc>
    <defs></defs>
    <g id="Welcome" stroke="none" stroke-width="1" fill="none" fill-rule="evenodd">
        <g id="Mobile-Portrait" transform="translate(-15.000000, -651.000000)" fill-rule="nonzero">
            <g id="react" transform="translate(15.824219, 651.000000)">
                <path d="M0.0734849563,11.1835527 C0.0734849563,13.0562496 1.90212983,14.8043923 4.78500119,15.789812 C4.20930406,18.6879846 4.68188835,21.024007 6.26015809,21.9341874 C7.88238235,22.8698049 10.2991993,22.2221821 12.5931189,20.2169395 C14.8291472,22.1411928 17.0889558,22.8984582 18.6658611,21.9856464 C20.2866235,21.0473974 20.7794795,18.5530023 20.1878963,15.5642892 C23.1906437,14.57156 24.870272,13.080907 24.870272,11.1835527 C24.870272,9.35432306 23.0383135,7.77186254 20.1942313,6.79277783 C20.8311334,3.68058272 20.2914965,1.4012821 18.647831,0.453482098 C17.0632263,-0.460304308 14.7771035,0.336140072 12.5082311,2.3106828 C10.1477462,0.21489964 7.8842341,-0.424926272 6.24232288,0.525505152 C4.65918013,1.44192298 4.20745232,3.82043805 4.78500119,6.77221374 C1.99939506,7.74340417 0.0734849563,9.36173003 0.0734849563,11.1835527 Z" id="Shape" fill="#FFFFFF"></path>
                <path d="M19.5919275,7.76504033 C19.3575328,7.68463838 19.1211494,7.61015519 18.8830023,7.54166165 C18.9224957,7.38118432 18.959017,7.21999014 18.9925476,7.05816183 C19.5291632,4.45324683 19.1783066,2.35473479 17.9801315,1.66393721 C16.8313686,1.00140308 14.9525318,1.69220066 13.0549826,3.34346805 C12.8680036,3.50655233 12.685175,3.67433479 12.5066718,3.84665483 C12.387133,3.73207221 12.2654818,3.61971387 12.1417809,3.50963761 C10.1531065,1.74385454 8.15975395,0.999843722 6.9628458,1.69268796 C5.81515502,2.35707383 5.475214,4.32995973 5.95832399,6.79862544 C6.00639006,7.04309536 6.06066039,7.28630445 6.12108245,7.52801723 C5.83903276,7.60812948 5.56663163,7.69350457 5.30602318,7.78433744 C2.97458137,8.59715512 1.48558513,9.87115426 1.48558513,11.192519 C1.48558513,12.557351 3.08393166,13.9262764 5.51244378,14.756247 C5.70936026,14.8232344 5.90791576,14.8853033 6.10792533,14.9423959 C6.04294882,15.2028036 5.98526238,15.4649763 5.93493355,15.728607 C5.47433686,18.1543902 5.83406229,20.0804953 6.9787318,20.7407878 C8.16102093,21.4225216 10.1453097,20.7217831 12.0775547,19.0327986 C12.2302748,18.8992782 12.3835796,18.7576686 12.5370793,18.6092368 C12.7304229,18.7957813 12.9289289,18.9769001 13.1323659,19.1523822 C15.0039907,20.7629113 16.85242,21.4132629 17.9961149,20.751216 C19.177332,20.0674356 19.5611301,17.9982591 19.0627189,15.4807658 C19.0247094,15.2884769 18.980365,15.0920947 18.9306604,14.8921065 C19.0700284,14.8509783 19.206765,14.8084857 19.3401879,14.7642388 C21.8647958,13.9278357 23.5072917,12.5755761 23.5072917,11.192519 C23.5072917,9.86637871 21.9703451,8.58380308 19.5919275,7.76504033 Z" id="Shape" fill="#53C1DE"></path>
                <path d="M19.0442989,13.8713088 C18.9239356,13.91117 18.8003561,13.9496668 18.6744376,13.986994 C18.3957016,13.1046873 18.0195054,12.1664384 17.5592985,11.1971971 C17.9985514,10.250859 18.3601286,9.32469518 18.6310678,8.44804109 C18.8562983,8.51333939 19.0749988,8.5820488 19.2857077,8.65465662 C21.3235995,9.35607735 22.5666063,10.3933458 22.5666063,11.192519 C22.5666063,12.0438335 21.2240927,13.1490316 19.0443964,13.8713088 L19.0442989,13.8713088 Z M18.1398687,15.6635036 C18.3602261,16.7766935 18.3917057,17.7831645 18.2457104,18.5699603 C18.114529,19.2769363 17.8508018,19.7482536 17.5247002,19.9370339 C16.8306864,20.3387647 15.3464657,19.8165732 13.7459751,18.4392663 C13.5624576,18.2813808 13.3775757,18.1127747 13.1922065,17.9344227 C13.8127353,17.2557101 14.4328742,16.4666727 15.0381018,15.590506 C16.1027565,15.4960671 17.1085453,15.3415927 18.0206749,15.1307864 C18.0655066,15.3120623 18.1054652,15.4897322 18.1398687,15.6635036 L18.1398687,15.6635036 Z M8.99323319,19.8676423 C8.3152029,20.1071019 7.77517618,20.1139241 7.44878213,19.9257285 C6.75408615,19.5251673 6.46540917,17.9784747 6.85924565,15.9040353 C6.90607916,15.6588801 6.95970286,15.415071 7.02005491,15.1728892 C7.92204864,15.3723901 8.92052792,15.5159489 9.98771661,15.6024936 C10.59694,16.4598505 11.2350117,17.2479133 11.8780538,17.9380287 C11.7413902,18.0702298 11.6014925,18.1990462 11.4584878,18.3243607 C10.6040546,19.0712954 9.74786717,19.6010888 8.99333065,19.8676423 L8.99323319,19.8676423 Z M5.81671438,13.866046 C4.74289841,13.499011 3.85610846,13.022041 3.24824948,12.5016038 C2.70208278,12.0337951 2.42627054,11.5693974 2.42627054,11.192519 C2.42627054,10.3907143 3.62181425,9.36787002 5.61575155,8.67268674 C5.8660194,8.58581245 6.11877687,8.50628339 6.37369917,8.43420175 C6.64931648,9.33054279 7.01079619,10.2677196 7.44702784,11.2154222 C7.00514351,12.1772564 6.63849841,13.1293447 6.36034713,14.0362114 C6.1777693,13.9839525 5.99650364,13.9272136 5.81671438,13.866046 L5.81671438,13.866046 Z M6.88156403,6.61793431 C6.46765075,4.50275659 6.74248839,2.9072364 7.4341631,2.50687009 C8.17096187,2.08038445 9.80000835,2.68853581 11.5170613,4.21310501 C11.6268015,4.31056516 11.7370289,4.41260594 11.8474513,4.51815529 C11.2077228,5.20515192 10.5754988,5.98726965 9.97153822,6.83965616 C8.93582916,6.93565442 7.94436701,7.08983638 7.03291965,7.29635445 C6.97677514,7.07148947 6.92630724,6.8452451 6.88156403,6.61783685 L6.88156403,6.61793431 Z M16.3807129,8.96350784 C16.1654309,8.59164181 15.9421629,8.22445671 15.7110642,7.8622081 C16.4137519,7.95089684 17.0869092,8.06882363 17.7190357,8.21316212 C17.5292808,8.82141094 17.292745,9.45743591 17.0142039,10.1094443 C16.8106893,9.72328672 16.5994835,9.34123173 16.3807129,8.96350784 L16.3807129,8.96350784 Z M12.5069641,5.19043543 C12.9408567,5.66048576 13.3754316,6.18540615 13.8028918,6.75486583 C12.9357899,6.71389165 12.0672412,6.71369651 11.2001209,6.75428107 C11.627971,6.19008424 12.0662493,5.66594353 12.5069641,5.19043543 L12.5069641,5.19043543 Z M8.60836304,8.96994021 C8.39233151,9.34466008 8.18507479,9.72437077 7.98676218,10.1087621 C7.71280169,9.45899527 7.47841001,8.82014396 7.28699827,8.20322118 C7.91532389,8.06258618 8.58536245,7.94768066 9.28346953,7.86045382 C9.04978087,8.22494744 8.82468333,8.59487819 8.60836304,8.96994021 L8.60836304,8.96994021 Z M9.30354632,14.5917343 C8.58234118,14.5112322 7.90216677,14.4021743 7.27403607,14.2654377 C7.46846908,13.6375994 7.70802614,12.9850062 7.98783424,12.3213025 C8.18698288,12.7059788 8.39515035,13.0859186 8.61216399,13.4608067 C8.83360431,13.8432235 9.06413059,14.2203065 9.30354632,14.5917343 L9.30354632,14.5917343 Z M12.532986,17.2610705 C12.0871058,16.7799097 11.6423951,16.2477772 11.2080152,15.6753937 C11.6296278,15.691962 12.0595246,15.7003435 12.4964384,15.7003435 C12.9453399,15.7003435 13.389076,15.6903051 13.8257949,15.6708131 C13.3969703,16.2536248 12.9639548,16.786537 12.532986,17.2610705 Z M17.0231702,12.2874839 C17.3174999,12.9583996 17.5656334,13.6074842 17.7626979,14.2246994 C17.1241389,14.3704023 16.4348033,14.4877443 15.7084327,14.5748737 C15.9412018,14.2058617 16.1666068,13.8322555 16.3845138,13.4542768 C16.6060296,13.0701323 16.8189678,12.681105 17.0231702,12.2874839 L17.0231702,12.2874839 Z M15.569552,12.984324 C15.2359654,13.5638178 14.8836232,14.1323109 14.5130839,14.6889021 C13.8597111,14.7355855 13.1845071,14.7596581 12.4964384,14.7596581 C11.8111961,14.7596581 11.1445686,14.7383144 10.5025986,14.6966989 C10.1224491,14.1414036 9.76344155,13.5719266 9.42634612,12.9894894 C9.09082631,12.4101423 8.77742853,11.8182626 8.48683023,11.2151298 C8.77668939,10.6118163 9.08914014,10.0196195 9.42351977,9.43979562 L9.42351977,9.43999054 C9.7577945,8.86004313 10.1139757,8.29300109 10.4912932,7.74009053 C11.1462255,7.69058077 11.8177259,7.66465637 12.4965359,7.66465637 C13.1783671,7.66465637 13.8507447,7.69077569 14.5054821,7.74067529 C14.8789831,8.29273502 15.2328862,8.85780326 15.5665308,9.43482515 C15.9020602,10.0133591 16.2186808,10.6026549 16.5158901,11.2017777 C16.221738,11.8070047 15.9061245,12.4015636 15.5696495,12.984324 L15.569552,12.984324 Z M17.5102761,2.47889902 C18.2476596,2.90421514 18.5344848,4.61922147 18.0711593,6.86830945 C18.0407907,7.01482394 18.0077789,7.16077807 17.9721397,7.30610046 C17.0585483,7.09529415 16.0664039,6.9383833 15.0276736,6.84092315 C14.4225435,5.97927792 13.7955823,5.19579574 13.1661846,4.51766799 C13.3311128,4.35866642 13.4999659,4.20378693 13.6725876,4.05317289 C15.2984179,2.63824637 16.8179191,2.07960477 17.5102761,2.47889902 L17.5102761,2.47889902 Z" id="Shape" fill="#FFFFFF"></path>
                <path d="M12.4964384,9.2260655 C13.5825344,9.2260655 14.462892,10.1065205 14.462892,11.192519 C14.462892,12.278615 13.5825344,13.15907 12.4964384,13.15907 C11.4104399,13.15907 10.5299849,12.278615 10.5299849,11.192519 C10.5299849,10.1065205 11.4104399,9.2260655 12.4964384,9.2260655" id="Shape" fill="#53C1DE"></path>
            </g>
        </g>
    </g>
</svg>