<?xml version="1.0" encoding="UTF-8"?>
<svg width="22px" height="22px" viewBox="0 0 22 22" version="1.1" xmlns="http://www.w3.org/2000/svg" xmlns:xlink="http://www.w3.org/1999/xlink">
    <!-- Generator: Sketch 45.1 (43504) - http://www.bohemiancoding.com/sketch -->
    <title>socketio</title>
    <desc>Created with Sketch.</desc>
    <defs></defs>
    <g id="Welcome" stroke="none" stroke-width="1" fill="none" fill-rule="evenodd">
        <g id="Mobile-Portrait" transform="translate(-273.000000, -526.000000)" fill-rule="nonzero">
            <g id="socketio" transform="translate(273.000000, 526.000000)">
                <path d="M8.22329302,0.385644651 C11.0628689,-0.342586047 14.2010716,0.081778605 16.7053469,1.62730418 C19.8592669,3.51336931 21.9182214,7.08117582 21.9706121,10.7537637 C22.0858716,14.4630251 20.1526549,18.1408521 17.0458865,20.157894 C13.5881005,22.4840409 8.80482979,22.5731051 5.27369674,20.3622177 C1.67445582,18.2141991 -0.426411163,13.8814884 0.113213023,9.72166694 C0.548055814,5.32608744 3.94297302,1.44917582 8.22329302,0.385644651 L8.22329302,0.385644651 L8.22329302,0.385644651 Z" id="Shape" fill="#010101"></path>
                <path d="M7.78845023,2.18264558 C13.1532577,0.0346269766 19.7335293,4.00060279 20.2888707,9.75310142 C21.1533172,14.9293023 16.85728,20.1893284 11.6129711,20.3412614 C6.62537674,20.8389731 1.80543256,16.6110437 1.66397767,11.6024931 C1.29200372,7.54745302 3.96392931,3.52384744 7.78845023,2.18264558 L7.78845023,2.18264558 L7.78845023,2.18264558 Z" id="Shape" fill="#FFFFFF"></path>
                <path d="M8.32807442,10.4446586 C10.7328074,8.48000744 13.0851498,6.44724837 15.5422735,4.54022698 C14.2534623,6.52059535 12.9279777,8.47476837 11.6391665,10.4551367 C10.5337228,10.4603758 9.42827908,10.4603758 8.32807442,10.4446586 L8.32807442,10.4446586 L8.32807442,10.4446586 Z" id="Shape" fill="#010101"></path>
                <path d="M10.3608335,11.5396242 C11.4715163,11.5396242 12.57696,11.5396242 13.6824037,11.5553414 C11.2619535,13.5095144 8.92008929,15.5579907 6.45772651,17.4597731 C7.74653767,15.4794047 9.07202234,13.5199926 10.3608335,11.5396242 L10.3608335,11.5396242 L10.3608335,11.5396242 Z" id="Shape" fill="#010101"></path>
            </g>
        </g>
    </g>
</svg>