<?xml version="1.0" encoding="UTF-8"?>
<svg width="23px" height="22px" viewBox="0 0 23 22" version="1.1" xmlns="http://www.w3.org/2000/svg" xmlns:xlink="http://www.w3.org/1999/xlink">
    <!-- Generator: Sketch 45.1 (43504) - http://www.bohemiancoding.com/sketch -->
    <title>typescript</title>
    <desc>Created with Sketch.</desc>
    <defs></defs>
    <g id="Welcome" stroke="none" stroke-width="1" fill="none" fill-rule="evenodd">
        <g id="Mobile-Portrait" transform="translate(-15.000000, -531.000000)" fill-rule="nonzero">
            <g id="typescript" transform="translate(15.824219, 531.000000)">
                <rect id="Rectangle-path" fill="#FFFFFF" x="2.2" y="2.65396825" width="19.1365079" height="18.8222222"></rect>
                <g id="Group" transform="translate(11.000000, 11.000000) scale(-1, 1) rotate(-180.000000) translate(-11.000000, -11.000000) " fill="#007ACC">
                    <path d="M0,11 L0,0 L11,0 L22,0 L22,11 L22,22 L11,22 L0,22 L0,11 Z M17.7292063,11.8765079 C18.2879365,11.7368254 18.7139683,11.4888889 19.1050794,11.0838095 C19.307619,10.8673016 19.6079365,10.4726984 19.632381,10.3784127 C19.6393651,10.3504762 18.6825397,9.70793651 18.1028571,9.34825397 C18.0819048,9.33428571 17.9980952,9.42507937 17.9038095,9.5647619 C17.6209524,9.9768254 17.324127,10.1549206 16.8701587,10.1863492 C16.2031746,10.231746 15.7736508,9.88253968 15.7771429,9.29936508 C15.7771429,9.12825397 15.8015873,9.02698413 15.8714286,8.88730159 C16.0180952,8.58349206 16.2904762,8.40190476 17.1460317,8.03174603 C18.7209524,7.35428571 19.3949206,6.90730159 19.8139683,6.27174603 C20.2819048,5.56285714 20.3866667,4.43142857 20.0688889,3.58984127 C19.7196825,2.67492063 18.8536508,2.05333333 17.6349206,1.84730159 C17.2577778,1.78095238 16.3638095,1.79142857 15.9587302,1.8647619 C15.0752381,2.02190476 14.2371429,2.4584127 13.7203175,3.03111111 C13.5177778,3.25460317 13.1231746,3.83777778 13.147619,3.87968254 C13.1580952,3.89365079 13.2488889,3.94952381 13.3501587,4.00888889 C13.4479365,4.0647619 13.8180952,4.27777778 14.1673016,4.48031746 L14.7993651,4.84698413 L14.9320635,4.65142857 C15.1171429,4.36857143 15.5222222,3.98095238 15.7666667,3.85174603 C16.4685714,3.4815873 17.432381,3.53396825 17.9073016,3.96 C18.1098413,4.14507937 18.1936508,4.33714286 18.1936508,4.62 C18.1936508,4.87492063 18.1622222,4.98666667 18.0295238,5.17873016 C17.8584127,5.4231746 17.5092063,5.62920635 16.5174603,6.05873016 C15.3825397,6.54761905 14.8936508,6.85142857 14.4466667,7.33333333 C14.188254,7.61269841 13.9438095,8.05968254 13.8425397,8.43333333 C13.7587302,8.74412698 13.7377778,9.52285714 13.804127,9.83714286 C14.0380952,10.9336508 14.8657143,11.6984127 16.06,11.9253968 C16.447619,11.9987302 17.3485714,11.9707937 17.7292063,11.8765079 Z M12.5644444,10.9580952 L12.5714286,10.0571429 L11.1396825,10.0571429 L9.70793651,10.0571429 L9.70793651,5.98888889 L9.70793651,1.92063492 L8.6952381,1.92063492 L7.68253968,1.92063492 L7.68253968,5.98888889 L7.68253968,10.0571429 L6.25079365,10.0571429 L4.81904762,10.0571429 L4.81904762,10.9406349 C4.81904762,11.4295238 4.82952381,11.8380952 4.84349206,11.8485714 C4.85396825,11.8625397 6.59650794,11.8695238 8.70920635,11.8660317 L12.5539683,11.8555556 L12.5644444,10.9580952 Z" id="Shape"></path>
                </g>
            </g>
        </g>
    </g>
</svg>