<?xml version="1.0" encoding="UTF-8"?>
<svg width="22px" height="22px" viewBox="0 0 22 22" version="1.1" xmlns="http://www.w3.org/2000/svg" xmlns:xlink="http://www.w3.org/1999/xlink">
    <!-- Generator: Sketch 45.1 (43504) - http://www.bohemiancoding.com/sketch -->
    <title>umbraco</title>
    <desc>Created with Sketch.</desc>
    <defs></defs>
    <g id="Welcome" stroke="none" stroke-width="1" fill="none" fill-rule="evenodd">
        <g id="Mobile-Portrait" transform="translate(-215.000000, -650.000000)" fill="#F37021">
            <g id="umbraco" transform="translate(215.000000, 650.000000)">
                <path d="M0.0486187845,10.9635359 C0.0486187845,4.93480663 4.93480663,0.0364640884 10.9635359,0.0364640884 C16.9922652,0.0364640884 21.878453,4.92265193 21.878453,10.9635359 C21.878453,16.9922652 16.9922652,21.8906077 10.9635359,21.8906077 C4.93480663,21.8906077 0.0486187845,17.0044199 0.0486187845,10.9635359 Z M10.7447514,14.7071823 C9.67513812,14.7071823 8.82430939,14.6342541 8.22872928,14.4762431 C7.56022099,14.3060773 7.09834254,13.9414365 6.85524862,13.3701657 C6.6,12.798895 6.47845304,11.9237569 6.49060773,10.7447514 C6.49060773,10.1127072 6.53922652,9.49281768 6.6121547,8.88508287 C6.68508287,8.28950276 6.75801105,7.79116022 6.83093923,7.40220994 L6.9038674,7.01325967 C6.9038674,7.00110497 6.9038674,6.98895028 6.9038674,6.97679558 C6.9038674,6.86740331 6.81878453,6.77016575 6.72154696,6.75801105 L5.31160221,6.53922652 C5.29944751,6.53922652 5.28729282,6.53922652 5.27513812,6.53922652 C5.16574586,6.53922652 5.08066298,6.6121547 5.05635359,6.70939227 C5.0320442,6.79447514 5.0198895,6.86740331 4.97127072,7.08618785 C4.88618785,7.49944751 4.81325967,7.90055249 4.7281768,8.4839779 C4.64309392,9.06740331 4.59447514,9.71160221 4.57016575,10.4165746 C4.57016575,10.4165746 4.53370166,10.5745856 4.57016575,11.7657459 C4.60662983,12.9569061 4.81325967,13.9171271 5.19005525,14.6220994 C5.56685083,15.3392265 6.19889503,15.8497238 7.11049724,16.1657459 C8.00994475,16.481768 9.26187845,16.6276243 10.8662983,16.6276243 L11.0607735,16.6276243 C12.6651934,16.639779 13.9171271,16.481768 14.8165746,16.1657459 C15.7160221,15.8497238 16.360221,15.3392265 16.7370166,14.6220994 C17.1138122,13.9049724 17.320442,12.9569061 17.3569061,11.7657459 C17.3933702,10.5745856 17.3569061,10.4165746 17.3569061,10.4165746 C17.3325967,9.71160221 17.2839779,9.06740331 17.198895,8.4839779 C17.1138122,7.90055249 17.040884,7.49944751 16.9558011,7.08618785 C16.919337,6.86740331 16.8950276,6.80662983 16.8707182,6.70939227 C16.8464088,6.6121547 16.761326,6.53922652 16.6519337,6.53922652 C16.639779,6.53922652 16.6276243,6.53922652 16.6154696,6.53922652 L15.2055249,6.75801105 C15.0961326,6.77016575 15.0232044,6.86740331 15.0232044,6.97679558 C15.0232044,6.98895028 15.0232044,7.00110497 15.0232044,7.01325967 L15.0961326,7.40220994 C15.1690608,7.79116022 15.241989,8.28950276 15.3149171,8.88508287 C15.3878453,9.48066298 15.4243094,10.1005525 15.4364641,10.7447514 C15.4486188,11.9237569 15.3270718,12.8110497 15.0718232,13.3701657 C14.8165746,13.9414365 14.3546961,14.3060773 13.6983425,14.4762431 C13.0906077,14.6342541 12.2519337,14.7071823 11.1823204,14.7071823 L10.7447514,14.7071823 Z" id="XMLID_31_"></path>
            </g>
        </g>
    </g>
</svg>