<?xml version="1.0" encoding="UTF-8"?>
<svg width="20px" height="22px" viewBox="0 0 20 22" version="1.1" xmlns="http://www.w3.org/2000/svg" xmlns:xlink="http://www.w3.org/1999/xlink">
    <!-- Generator: Sketch 45.1 (43504) - http://www.bohemiancoding.com/sketch -->
    <title>webpack</title>
    <desc>Created with Sketch.</desc>
    <defs></defs>
    <g id="Welcome" stroke="none" stroke-width="1" fill="none" fill-rule="evenodd">
        <g id="Mobile-Portrait" transform="translate(-183.000000, -575.000000)" fill-rule="nonzero">
            <g id="webpack" transform="translate(183.000000, 575.000000)">
                <polygon id="Shape" fill="#FFFFFF" points="9.735 0 19.4571667 5.5 19.4571667 16.5 9.735 22 0.0128333333 16.5 0.0128333333 5.5"></polygon>
                <path d="M17.721,16.1205 L10.0558333,20.4563333 L10.0558333,17.0793333 L14.8316667,14.4521667 L17.721,16.1205 Z M18.2453333,15.6456667 L18.2453333,6.578 L15.4403333,8.19683333 L15.4403333,14.025 L18.2453333,15.6456667 Z M1.71783333,16.1205 L9.383,20.4563333 L9.383,17.0793333 L4.60716667,14.4521667 L1.71783333,16.1205 L1.71783333,16.1205 Z M1.1935,15.6456667 L1.1935,6.578 L3.9985,8.19683333 L3.9985,14.025 L1.1935,15.6456667 Z M1.52166667,5.99133333 L9.383,1.54366667 L9.383,4.80883333 L4.34683333,7.579 L4.30833333,7.601 L1.52166667,5.99133333 L1.52166667,5.99133333 Z M17.9171667,5.99133333 L10.0558333,1.54366667 L10.0558333,4.80883333 L15.092,7.579 L15.1305,7.601 L17.9171667,5.99133333 L17.9171667,5.99133333 Z" id="Shape" fill="#8ED6FB"></path>
                <path d="M9.383,16.3111667 L4.67133333,13.7206667 L4.67133333,8.58733333 L9.383,11.308 L9.383,16.3111667 Z M10.0558333,16.3111667 L14.7675,13.7206667 L14.7675,8.58733333 L10.0558333,11.308 L10.0558333,16.3111667 Z M4.99033333,7.99333333 L9.72033333,5.39183333 L14.4503333,7.99333333 L9.72033333,10.725 L4.99033333,7.99333333 Z" id="Shape" fill="#1C78C0"></path>
            </g>
        </g>
    </g>
</svg>