<?xml version="1.0" encoding="UTF-8"?>
<svg width="22px" height="22px" viewBox="0 0 22 22" version="1.1" xmlns="http://www.w3.org/2000/svg" xmlns:xlink="http://www.w3.org/1999/xlink">
    <!-- Generator: Sketch 45.1 (43504) - http://www.bohemiancoding.com/sketch -->
    <title>wordpress</title>
    <desc>Created with Sketch.</desc>
    <defs></defs>
    <g id="Welcome" stroke="none" stroke-width="1" fill="none" fill-rule="evenodd">
        <g id="Mobile-Portrait" transform="translate(-125.000000, -651.000000)" fill-rule="nonzero" fill="#6BD5FF">
            <g id="wordpress" transform="translate(125.000000, 651.000000)">
                <path d="M21.1600511,10.2754871 C21.1528855,16.4164162 16.4450787,21.1528855 10.590774,21.1385543 C7.68870128,21.1313887 5.18790282,20.0852094 3.12420667,18.0430101 C1.53344089,16.4665755 0.566083319,14.5676884 0.171974679,12.3678457 C-0.157643456,10.497621 0.0214968349,8.65605885 0.687898717,6.88615278 C1.40445988,4.97293447 2.5867858,3.3893343 4.22771086,2.16401471 C6.11226672,0.74522361 8.24045338,0.0286624465 10.6051052,0.0429936698 C13.4928467,0.057324893 15.9936452,1.08917297 18.0501757,3.12420667 C20.1067062,5.18073721 21.1170575,7.68870128 21.1600511,10.2754871 L21.1600511,10.2754871 Z M0.623408212,9.57325714 C0.6162426,9.58758836 0.6162426,9.6090852 0.6162426,9.63058203 C0.580414542,10.0318563 0.566083319,10.4474618 0.580414542,10.848736 C0.594745765,11.199851 0.6162426,11.5509659 0.65923627,11.9020809 C0.730892386,12.4681642 0.852707784,13.0199163 1.01751685,13.5573372 C1.34713499,14.6250133 1.8487278,15.5995365 2.49363285,16.495238 C2.65844192,16.7245375 2.83041659,16.9466715 3.02388811,17.1473086 C3.36067185,17.5199204 3.71895244,17.8853666 4.09872985,18.2149848 C4.76513173,18.7882337 5.49602412,19.2683297 6.29857262,19.6409415 C7.57405149,20.2428529 8.91402087,20.5653054 10.3113151,20.6082991 C10.6122708,20.6154647 10.9060609,20.6082991 11.2070166,20.5939678 C11.6011252,20.572471 12.0023995,20.5223117 12.3893425,20.4578212 C13.2563815,20.3001778 14.0947581,20.0350501 14.890141,19.6552727 C15.8431673,19.1966736 16.7102063,18.6090934 17.4697612,17.8925322 C17.8710354,17.5127548 18.2508128,17.0971494 18.580431,16.660047 C18.838393,16.3232633 19.0820238,15.9649827 19.2969921,15.5923709 C19.74126,14.8256505 20.0708782,14.023102 20.3001778,13.1775598 C20.4004963,12.8121136 20.4721524,12.4251706 20.5366429,12.0525588 C20.5939678,11.6656157 20.6226303,11.2786727 20.6369615,10.8917297 C20.6441271,10.6051052 20.6369615,10.3184807 20.6226303,10.0318563 C20.6011334,9.62341642 20.5581398,9.21497656 20.4864837,8.82086792 C20.2930121,7.78901984 19.9562284,6.81449666 19.4618012,5.89013276 C19.3471514,5.6679988 19.2181704,5.44586484 19.0820238,5.24522771 C18.9817052,5.06608742 18.8527242,4.90844397 18.7380744,4.7436349 C18.1934879,3.98408007 17.5485829,3.31767819 16.8105249,2.73726364 C16.4379131,2.44347357 16.0366388,2.17118032 15.6210334,1.92754953 C15.0907781,1.61942823 14.5318604,1.36863182 13.9586115,1.15366347 C13.2563815,0.902867066 12.5326547,0.738057998 11.7945967,0.644905047 C11.3145008,0.587580154 10.8415704,0.566083319 10.3543088,0.580414542 C9.88854405,0.594745765 9.43711052,0.630573824 8.97851137,0.70222994 C8.0684787,0.852707784 7.19427408,1.11783541 6.35589752,1.51910967 C5.86147031,1.75557485 5.38853995,2.02786809 4.93710641,2.33598939 C4.59315706,2.57245458 4.26353892,2.83041659 3.9410864,3.10987545 C3.84076783,3.19586279 3.74761488,3.29618135 3.64729632,3.3893343 C3.18869718,3.84076783 2.7730917,4.3136982 2.40764551,4.83678785 C2.06369615,5.33121505 1.75557485,5.8543047 1.50477844,6.39889119 C1.11783541,7.23010214 0.852707784,8.10430675 0.70222994,9.01433943 C0.65923627,9.19347972 0.630573824,9.37978563 0.623408212,9.57325714 L0.623408212,9.57325714 Z" id="Shape"></path>
                <path d="M13.3638657,2.00637126 C13.6146621,2.0923586 13.8654585,2.18551155 14.1162549,2.28583011 C14.9474659,2.63694508 15.7070207,3.10270984 16.3949194,3.68312438 C16.4737411,3.74761488 16.5597285,3.81210539 16.6313846,3.89092712 C16.6457158,3.90525834 16.660047,3.91242395 16.6672127,3.93392079 C16.2157791,3.91242395 15.8360017,4.04857057 15.5278804,4.37102309 C15.1695998,4.73646929 15.019122,5.18790282 15.0621156,5.70382686 C15.0979437,6.10510111 15.2555872,6.47771291 15.4490587,6.8359935 C15.5995365,7.10828674 15.7643456,7.35908315 15.921989,7.62421078 C16.2229447,8.12580359 16.4665755,8.65605885 16.5883909,9.22930778 C16.6672127,9.6090852 16.6958751,9.98886261 16.6743783,10.3829713 C16.6743783,10.4044681 16.6743783,10.4259649 16.6743783,10.4402961 C16.6385502,10.9203921 16.5382316,11.3861569 16.402085,11.8519216 C16.2874352,12.2531959 16.1369574,12.6544701 16.0008108,13.0557444 C15.9076578,13.3137064 15.8360017,13.5859997 15.75718,13.8511273 C15.6711926,14.1449174 15.5780397,14.4387074 15.4920523,14.7253319 C15.3702369,15.148103 15.2340903,15.5780397 15.1122749,15.9936452 C15.1051093,16.0008108 15.1194405,16.0223076 15.0979437,16.0223076 C15.0764469,16.0223076 15.0836125,16.0008108 15.0764469,15.9936452 C14.9044722,15.4848867 14.7396631,14.9761283 14.5676884,14.4745355 C14.2524015,13.5358404 13.9371146,12.5899796 13.6218277,11.6584501 C13.5645028,11.4721442 13.4928467,11.2930039 13.4283562,11.0995324 C13.2277191,10.461793 12.9984195,9.83121916 12.7977824,9.18631411 C12.5756484,8.52707784 12.3463488,7.86067596 12.1313805,7.19427408 C12.0597244,6.97214012 11.9809026,6.75717177 11.9092465,6.54220342 C11.9020809,6.5278722 11.9020809,6.50637536 11.8949153,6.49204414 C11.8805841,6.45621608 11.844756,6.4060568 11.8662529,6.38455996 C11.8877497,6.36306313 11.937909,6.37739435 11.9809026,6.37022874 C12.2818583,6.34873191 12.582814,6.32723507 12.8837697,6.29140701 C13.0987381,6.26274457 13.2420503,6.07643866 13.2062222,5.86863593 C13.1990566,5.82564226 13.1775598,5.78264859 13.1632286,5.73965492 C13.0987381,5.62500513 12.9912539,5.56051463 12.8694385,5.56051463 C12.6329733,5.56051463 12.3965081,5.58917707 12.1600429,5.6035083 C11.8877497,5.61783952 11.6226221,5.63933635 11.3503288,5.64650197 C11.0565387,5.66083319 10.7699143,5.6679988 10.4761242,5.6679988 C10.0318563,5.67516441 9.59475397,5.64650197 9.15048605,5.62500513 C8.9928426,5.61783952 8.83519914,5.61067391 8.67755569,5.6035083 C8.45542172,5.58917707 8.22612215,5.56768024 8.0111538,5.56051463 C7.84634474,5.55334901 7.72452934,5.64650197 7.67437006,5.80414542 C7.60987955,5.99045132 7.68153567,6.18392284 7.83917912,6.26274457 C7.86784157,6.2842414 7.89650402,6.29140701 7.93233208,6.29857262 C8.08280992,6.31290385 8.22612215,6.33440068 8.3766,6.34873191 C8.55574029,6.36306313 8.73488058,6.38455996 8.91402087,6.38455996 C8.94268332,6.38455996 8.94268332,6.41322241 8.94984893,6.43471924 C9.40844807,7.68153567 9.86704722,8.94268332 10.3256464,10.1966654 C10.3399776,10.2253278 10.332812,10.2539902 10.3256464,10.2826527 C10.2611559,10.4904554 10.1894997,10.6982582 10.1178436,10.9060609 C9.91004089,11.5151379 9.70940376,12.1313805 9.50160102,12.7476231 C9.15765166,13.7723056 8.82086792,14.7898224 8.47691856,15.8073393 C8.4410905,15.9076578 8.40526244,16.0223076 8.36943439,16.144123 C8.36226877,16.1154606 8.35510316,16.1011293 8.34793755,16.0867981 C8.02548503,15.1266062 7.7030325,14.1592486 7.38057998,13.1990566 C7.10828674,12.3893425 6.8359935,11.5796284 6.56370025,10.7770799 C6.19825406,9.68790693 5.83280787,8.59873396 5.46736167,7.50956099 C5.35271189,7.15128041 5.22373088,6.79299983 5.10908109,6.43471924 C5.09474987,6.38455996 5.10908109,6.37739435 5.15207476,6.37739435 C5.48885851,6.35589752 5.82564226,6.34156629 6.16959161,6.29140701 C6.42755363,6.25557895 6.54936903,5.94745765 6.41322241,5.72532369 C6.34873191,5.61783952 6.24124773,5.5461834 6.11226672,5.55334901 C5.84713909,5.56768024 5.58917707,5.58201146 5.32404944,5.59634268 C5.0517562,5.61067391 4.77229735,5.62500513 4.5000041,5.63933635 C4.14888913,5.65366758 3.78344294,5.6679988 3.43232797,5.66083319 C3.33200941,5.66083319 3.23169085,5.65366758 3.13137228,5.65366758 C3.10270984,5.65366758 3.09554422,5.64650197 3.09554422,5.61783952 C3.11704106,5.61783952 3.12420667,5.59634268 3.13137228,5.58201146 C3.47532164,5.06608742 3.87659589,4.59315706 4.32086381,4.15605475 C4.67197878,3.81210539 5.0517562,3.50398409 5.44586484,3.22452523 C6.26991018,2.6512763 7.16561163,2.21417399 8.14013481,1.94904636 C8.85669598,1.74124363 9.58042275,1.63375945 10.3256464,1.61226262 C10.7555831,1.59793139 11.1783541,1.61942823 11.6011252,1.6624219 C12.0023995,1.70541557 12.4036737,1.7842373 12.7906168,1.87739025 C12.9840883,1.89888708 13.1775598,1.95621198 13.3638657,2.00637126 L13.3638657,2.00637126 Z" id="Shape"></path>
                <path d="M2.343155,6.94347767 L6.62819076,18.6807495 C6.62819076,18.6807495 -0.759554833,15.2699184 2.343155,6.94347767 L2.343155,6.94347767 Z" id="Shape"></path>
                <path d="M10.7627487,11.4004881 L8.04698186,19.2181704 C8.04698186,19.2181704 10.6910926,20.1926936 13.5573372,19.096355 L10.7627487,11.4004881 Z" id="Shape"></path>
                <path d="M18.5159405,6.30573824 C18.5159405,6.30573824 18.74524,8.16163165 18.1791567,9.57325714 C18.1791567,9.57325714 16.4594099,14.3957138 15.1552686,18.3726282 C15.1552686,18.3797938 22.3137146,14.3742169 18.5159405,6.30573824 L18.5159405,6.30573824 Z" id="Shape"></path>
            </g>
        </g>
    </g>
</svg>