<?xml version="1.0" encoding="UTF-8"?>
<svg width="22px" height="22px" viewBox="0 0 22 22" version="1.1" xmlns="http://www.w3.org/2000/svg" xmlns:xlink="http://www.w3.org/1999/xlink">
    <!-- Generator: Sketch 45.1 (43504) - http://www.bohemiancoding.com/sketch -->
    <title>wpengine</title>
    <desc>Created with Sketch.</desc>
    <defs></defs>
    <g id="Welcome" stroke="none" stroke-width="1" fill="none" fill-rule="evenodd">
        <g id="Mobile-Portrait" transform="translate(-273.000000, -620.000000)" fill-rule="nonzero" fill="#40BAC8">
            <g id="wpengine" transform="translate(273.000000, 620.000000)">
                <path d="M7.4628125,22 L14.5371875,22 L14.5371875,16.6509922 L12.8117344,14.9254531 L9.145125,14.9254531 L7.46272656,16.6509922 L7.46272656,22 L7.4628125,22 Z M16.6077656,7.4628125 L14.9253672,9.145125 L14.9253672,12.854875 L16.6077656,14.5372734 L22,14.5372734 L22,7.46272656 L16.6078516,7.46272656 L16.6077656,7.4628125 Z M14.5371875,0 L7.46272656,0 L7.46272656,5.39214844 L9.145125,7.07454688 L12.8117344,7.07454688 L14.5372734,5.39214844 L14.5372734,0 L14.5371875,0 Z M22,22 L22,16.6509922 L20.3176875,14.9254531 L14.9254531,14.9254531 L14.9254531,22 L22,22 Z M1.6823125,0 L0,1.6823125 L0,7.07454688 L7.07454688,7.07454688 L7.07454688,0 L1.6823125,0 Z M14.9254531,0 L14.9254531,5.39214844 L16.6078516,7.07454688 L22,7.07454688 L22,0 L14.9254531,0 Z M11,12.0352891 C10.4392578,12.0352891 10.0078516,11.5607422 10.0078516,11.0431406 C10.0078516,10.4823125 10.4823125,10.0509922 11,10.0509922 C11.5607422,10.0509922 11.9921484,10.5254531 11.9921484,11.0431406 C11.9921484,11.5607422 11.5607422,12.0352891 11,12.0352891 L11,12.0352891 Z M7.07454688,7.4628125 L0,7.4628125 L0,14.5373594 L5.34900781,14.5373594 L7.07454688,12.8549609 L7.07454688,7.4628125 Z M7.07454688,16.6510781 L5.34900781,14.9255391 L0,14.9255391 L0,22 L5.34900781,22 L7.07454688,20.3176875 L7.07454688,16.6509922 L7.07454688,16.6510781 Z" id="Shape"></path>
            </g>
        </g>
    </g>
</svg>