<svg data-v-47152ace="" width="20" height="22" viewBox="0 0 20 22" xmlns="http://www.w3.org/2000/svg"><title>adobe</title><g fill-rule="nonzero" fill="none"><path d="M16.932.5h1.2l-.037.213h-.225c-.113 0-.188-.025-.188-.025v.388c0 .137-.037.275-.037.413 0 .137-.038.275-.038.35h-.3v-.35c0-.138.038-.276.038-.413 0-.15.037-.325.037-.388h-.3c-.075 0-.15.025-.15.025V.5zm1.35 0h.413c0 .075.038.15.038.188 0 .063.075.175.112.313 0 .037.038.137.038.212.037.138.113.275.113.275 0-.075.075-.175.112-.312.037-.1.113-.25.15-.35.038-.113.113-.25.113-.326h.45v.426c0 .15-.037.35-.037.487v.426h-.3v-.625c0-.113.037-.213.037-.289V.788l-.413 1.051h-.3c0-.075-.075-.213-.075-.313-.038-.175-.113-.313-.113-.35 0-.075-.075-.213-.112-.35v.35c0 .1-.038.238-.038.35v.313h-.3c0-.138.038-.313.038-.463 0-.125.037-.3.037-.45 0-.138.038-.275.038-.426zM3.848 21.804h-.8l-.314-1.126H1.257l-.312 1.126H.169l1.363-4.979h.876l1.439 4.979zm-1.339-1.939l-.525-1.876-.488 1.876h1.013zm4.216 1.939h-.676v-.513c-.112.225-.262.376-.4.438-.137.075-.288.163-.438.163-.275 0-.55-.188-.75-.5-.226-.288-.326-.788-.326-1.376 0-.6.1-1.127.288-1.44.2-.3.488-.487.826-.487.263 0 .538.188.775.525v-1.789h.7v4.979zm-1.902-1.876c0 .375.05.713.113.863.113.225.275.375.463.375.175 0 .313-.112.425-.25.113-.188.2-.5.2-.876 0-.4-.062-.738-.175-.926-.1-.187-.275-.312-.45-.312-.15 0-.288.125-.413.275-.113.188-.163.475-.163.85zm2.477 0c0-.288.038-.6.15-.888.126-.3.288-.526.488-.676.213-.162.476-.275.726-.275.388 0 .75.188.988.525.263.375.4.876.4 1.401 0 .526-.137 1.001-.4 1.339-.275.35-.6.538-.988.538-.238 0-.475-.088-.7-.225-.226-.15-.388-.376-.513-.65-.113-.289-.15-.664-.15-1.04v-.05zm.7.087c0 .376.038.663.15.851.126.188.314.3.489.3.162 0 .35-.112.463-.3.125-.188.2-.475.2-.85 0-.376-.075-.689-.2-.876-.113-.213-.3-.338-.463-.338-.175 0-.35.125-.45.312-.113.213-.188.526-.188.901zm2.603 1.789v-4.979h.7v1.79c.2-.339.488-.526.763-.526.325 0 .6.188.813.488.213.312.338.788.338 1.4 0 .601-.125 1.127-.338 1.414-.225.313-.5.5-.775.5-.15 0-.313-.087-.45-.162-.15-.062-.288-.25-.364-.438v.513h-.687zm.7-1.876c0 .375.063.713.125.863.113.225.3.375.5.375.176 0 .313-.112.414-.25.112-.15.175-.5.175-.876 0-.4-.063-.738-.175-.926-.1-.187-.276-.312-.45-.312-.163 0-.301.125-.414.275-.112.188-.175.475-.175.85zm4.04.75l.701.113c-.075.375-.25.688-.425.826-.2.15-.475.275-.763.275-.425 0-.8-.225-1.013-.6-.175-.313-.25-.751-.25-1.251 0-.589.1-1.089.324-1.427.226-.337.551-.525.901-.525.388 0 .7.188.914.525.237.376.375.939.375 1.652h-1.814c0 .312.038.525.163.687.112.15.25.213.4.213.125 0 .238-.025.288-.112.062-.075.137-.225.2-.376zm.064-1c0-.263-.1-.5-.176-.639-.1-.15-.25-.237-.387-.237-.163 0-.313.125-.388.275-.125.15-.163.375-.163.6h1.114z" fill="#000"></path><path d="M.044 0h6.004L.044 14.624V0zm10.095 0h6.08v14.436L10.138 0zM8.162 5.592l3.316 8.769H9.426l-1.414-2.777H5.761l2.401-5.992z" fill="#CC2229"></path></g></svg>