<svg data-v-47152ace="" width="23" height="24" viewBox="0 0 23 24" xmlns="http://www.w3.org/2000/svg"><title>angular-icon 2</title><g fill-rule="nonzero" fill="none"><path fill="#B3B3B3" d="M11.07.03L.073 3.9 1.81 18.304l9.27 5.095 9.318-5.164 1.736-14.405z"></path><path fill="#A6120D" d="M21.039 4.663l-9.995-3.408v20.928l8.376-4.636 1.619-12.884z"></path><path fill="#DD1B16" d="M1.308 4.725l1.489 12.884 8.246 4.574V1.255l-9.735 3.47z"></path><path d="M13.795 12.396l-2.751 1.286h-2.9l-1.363 3.41-2.536.047 6.799-15.124 2.751 10.38zm-.266-.648l-2.467-4.884-2.024 4.8h2.006l2.485.084z" fill="#F2F2F2"></path><path fill="#B3B3B3" d="M11.044 2.015l.018 4.85 2.296 4.803h-2.31l-.004 2.011 3.193.003 1.492 3.457 2.426.045-7.111-15.17z"></path></g></svg>