<svg data-v-47152ace="" width="22" height="15" viewBox="0 0 22 15" xmlns="http://www.w3.org/2000/svg"><title>aws</title><g fill="none" fill-rule="evenodd"><path d="M0 0h21.972v14.918H0z"></path><g fill-rule="nonzero"><path fill="#F7981F" d="M6.023 7.297l-.605 2.685H6.62l-.584-2.685z"></path><path d="M.119 10.22v.39c0 1.943 1.958 3.909 4.373 3.909h12.881c2.415 0 4.374-1.966 4.374-3.909v-.39c0-1.807-1.696-4.075-3.876-4.274-.049-1.615-1.282-2.908-2.798-2.908-.59 0-1.136.196-1.587.528C12.621 1.501 10.691.06 8.442.06c-3.054 0-5.529 2.653-5.529 5.928 0 .058.007.114.008.172C1.283 6.668.12 8.724.12 10.219zm6.95 1.792l-.313-1.335H5.27l-.328 1.335h-.847L5.54 6.565h1.039l1.337 5.447H7.07zm4.933 0h-.94l-.654-4.104h-.014l-.648 4.104h-.939l-.982-5.447h.818l.669 4.234h.014l.669-4.234h.854l.683 4.257h.015l.661-4.257h.804l-1.01 5.447zm2.974.106c-1.26 0-1.544-.9-1.544-1.663v-.13h.81v.138c0 .664.271 1 .833 1 .513 0 .768-.39.768-.795 0-.572-.27-.824-.725-.968l-.556-.207c-.74-.305-1.06-.716-1.06-1.495 0-.992.626-1.541 1.58-1.541 1.302 0 1.437.87 1.437 1.433v.123h-.811V7.9c0-.497-.206-.787-.712-.787-.348 0-.683.207-.683.787 0 .465.22.7.762.922l.548.214c.718.274 1.032.695 1.032 1.442 0 1.161-.655 1.641-1.68 1.641z" fill="#F7981F"></path><path d="M5.539 6.565l-1.445 5.447h.847l.328-1.335h1.487l.313 1.335h.847L6.578 6.565h-1.04zm-.121 3.417l.605-2.685h.013l.584 2.685H5.418zM11.547 10.822h-.015l-.683-4.257h-.854l-.669 4.233h-.014l-.669-4.233h-.818l.982 5.447h.94l.646-4.104h.015l.655 4.104h.939l1.01-5.447h-.804zM15.623 9.037l-.547-.214c-.541-.221-.762-.457-.762-.923 0-.58.334-.786.683-.786.505 0 .712.29.712.786v.115h.81v-.123c0-.564-.135-1.433-1.437-1.433-.953 0-1.58.549-1.58 1.541 0 .778.32 1.19 1.06 1.495l.556.206c.456.145.726.397.726.969 0 .404-.256.794-.768.794-.562 0-.833-.335-.833-1v-.136h-.81v.13c0 .763.284 1.662 1.543 1.662 1.025 0 1.68-.48 1.68-1.64 0-.749-.314-1.17-1.033-1.443z" fill="#FFF"></path></g></g></svg>