<svg data-v-47152ace="" width="22" height="19" viewBox="0 0 22 19" xmlns="http://www.w3.org/2000/svg"><title>browserify</title><g fill-rule="nonzero" fill="none"><path d="M9.503 0c-.38.008-.856.245-1.197.163a1.662 1.662 0 0 0-.465-.038h-.008a.985.985 0 0 0-.446.118L7.372.25a.131.131 0 0 1-.016.02c-.158.157-.508.172-.67.334-.133.133-.256.387-.403.615l-.003.007c-.522.608-.938 1.356-1.085 1.968-.12.502-.12 1.18-.318 1.68-.055.14-.286.914-.107 1.064.122.103.64.181.793 0 .082-.097.834-.34 1.07-.62.276-.329.42-.897.609-1.375.03-.076.07-.156.114-.236.108.208.193.379.238.483.094.218.198.52.284.842-.186.285-.109.675.026.853-.544.17-.285.755-.306.776-.036.035-.15.083-.195.13-.057.056-.066.174-.066.26 0 .083.01.156.026.221-.495 1.245-.962 2.804-1.553 3.645-.17.077-.344.144-.548.185-.397.099-1.4.296-2.245.58-.04.051-.082.1-.128.145-.084.084-.251.084-.335.168-.065.065-.268-.008-.333.057-.194.193-.48.293-.783.445-.034.017-.142-.025-.168 0-.138.138-.385.218-.502.336-.23.23-.423.479-.67.727-.247.246.256.924.335 1.003.232.233.66.27.893.503.098.098.426-.033.544.045.03.004.057.01.076.019.343.171 1.015.298 1.421.433.56.187 1.004.685 1.581.83.44.11.938.168 1.382.316.185.062.41.02.59.08.338.112.642.251.949.353.106.036.247-.027.356 0 .245.062.51.08.75.16.426.141.995-.143 1.421 0 .281.093 2.03-.057 2.172-.198.103-.103.496.028.632-.04.117-.058.474 0 .552-.079.203-.202.618-.211.907-.356.122-.06.31.024.436-.04.072-.036.22.009.38.078.304-.006.538-.038.843-.038.362 0 .861-.172 1.39-.432.586-.131 1.302-.284 1.335-.317.255-.255.931-.182 1.184-.434.179-.179.408-.251.592-.435.164-.164.39-.352.626-.55.04-.114.146-.222.243-.32.04-.04.329-.881.277-.985-.096-.19-.253-.348-.434-.495a.347.347 0 0 1-.12-.058c-.193-.194-.656-.224-.828-.396-.277-.277-.694-.526-1.19-.692a1.034 1.034 0 0 1-.272-.177c-.088-.088-.6-.201-.75-.276-.08-.04-.255.022-.316-.038-.145-.146-.757-.25-1.198-.39a.355.355 0 0 1-.187-.064c-.013-.014-.356-.064-.468-.177a5.338 5.338 0 0 1-.059-.528c0-.021-.05-.106-.02-.137a.241.241 0 0 0 .013-.015c-.204-1.26-.36-2.65-.508-2.774-.218-.184-.34-1.2-.58-1.403-.251-.212-.409-.443-.603-.624v-.001c-.073-.402-.212-.853-.255-.89-.072-.06.036-.332-.035-.392-.222-.187-.51-1.285-.719-1.46-.272-.23-.406-.585-.665-.803C12.132.83 11.071.028 9.897.09a1.504 1.504 0 0 1-.147-.05A.639.639 0 0 0 9.503 0z" fill="#3C6991"></path><path d="M9.25 6.97a.57.57 0 0 0-.27.007c-.127.042-.33-.057-.461-.034-.497.09-.887.225-.954.392.738-.212 1.557.26 1.892.71.14.186-.075.468 0 .697.018.052.032.384-.028.428-.125.094-.113.42-.216.568-.243.35-.455.606-.661.903-.213.307-.782.368-1.1.474-.07.023-.158-.025-.232-.001a.129.129 0 0 1-.058.004c.007.008.015.016.02.024.028.035.158.001.196.028.247.171 1.224.106 1.495.016.168-.056.325-.139.493-.195.216-.072.429-.408.584-.58.534-.596.778-1.626.514-2.421-.133-.4-.48-.64-.776-.845a1.22 1.22 0 0 0-.438-.174zm1.19-.767c-.032-.001-.036.31-.038.458-.015 0-.015.02-.01.04-.161.072-.51.215-.484.243.002 0 .002.002.002.002-.012 0-.025.005-.026.023-.001.023.046 0 .07.002.036 0 .361.12.49.175.016.123.063.196.063.336 0 .087.018.208.023.208l.008-.004c.004.015.008.024.014.018.026-.024.072-.087.118-.159.002-.003.005-.005.006-.008.083-.102.177-.232.257-.35.156.022.299.04.334.04.017 0 .61.102.438-.069-.01-.01-.022-.02-.034-.028.004-.003.006-.006.006-.01.001-.034-.33-.186-.383-.243-.026-.028-.064-.046-.09-.073-.007-.008.006-.028.027-.057v-.002c.046-.051.095-.104.13-.14.017-.016.113-.195.022-.183-.061.008-.261.02-.523.097l-.071-.092c-.057-.023-.218-.22-.349-.224zM8.962 6.156c-.02.01-.048.047-.057.028-.01-.02.075-.037.057-.028-.057.028-.274.224-.194.286.066.05.31-.045.414-.009.016.006.188.27.215.193.044-.126-.01-.34-.009-.344.02-.058.18-.034.219-.053.032-.016.097-.043.106-.069.002-.007.004-.027.007-.02.003.005-.042-.04-.097-.058-.082-.03-.166-.011-.225-.032-.027-.01.006-.169-.004-.19a.552.552 0 0 1-.047-.133c.016.033-.07.032-.092.061-.028.037-.102.16-.15.16-.057-.001-.286-.056-.302-.012-.001.003.143.146.159.22zm2.215 2.224c-.015-.014-.06-.027-.046-.043.014-.015.061.057.046.043-.046-.043-.308-.174-.336-.077-.023.08.155.274.159.383 0 .017-.183.274-.101.27.133-.004.313-.133.317-.133.061-.002.097.155.129.184.026.024.075.075.102.074.008 0 .028-.006.023 0-.004.003.02-.054.018-.113-.003-.087-.05-.158-.053-.22-.001-.029.16-.056.175-.073a.554.554 0 0 1 .108-.093c-.025.027-.056-.053-.091-.063-.045-.013-.187-.037-.203-.082-.02-.053-.053-.287-.1-.285-.002 0-.083.186-.147.228z" fill="#E6B35A"></path><path d="M16.216 10.446c-.045.154-.325.646-.442.764-.152.151-.282.31-.415.442-.094.094-.363.335-.442.415-.173.172-.274.108-.47.304-.097.097-.292.099-.387.193-.085.085-.771.137-.94.221-.04.02-.162-.03-.193 0-.121.121-1.077.165-1.106.194-.146.146-.536-.023-.746.083-.186.093-.556.027-.774.027-.12 0-.44-.002-.77-.01a1.31 1.31 0 0 0-.142-.017l-.014.013-.181-.007c-.037-.014-.077-.023-.109-.006l-.005.001c-.257-.012-.467-.03-.52-.057-.216-.108-.449-.138-.719-.138-.422 0-1.358-.5-1.686-.663-.05-.025-.189-.171-.264-.211 0-.029-.001-.055-.012-.066-.077-.077-.11-.249-.166-.359-.023-.046 0-.214 0-.193l.056-.221c-.048 0-.295.322-.387.414l.003.01a.563.563 0 0 0-.088.339c0 .548.302.577.586.86.07.07.218.024.272.078a.804.804 0 0 0 .234.148c-.12.071-.353.089-.429.165-.074.074-.419.288-.547.352-.024.012-.141.025-.156.04-.73.73-1.554 1.201-2.228 1.876-.057.056-.078.798-.078.938 0 .244-.083.502.078.663.068.068.292.02.352.08.013.012.177.134.195.115.072-.071-.04-.444-.04-.546 0-.533.058-1.073.393-1.407.645-.646 1.565-.94 2.149-1.524.171-.172.486-.263.715-.45a.173.173 0 0 0 .041.15c.027.028.122-.029.156-.011.23.122.929.383 1.135.131.037.071.067.143.103.18.138.137.03.799-.04.938-.262.525-.4 2.042-.625 2.266-.038.039.047.407.078.47.081.163-.06.526 0 .586.059.058.02.214.08.273.053.053.297-.014.35.04.021.02.3.21.353.157.044-.045-.121-.553-.158-.626-.031-.063.085-1.22.118-1.252.045-.046-.046-.227 0-.273.089-.089.195-1.929.195-2.189 0-.043.112-.318.04-.39 0 0-.065-.148-.152-.292.129.01.237.025.27.057.057.057 1.213 0 1.405 0 .764 0 1.965-.06 2.424-.157.183-.04.616-.073.86-.195.142-.071.64-.12.727-.142.186-.048.785-.192.952-.36.124-.123.549-.553.705-.632.176-.088.265-.4.368-.545.013-.108.302-.388.245-.501-.064-.262-.104-.533-.207-.543z" fill="#E6B35A"></path></g></svg>