<svg data-v-47152ace="" width="22" height="22" viewBox="0 0 22 22" xmlns="http://www.w3.org/2000/svg"><title>icon-codeigniter</title><g fill-rule="nonzero" fill="none"><circle fill="#FF3B00" cx="10.965" cy="10.965" r="10.965"></circle><path d="M13.974 8.848c.04 1.05-.99 1.687-1.837.672-.795-.954.166-2.251.27-3.322.13-1.343-.8-2.494-1.765-3.274.532.93-.17 2.16-.73 2.847C9.37 6.438 8.71 6.995 8.11 7.6c-.644.65-1.264 1.335-1.794 2.099-1.06 1.528-1.708 3.45-1.23 5.356.348 1.396 1.261 2.42 2.403 3.037.759.499.415-.162.281-.328-.383-.473-.643-1.062-.644-1.659-.002-1.152.674-2.13 1.513-2.772-.1.413-.156.79.094 1.159.233.342.64.509 1.025.418.899-.212.94-1.28.407-1.903-.527-.616-1.036-1.312-.836-2.206.1-.448.355-.867.677-1.167-.247.704.457 1.399.92 1.744.806.6 1.688 1.053 2.429 1.756.777.74 1.352 1.739 1.237 2.898-.082.817-.503 1.473-1.072 1.953-.15.106-.076.211.193.197 1.742-.806 3.253-2.423 3.29-4.562.04-2.16-1.33-3.821-3.028-4.772z" fill="#FFF"></path></g></svg>