<svg data-v-47152ace="" width="20" height="11" viewBox="0 0 20 11" xmlns="http://www.w3.org/2000/svg"><title>express</title><path d="M8.708 2.088A4.344 4.344 0 0 0 7.306.696C6.724.331 5.991.149 5.108.149a4.51 4.51 0 0 0-1.872.384 4.396 4.396 0 0 0-1.478 1.075 4.956 4.956 0 0 0-.97 1.632 5.976 5.976 0 0 0-.344 2.073A7.93 7.93 0 0 0 .78 7.405c.198.64.496 1.19.892 1.651.397.461.887.82 1.469 1.076.582.256 1.27.384 2.063.384 1.127 0 2.06-.282 2.803-.845.742-.563 1.222-1.252 1.44-2.366H7.835c-.141.653-.432.99-.874 1.31-.441.32-1.008.48-1.699.48-.538 0-1.005-.09-1.401-.27a2.744 2.744 0 0 1-.98-.72 2.8 2.8 0 0 1-.556-1.036A4.593 4.593 0 0 1 2.17 5.73h7.43c.025-.601-.03-1.135-.164-1.8a5.504 5.504 0 0 0-.73-1.844zM2.17 4.39c.025-.384.108-.745.249-1.085.14-.339.333-.636.576-.893.243-.256.534-.457.873-.605.34-.147.72-.22 1.143-.22a2.794 2.794 0 0 1 2.006.816c.25.25.448.547.595.892.147.346.233.71.259 1.095H2.17zm13.823.538L19.558.163h-2.042l-2.584 3.625L12.45.163h-2.182L13.87 5.07l-3.885 5.447h2.063l2.883-4.286 2.884 4.286h2.183l-4.005-5.587z" fill-rule="nonzero" fill="#888"></path></svg>