<svg data-v-47152ace="" width="22" height="4" viewBox="0 0 22 4" xmlns="http://www.w3.org/2000/svg"><title>forge</title><path d="M7.964.036c.414 0 .604.074.72.22.17.224.264.668-.01 1.756-.276 1.09-.582 1.522-.868 1.756-.19.148-.422.22-.834.22H5.65c-.412 0-.614-.072-.72-.22-.168-.222-.264-.666.02-1.756C5.226.924 5.544.49 5.83.258c.19-.148.422-.222.834-.222h1.3zM6.04 3.028c.02.032.074.04.244.04h.508c.168 0 .232-.008.274-.04.054-.044.148-.148.36-1.016.22-.866.18-.972.148-1.014C7.554.966 7.5.954 7.33.954h-.496c-.17 0-.232.012-.276.044-.052.04-.148.148-.36 1.014-.232.878-.19.972-.158 1.016zm5.128-.318c-.04-.052-.084-.074-.338-.074h-.496a.124.124 0 0 0-.118.096l-.284 1.162a.124.124 0 0 1-.116.096H8.79c-.054 0-.084-.042-.074-.096L9.656.13a.124.124 0 0 1 .116-.094h2.412c.39 0 .602.052.72.2.126.18.168.37.03.92-.18.74-.454.952-.93 1.046v.012c.37.094.57.22.444.792-.065.29-.118.583-.16.878-.01.052-.062.106-.116.106h-1.046c-.042 0-.084-.032-.074-.086.032-.242.074-.486.138-.792.042-.286.02-.34-.02-.4l-.002-.002zm-.074-.93c.222 0 .286-.01.328-.042.074-.054.128-.148.18-.38.052-.234.042-.32 0-.372-.032-.032-.084-.04-.306-.04h-.55a.124.124 0 0 0-.116.094l-.16.656c-.01.052.02.094.074.094h.55v-.01zm5.17-1.776c.424 0 .646.052.772.2.148.18.2.454.086 1.068a.124.124 0 0 1-.118.096h-.982c-.054 0-.086-.042-.074-.086.04-.242-.012-.274-.042-.316-.022-.032-.064-.042-.244-.042h-.508c-.18 0-.232.01-.274.04-.064.054-.18.234-.37 1.038s-.16.994-.128 1.046c.02.032.074.042.254.042h.54c.16 0 .22-.01.264-.04.052-.044.16-.15.222-.436l.01-.03h-.76c-.054 0-.086-.044-.074-.096l.148-.634a.124.124 0 0 1 .116-.096h1.828c.054 0 .086.042.074.096l-.094.39c-.222.964-.486 1.3-.76 1.524-.202.168-.488.232-.858.232h-1.32c-.414 0-.614-.074-.732-.232-.18-.234-.274-.666-.01-1.766s.572-1.544.856-1.766c.19-.16.424-.232.836-.232h1.342zM20.388 4h-3.16c-.054 0-.086-.042-.076-.096L18.04.098a.124.124 0 0 1 .118-.094h3.68c.062 0 .094.062.052.126-.16.254-.772.794-1.46.794h-1.28a.124.124 0 0 0-.116.094l-.094.424c-.01.052.02.094.074.094h1.724c.052 0 .084.042.074.096l-.148.666a.124.124 0 0 1-.118.094h-1.722a.124.124 0 0 0-.116.096l-.118.486c-.01.054.02.096.074.096H20.6c.052 0 .084.04.074.094l-.17.73a.124.124 0 0 1-.116.106zM5.194.036H.86A.124.124 0 0 0 .744.13L.638.51c-.01.044.01.074.042.096.17.052 1.08.074.94.58l-.03.14-.37 1.384-.032.138c-.138.508-.624.528-.826.58-.04.012-.074.054-.084.096l-.106.38c-.01.054.02.096.074.096h1.766a.122.122 0 0 0 .116-.096l.318-1.226a.124.124 0 0 1 .116-.094h1.132a.126.126 0 0 0 .116-.096l.168-.656c.012-.052-.02-.094-.074-.094h-1.13c-.054 0-.084-.042-.074-.096l.16-.592a.124.124 0 0 1 .114-.096h1.702c.054 0 .106-.04.118-.094l.454-.72c.02-.062 0-.104-.054-.104z" fill-rule="nonzero" fill="#353535"></path></svg>