<svg data-v-47152ace="" width="22" height="22" viewBox="0 0 22 22" xmlns="http://www.w3.org/2000/svg"><title>git</title><path d="M21.585 11.98l-9.605 9.605a1.417 1.417 0 0 1-2.004 0L7.98 19.59l2.53-2.53a1.682 1.682 0 0 0 2.131-2.145l2.439-2.439a1.686 1.686 0 1 0-1.01-.95L11.797 13.8V7.815a1.686 1.686 0 1 0-1.386.05v6.04a1.686 1.686 0 0 0-.915 2.211L7 18.61.415 12.024a1.418 1.418 0 0 1 0-2.004L10.02.415a1.417 1.417 0 0 1 2.003 0l9.561 9.56a1.417 1.417 0 0 1 0 2.005" fill-rule="nonzero" fill="#F03C2E"></path></svg>