<svg data-v-47152ace="" width="22" height="22" viewBox="0 0 22 22" xmlns="http://www.w3.org/2000/svg"><title>googlemaps</title><g fill-rule="nonzero" fill="none"><path d="M3.376 18.905A10.95 10.95 0 0 0 11 21.979c6.07 0 10.99-4.92 10.99-10.99 0-3.035-1.23-5.782-3.22-7.77L3.376 18.906z" fill="#F1F2F4"></path><path d="M11.067 11.08l-7.69 7.825A10.95 10.95 0 0 0 11 21.979c3.078 0 5.86-1.265 7.853-3.304l-7.786-7.596" fill="#5680C1"></path><path fill="#FFF" d="M18.319 19.186l-7.761-7.761.858-.86 7.764 7.763-.421.446z"></path><path d="M11 0C4.93 0 .01 4.92.01 10.99c0 2.742 1.007 5.251 2.669 7.179.04.047.081.094.124.14L18.32 2.791A10.945 10.945 0 0 0 11 0z" fill="#3AAA52"></path><path d="M18.952 3.398l-.317-.307.002-.002a5.413 5.413 0 0 0-.2-.187l-.002-.002-.116-.105L2.803 18.308c.112.125.225.247.344.367l.23.23.285.264L19.18 3.651l-.228-.253z" fill="#F7BB19"></path><path d="M8.892 4.694l-.805.805c-.135-.086-.268-.191-.416-.26-.683-.317-1.464-.152-1.981.41-.897.972-.44 2.584.841 2.913.612.156 1.185.045 1.655-.414.193-.19.305-.425.356-.702H6.965V6.315h2.739c.015.145.036.296.043.444.027.614-.082 1.2-.402 1.732-.399.667-.996 1.062-1.753 1.208-.913.174-1.748-.006-2.473-.599a2.787 2.787 0 0 1-1.05-1.972 2.82 2.82 0 0 1 .81-2.303c.498-.517 1.118-.8 1.837-.87a2.805 2.805 0 0 1 2.176.739z" fill="#FFF"></path><g transform="translate(13.071 3.541)"><path d="M8.004 4.102l.002-.108a3.995 3.995 0 0 0-7.989 0c-.146 1.674 1.215 3.29 1.215 3.29 2.316 2.948 2.058 3.813 2.513 5.075.236.656.41.412.511.227a.867.867 0 0 0 .056-.227c.118-1.926 1.522-3.85 2.625-5.298 1.101-1.446 1.067-2.96 1.067-2.96z" fill="#E94636"></path><circle fill="#802D28" cx="4.005" cy="4.007" r="1.408"></circle></g></g></svg>