<svg data-v-47152ace="" width="17" height="22" viewBox="0 0 17 22" xmlns="http://www.w3.org/2000/svg"><title>grunt</title><g fill-rule="nonzero" fill="none"><path d="M1.106 5.332s.376 1.45.43 1.932C1.589 7.747.57 8.821.57 9.357c0 .537.214 1.503 1.395 1.986 1.18.483 1.342 1.717 1.342 2.469 0 .751-.43 2.2-.43 2.2s-.268 3.596 1.18 4.24c1.45.644 1.128.644 1.45.644.322 0 2.683.966 4.079.59 1.395-.375 1.77-.804 1.77-.804s1.396.107 1.825-1.128c.43-1.234.698-3.81.537-4.99-.161-1.182-.376-2.738.59-3.275.967-.536 1.986-1.18 1.825-1.717-.16-.537-1.02-1.288-1.02-1.288S14.9 6.942 15.06 6.62c.16-.322 1.127-1.127.59-1.717-.536-.59-1.503-.59-1.503-.59l-1.234.107S10.82 2.54 8.083 2.649c-2.737.107-4.455 1.77-4.455 1.77s-.912-.321-1.717 0c-.805.323-.966 0-.805.913z" fill="#FBA919"></path><path d="M6.01 13.323S4.947 14.948 4.168 16.1c-.12.179.78.19.78.19l1.062-2.968zm.506-3.37s-.32.8-.496 1.224c-.19.46-.917.69-.917.69s.377-.396.377-1.396c0-.42.542-.587.542-.587l.494.07z" fill="#E78724"></path><path d="M6.193 10.405s-.657.782-1.875.344c-1.22-.437-1.344-2-1.344-2.438 0-.437 2.312.438 2.625.625.313.188.906.938.594 1.47zM1.589 2.056s1.125-.219 1.875.375.969 1.063.969 1.063L3.169 4.496S2.558 4.213 2.37 3.4c-.187-.812-.062-1.187-.781-1.344z" fill="#E78724"></path><path d="M5.864 8.149C5.38 7.46 4.582 7.16 3.944 7.11c-1.087-.085-1.603.3-1.603.3s1.78.075 2.293.749c.956 1.254 2.349 1.356 2.572 1.08-.258.013-.541-.115-.845-.401-.19-.18-.343-.472-.497-.69zm-3.004 2.43s-1.975-.678-1.6-1.365c.375-.688.077-1.063.077-1.063S.234 8.974.515 9.85c.172.538.462.926 2.053 1.672.763 1.417.158 3.969.194 3.98.06.02 1.071-.499 1.002-2.886-.02-.733-.08-1.733-.904-2.035zm2.588-7.3c-.829.421-1.963 1.007-1.963 1.007l.447.223c-.043.07-.064.11-.064.11l.459.209s1.118.81 1.804 1.331c-.229-.704-.9-1.81-.9-1.81s-.19-.507.217-1.07zm2.75 17.149c-2.545 0-3.407-1.292-3.407-1.292l.398.969c.15.419 1.754 1.723 3.006 1.723l.004-1.4z" fill="#E78724"></path><path d="M5.07 18.263s.234 1.431 1.172 1.431c.797 0 1.031-1.209 1.031-1.459l-2.203.028zm-1.56-2.159c.083-.229.375-1.156.468-2 .113-1.01.072-2.489.072-2.489s-.25.97-.47 1.126c-.218.156-.624 1.219-.624 1.219s-.218 1.581-.322 2.113c.287.058.529-.111.876.031zm-2.265-6.27s.531-.188.688-1.344c.156-1.157-.188-2.157-.188-2.157s.031 1.594-.156 1.907c-.188.312-.344.406-.563.813-.219.406.094.656.22.78z" fill="#E78724"></path><path d="M5.88 2.937s-.5-.083-.75-.458c-.25-.376-.959-1.126-2.088-1.134-1.129-.008-2.246.3-2.246.3l.975.616c.103-.003.284-.002.582.008 1.224.04 1.412 1.251 1.412 1.251l4.313-.593" fill="#FBA919"></path><path d="M6.297 9.623s-.584.583-1.48.396c-.896-.188-1.438-.584-1.48-1.271-.041-.688.188-.959.188-.959s1 .313 1.48.73c.48.416.833 1.083 1.292 1.104z" fill="#FFF"></path><path d="M5.59 9.415s-.505.23-1.071.042c-.74-.247-.79-1.017-.79-1.017s-.454 1.333.82 1.59c1.02.206 1.625-.386 1.625-.386l-.583-.23z" fill="#C9C9C9"></path><path d="M5.95 2.654C5.896 1.511 6.833.601 7.158.562c.018.193-.018.949.306 1.181C7.56 1.126 7.878.446 9.14 0c-.27.717-.036 1.317.076 1.596.861-.783 1.442-.653 1.442-.653s-.599 1.033-.364 1.71c-1.73-.135-4.335.185-4.344.001zM2.283 4.395c-.413-.342-.105-.66-.138-1.049-.018-.207-.034-.402-.102-.51-.38-.6-1.276-.782-1.285-.784l-.42-.082.278-.326c.036-.042 1.179-1.133 2.948-.562 1.238.4 2.154 1.753 2.188 1.808l-.62.292C5.124 3.17 4.4 1.898 3.338 1.555c-.858-.277-1.65-.013-1.988.16.36.143.831.405 1.115.853.134.212.156.478.178.736.029.342.056.664.307.873l-.667.218zm-1.103 5s.52-.646.674-1.9c.06-.495-.047-1.47-.219-1.845.032.922-.203 1.845-.203 1.845s-.158 1.712-.252 1.9z" fill="#463014"></path><path d="M3.923 3.744c0-.001-.167-.73-.63-1.097-.65-.518-1.446-.242-1.454-.24l-.116-.357c.039-.012.948-.299 1.786.29.843.593.944 1.13.953 1.189l-.54.215zm-1.11 5.188s-.272-.39-.223-.82c.024-.212.123-.43.298-.507.326-.144.47.226.47.226s-.458.113-.544 1.1z" fill="#463014"></path><path d="M5.81 9.527l.017.033s-.851.639-1.724-.01c-.466-.346-.422-1.205-.28-1.57.373.085.688.237.952.414-.333-.297-.625-.516-.624-.521l-.38-.107-.735-.253c-.01.056-.278 1.315.497 2.172.343.38 1.954 1.232 2.718-.224l-.442.066z" fill="#463014"></path><path d="M5.73 9.62c.479.73 1.688.313 1.667-.458 0 0-.808.446-1.522-.375-.416-.479-1.751-1.8-3.562-1.361 1.25.275 2.906 1.417 3.417 2.195z" fill="#463014"></path><path d="M2.144 11.679c.115.066.522.487.522 1.117 0 .316-.031 1.902-.188 2.87.235.153.4.186.633.341.117-1.122.201-2.748.162-3.405-.045-.748-.445-1.25-.817-1.465a15.66 15.66 0 0 0-.36-.199C1.459 10.594.8 10.238.8 9.631c0-.475.185-.624.38-.781l.021-.018c.13-.104.277-.223.364-.419.237-.533.276-1.894 0-2.239-.138-.172-.507-.75-.4-1.14A.52.52 0 0 1 1.45 4.7c.161-.083.379-.125.646-.125.526 0 1.11.16 1.41.256 1.076.34 2.373 1.323 2.745 1.616l.018.014.238.165-.149-.249c-.009-.015-.951-1.565-2.637-2.133-.328-.111-.972-.297-1.605-.297-.377 0-.697.066-.95.196-.309.158-.518.41-.605.728-.213.78.48 1.65.504 1.678.081.144.115 1.192-.071 1.612-.026.058-.096.114-.186.186-.027.023-.059.046-.092.071-.263.2-.661.5-.661 1.192 0 .948.96 1.461 1.731 1.874.127.068.248.133.357.196z" fill="#463014"></path><path d="M2.283 4.395c-.413-.342-.105-.66-.138-1.049-.018-.207-.034-.402-.102-.51-.38-.6-1.276-.782-1.285-.784l-.42-.082.278-.326c.036-.042 1.179-1.133 2.948-.562 1.238.4 2.154 1.753 2.188 1.808l-.62.292C5.124 3.17 4.4 1.898 3.338 1.555c-.858-.277-1.65-.013-1.988.16.36.143.831.405 1.115.853.134.212.156.478.178.736.029.342.056.664.307.873l-.667.218z" fill="#463014"></path><path d="M2.27 4.466l-.027-.023c-.306-.254-.252-.504-.2-.746.024-.112.05-.227.04-.346-.017-.199-.033-.387-.093-.482C1.628 2.3.754 2.115.745 2.114L.22 2.01l.348-.408c.007-.007.74-.748 1.984-.748.339 0 .686.056 1.031.168 1.292.416 2.214 1.82 2.222 1.834l.038.06-.735.344-.029-.046C5 3.08 4.304 1.932 3.32 1.615a2.462 2.462 0 0 0-.757-.118 2.76 2.76 0 0 0-1.057.215c.34.153.752.41 1.013.823.142.224.165.498.188.763.027.329.053.639.284.83l.088.073-.809.265z" fill="#463014"></path><path d="M3.923 3.744c0-.001-.167-.73-.63-1.097-.65-.518-1.446-.242-1.454-.24l-.116-.357c.039-.012.948-.299 1.786.29.843.593.944 1.13.953 1.189l-.54.215z" fill="#463014"></path><path d="M3.878 3.83l-.017-.072c-.001-.007-.165-.71-.606-1.062a1.41 1.41 0 0 0-.902-.302c-.27 0-.472.065-.494.072l-.06.02-.154-.476.06-.02c.026-.008.267-.083.609-.083.45 0 .876.132 1.231.382.865.607.97 1.169.98 1.23l.007.05-.654.26zM2.353 2.27c.37 0 .71.113.98.328.392.313.576.864.632 1.062l.425-.17c-.038-.15-.208-.6-.917-1.099-.339-.238-.729-.359-1.16-.359-.236 0-.42.038-.51.06l.077.238c.089-.024.26-.06.473-.06zm3.85 17.08a.788.788 0 0 1-.504-.18c-.1-.086-.438-.396-.587-.777-.056-.142-.044-.256.037-.338.056-.056.171-.123.406-.123H6.816c.178 0 .306.038.38.113.094.097.064.22.037.286a3.118 3.118 0 0 1-.558.828.635.635 0 0 1-.472.192zm.193-9.686L5.73 9.62s.17.3.28.689c.125.44-.114 1.082-.114 1.082s.89-1.007.5-1.728zM5.564 21.11c-2.373-.182-3.208-2.425-3.208-2.892h.62-.31.31c.003.202.633 2.12 2.635 2.275l-.047.617z" fill="#463014"></path><path d="M4.897 17.093a1.557 1.557 0 0 1 .004-.617c-.18-.135-.504-.186-.746-.264-.199-.126-1.215.128-1.952-.764-.924-1.117-.73-1.784-.73-1.784-.236.263-.466.163-.827 1.39-.361 1.227.17 2.082 1.16 2.941.467.406 1.129.573 1.697.637-.19-.191.326-.21.681-.343-.028-.288.02-.566.234-.79.129-.136.295-.217.467-.281l.027-.065a.549.549 0 0 1-.015-.06z" fill="#FFF"></path><path d="M4.18 18.281a2.168 2.168 0 0 1-.052-.184c-.016-.067-.098-.258.003-.04a.81.81 0 0 1-.056-.172c-1.603-.002-2.998-1.102-2.728-3.417-.21-.278-.504.562-.504.562s-.803 2.33 1.27 3.234c.691.301 1.301.517 1.445.43.3.061.571-.148.673-.286a1.543 1.543 0 0 1-.051-.127z" fill="#C9C9C9"></path><path d="M4.868 16.758c.003-.195.043-.385.137-.573l.021-.038c-.617-.006-1.327-.065-1.932-.307-.665-.266-1.497-1.176-1.64-2.245 0 0-1.253.966-.885 3.035.346 1.942 1.971 2.576 3.825 2.683.001-.013-.208-.445-.142-.71-1.053.076-2.23-.33-2.798-1.266-.52-.855-.374-2.316-.16-2.53.52 1.645 2.398 1.98 3.574 1.95z" fill="#463014"></path><path d="M5.062 15.58c-.333.979-1.015 1.771-1.015 1.771s.938-.043.99-.208c.038-.123.846-2.014 1.156-4.23-.292.48-1.102 2.583-1.13 2.667z" fill="#463014"></path><path d="M10.373 13.323s1.062 1.625 1.842 2.778c.12.179-.78.19-.78.19l-1.062-2.968zm-.506-3.37s.32.8.495 1.224c.191.46.917.69.917.69s-.376-.396-.376-1.396c0-.42-.542-.587-.542-.587l-.494.07z" fill="#E78724"></path><path d="M10.19 10.405s.657.782 1.876.344c1.219-.437 1.344-2 1.344-2.438 0-.437-2.313.438-2.626.625-.312.188-.906.938-.594 1.47zm4.604-8.349s-1.125-.219-1.875.375-.97 1.063-.97 1.063l1.265 1.002s.611-.283.799-1.096c.187-.812.062-1.187.781-1.344z" fill="#E78724"></path><path d="M10.519 8.149c.484-.688 1.282-.988 1.92-1.038 1.087-.085 1.602.3 1.602.3s-1.78.075-2.293.749c-.955 1.254-2.348 1.356-2.57 1.08.257.013.54-.115.844-.401.19-.18.343-.472.497-.69zm3.004 2.43s1.975-.678 1.6-1.365c-.375-.688-.077-1.063-.077-1.063s1.103.823.822 1.698c-.173.537-.462.926-2.053 1.672-.763 1.417-.158 3.969-.194 3.98-.06.02-1.071-.5-1.002-2.886.02-.733.08-1.734.904-2.035zm-2.587-7.3c.827.421 1.962 1.007 1.962 1.007l-.446.223c.042.07.063.11.063.11l-.458.209s-1.12.81-1.805 1.331c.229-.704.9-1.81.9-1.81s.19-.507-.216-1.07zM8.185 20.428c2.544 0 3.407-1.292 3.407-1.292l-.398.969c-.15.419-1.754 1.723-3.006 1.723l-.003-1.4z" fill="#E78724"></path><path d="M11.313 18.263s-.234 1.431-1.172 1.431c-.796 0-1.031-1.209-1.031-1.459l2.203.028zm1.56-2.159c-.083-.229-.375-1.156-.469-2-.112-1.01-.07-2.489-.07-2.489s.25.97.468 1.126c.219.156.625 1.219.625 1.219s.218 1.581.321 2.113c-.286.058-.527-.111-.875.031zm2.265-6.27s-.532-.188-.688-1.344c-.156-1.157.188-2.157.188-2.157s-.032 1.594.156 1.907c.188.312.344.406.563.813.218.406-.094.656-.22.78z" fill="#E78724"></path><path d="M10.503 2.937s.5-.083.75-.458c.25-.376.959-1.126 2.088-1.134 1.13-.009 2.246.3 2.246.3l-.975.616a9.902 9.902 0 0 0-.582.008c-1.224.04-1.412 1.251-1.412 1.251l-4.313-.594" fill="#FBA919"></path><path d="M10.086 9.623s.584.583 1.48.396c.896-.188 1.438-.584 1.48-1.271.04-.688-.188-.959-.188-.959s-1 .313-1.48.73c-.479.417-.833 1.083-1.292 1.104z" fill="#FFF"></path><path d="M10.792 9.415s.506.23 1.072.042c.74-.247.79-1.017.79-1.017s.454 1.333-.82 1.59c-1.02.206-1.625-.386-1.625-.386l.583-.23z" fill="#C9C9C9"></path><path d="M14.1 4.395c.413-.342.106-.66.138-1.049.018-.207.034-.402.102-.51.38-.6 1.276-.782 1.285-.784l.421-.082-.278-.326c-.036-.042-1.18-1.133-2.95-.562-1.237.4-2.153 1.753-2.187 1.808l.62.292c.008-.012.732-1.284 1.794-1.627.858-.277 1.65-.013 1.988.16-.36.143-.831.405-1.115.853-.134.212-.156.478-.178.736-.029.342-.056.664-.307.873l.667.218zm1.102 5s-.52-.646-.673-1.9c-.06-.495.046-1.47.218-1.845-.03.922.204 1.845.204 1.845s.158 1.712.251 1.9z" fill="#463014"></path><path d="M12.46 3.744c0-.001.167-.73.63-1.097.65-.518 1.446-.242 1.454-.24l.116-.357c-.039-.012-.948-.299-1.786.29-.843.593-.944 1.13-.953 1.189l.54.215zm1.11 5.188s.272-.39.223-.82c-.024-.212-.123-.43-.298-.507-.326-.144-.47.226-.47.226s.458.113.544 1.1z" fill="#463014"></path><path d="M10.574 9.527c-.012.021-.017.033-.017.033s.85.639 1.722-.01c.467-.346.423-1.205.28-1.57a2.81 2.81 0 0 0-.95.414c.332-.297.624-.516.623-.521l.38-.107.735-.253c.01.056.278 1.315-.497 2.172-.344.38-1.954 1.232-2.718-.224l.442.066z" fill="#463014"></path><path d="M10.653 9.62c-.479.73-1.687.313-1.667-.458 0 0 .808.446 1.522-.375.416-.479 1.752-1.8 3.562-1.361-1.25.275-2.906 1.417-3.417 2.195z" fill="#463014"></path><path d="M14.24 11.679c-.116.066-.523.487-.523 1.117 0 .316.031 1.902.188 2.87-.235.153-.399.186-.633.341-.117-1.122-.201-2.748-.162-3.405.045-.748.445-1.25.817-1.465.116-.067.238-.132.36-.199.637-.344 1.295-.7 1.295-1.307 0-.475-.184-.624-.38-.781l-.02-.018c-.13-.104-.278-.223-.365-.419-.237-.533-.276-1.894 0-2.239.138-.172.507-.75.401-1.14a.522.522 0 0 0-.286-.335c-.161-.083-.378-.125-.646-.125-.526 0-1.11.16-1.41.256-1.075.34-2.373 1.323-2.745 1.616l-.018.014-.238.165.149-.249c.01-.015.952-1.565 2.637-2.133.328-.111.972-.297 1.605-.297.377 0 .697.066.95.196.309.158.518.41.605.728.213.78-.48 1.65-.504 1.678-.081.144-.115 1.192.071 1.612.026.058.096.114.186.186.028.023.058.046.092.071.263.2.661.5.661 1.192 0 .948-.96 1.461-1.731 1.874-.127.068-.248.133-.357.196z" fill="#463014"></path><path d="M13.094 4.284c-.153-.259-.544-.758-1.444-1.197-1.004-.49-2.167-.738-3.456-.739h-.005c-1.29 0-2.452.25-3.456.739-.9.439-1.291.938-1.444 1.197l-.065.087.77.171.025-.03.013-.029c.012-.051.115-.326.974-.745.92-.448 1.99-.675 3.185-.676 1.195 0 2.266.228 3.185.676.86.419.963.694.975.745l.013.028.024.031.77-.171-.064-.087z" fill="#463014"></path><path d="M14.1 4.395c.413-.342.106-.66.138-1.049.018-.207.034-.402.102-.51.38-.6 1.276-.782 1.285-.784l.421-.082-.278-.326c-.036-.042-1.18-1.133-2.95-.562-1.237.4-2.153 1.753-2.187 1.808l.62.292c.008-.012.732-1.284 1.794-1.627.858-.277 1.65-.013 1.988.16-.36.143-.831.405-1.115.853-.134.212-.156.478-.178.736-.029.342-.056.664-.307.873l.667.218z" fill="#463014"></path><path d="M13.306 4.2l.087-.071c.23-.192.257-.502.285-.831.022-.265.045-.539.187-.763.26-.412.674-.67 1.014-.823a2.763 2.763 0 0 0-1.058-.215c-.26 0-.515.04-.757.118-.985.317-1.68 1.465-1.76 1.6l-.03.047-.733-.346.037-.06c.009-.013.93-1.416 2.222-1.833a3.357 3.357 0 0 1 1.032-.168c1.243 0 1.977.741 1.983.749l.348.407-.525.103c-.009.002-.883.184-1.245.756-.06.095-.075.282-.092.482-.01.118.015.234.039.345.052.243.107.493-.2.747l-.026.022-.808-.265z" fill="#463014"></path><path d="M12.46 3.744c0-.001.167-.73.63-1.097.65-.518 1.446-.242 1.454-.24l.116-.357c-.039-.012-.948-.299-1.786.29-.843.593-.944 1.13-.953 1.189l.54.215z" fill="#463014"></path><path d="M11.852 3.569l.007-.05c.01-.061.115-.623.979-1.23.355-.25.781-.382 1.232-.382.341 0 .582.075.61.084l.058.019-.154.476-.06-.02a1.666 1.666 0 0 0-.494-.072c-.346 0-.65.102-.901.302-.442.352-.606 1.055-.607 1.062l-.016.071-.654-.26zm2.651-1.24l.077-.236a2.12 2.12 0 0 0-.51-.06c-.431 0-.821.12-1.16.358-.71.499-.879.95-.917 1.1l.425.169c.056-.198.24-.75.633-1.062.27-.215.61-.329.98-.329.212 0 .383.037.472.06zM9.708 19.16a3.127 3.127 0 0 1-.558-.828c-.027-.065-.057-.189.038-.286.073-.075.2-.114.38-.114H10.827c.235 0 .35.068.406.124.08.082.093.196.037.338-.149.38-.487.691-.587.778a.789.789 0 0 1-.503.18.635.635 0 0 1-.473-.192zm.279-9.495l.666-.043s-.17.3-.28.689c-.125.44.114 1.082.114 1.082s-.89-1.007-.5-1.728z" fill="#463014"></path><path d="M8.192 7.283c-.425 0-.98-.012-1.395-.31 0 0 .544.954 1.394.954v-.12l.001.12c.85 0 1.394-.954 1.394-.954-.415.298-.97.31-1.394.31z" fill="#E78724"></path><path d="M9.362 7.278a2.283 2.283 0 0 1-1.17.356 2.283 2.283 0 0 1-1.17-.356s.62.758 1.166.764h.007c.546-.006 1.167-.764 1.167-.764zm1.457 13.833l-.047-.618c2.001-.154 2.632-2.072 2.635-2.274h.62c0 .467-.835 2.71-3.208 2.892z" fill="#463014"></path><path d="M11.486 17.093c.037-.214.04-.417-.004-.617.18-.135.504-.186.746-.264.199-.126 1.215.128 1.953-.764.923-1.117.729-1.784.729-1.784.237.263.466.163.827 1.39.362 1.227-.17 2.082-1.16 2.941-.467.406-1.129.573-1.697.637.19-.191-.326-.21-.681-.343.028-.288-.02-.566-.233-.79a1.208 1.208 0 0 0-.468-.281l-.027-.065a.558.558 0 0 0 .015-.06z" fill="#FFF"></path><path d="M12.203 18.281c.021-.06.036-.122.052-.184.016-.067.098-.258-.003-.04a.81.81 0 0 0 .055-.172c1.604-.002 2.999-1.102 2.729-3.417.21-.278.504.562.504.562s.803 2.33-1.27 3.234c-.691.301-1.301.517-1.446.43-.3.061-.57-.148-.672-.286.019-.042.037-.084.051-.127z" fill="#C9C9C9"></path><path d="M11.515 16.758a1.288 1.288 0 0 0-.137-.573l-.021-.038c.617-.006 1.327-.065 1.932-.307.665-.266 1.497-1.176 1.64-2.245 0 0 1.253.966.885 3.035-.346 1.942-1.971 2.576-3.825 2.683-.001-.013.208-.445.142-.71 1.053.076 2.23-.33 2.798-1.266.52-.855.374-2.316.16-2.53-.52 1.645-2.398 1.98-3.574 1.95z" fill="#463014"></path><path d="M12.263 17.245c-.221-.24-.628-.525-1.567-.525l-2.501-.001h-.006l-2.502.001c-.938 0-1.346.286-1.567.525-.323.349-.374.833-.15 1.44.593 1.612 1.427 3.25 4.218 3.253h.007c2.79-.003 3.625-1.641 4.218-3.254.224-.606.173-1.09-.15-1.439zm-.434 1.326c-.283.81-1.043 2.77-3.638 2.774-2.594-.004-3.354-1.964-3.637-2.774-.156-.45-.144-.782.037-.988.124-.141.408-.31 1.056-.31h.676a3915.717 3915.717 0 0 1 3.737 0h.676c.648 0 .932.169 1.056.31.181.207.193.539.037.988z" fill="#463014"></path><path d="M11.32 15.58c.334.979 1.015 1.771 1.015 1.771s-.937-.043-.989-.208c-.038-.123-.846-2.014-1.156-4.23.292.48 1.102 2.583 1.13 2.667z" fill="#463014"></path></g></svg>