<svg data-v-47152ace="" width="10" height="22" viewBox="0 0 10 22" xmlns="http://www.w3.org/2000/svg"><title>gulp</title><g fill-rule="nonzero" fill="#D34A47"><path d="M7.668 21.33l.211-3.515.583-.995s-1.326.543-3.546.543c-2.219 0-3.525-.533-3.525-.533l.653 1.085.231 3.414c0 .367 1.207.663 2.697.663 1.489 0 2.696-.296 2.696-.663M7.003 4.915l.442-1.75L9.897.585l-.646-.55-2.596 2.748-.514 2.09c-.387-.012-.774-.019-1.16-.018-2.735 0-4.951.311-4.951.695 0 .385 2.216.696 4.95.696s4.95-.311 4.95-.696c0-.283-1.202-.526-2.927-.635"></path><path d="M9.893.59C9.954.52 9.86.337 9.683.183c-.177-.153-.37-.22-.432-.148-.062.07.032.253.21.406.176.154.37.22.432.15M7.55 12.743c-.058-.56 1.223-1.369.894-1.395-.707.04-1.06.83-1.416 1.656-.13.303-.577 1.594-.87 1.435-.292-.159.38-1.22.568-1.851-.217.159-1.014.779-1.22.198-.33.281-1.036.433-.957-.304-.175.311-.57.746-1.043.565-.622-.237.36-2.218.604-2.118.244.1-.05.551-.126.727-.17.385-.364.87-.234.97.224.17.832-.644.845-.662.114-.15.438-1.133.7-1.02.26.112-.652 1.41-.31 1.668.068.052.35-.032.521-.217.111-.12.073-.386.442-1.267.37-.881.7-1.978.953-1.895.253.084.044.647-.047.857-.426.985-1.164 2.614-.816 2.49.348-.123.529-.13.87-.529.34-.398.325-1.055.552-1.041.227.014.189.224.134.385.223-.256 1.06-.795 1.26-.261.24.631-1.195 1.544-.837 1.497.349-.045.914-.403 1.155-.729l.664-5.971s-.668.553-4.92.553S.064 5.943.064 5.943l.566 5.45c.3-.852 1.013-2.578 2.136-2.52.511.027 1.194 1.01.61 1.044-.248.014-.273-.491-.566-.565-.212-.054-.506.118-.696.304-.38.371-1.195 1.836-1.087 2.566.137.93 1.284-.323 1.478-.696.137-.262.23-1.04.528-.958.3.082-.026.884-.242 1.593-.244.796-.372 1.636-.677 1.54-.305-.097.192-1.125.174-1.305-.287.265-.815.935-1.491.603l.35 3.385s.934.737 3.746.737c2.811 0 3.78-.726 3.78-.726l.435-3.92c-.356.347-1.486.964-1.558.269"></path></g></svg>