<svg data-v-47152ace="" width="20" height="22" viewBox="0 0 20 22" xmlns="http://www.w3.org/2000/svg"><title>heroku</title><g fill-rule="nonzero" fill="#430098"><path d="M18.7 20.02c0 .495-.385.88-.88.88H1.98a.869.869 0 0 1-.88-.88V1.98c0-.495.385-.88.88-.88h15.84c.495 0 .88.385.88.88v18.04zM17.82 0H1.98C.88 0 0 .88 0 1.98v18.04C0 21.12.88 22 1.98 22h15.84c1.1 0 1.98-.88 1.98-1.98V1.98C19.8.88 18.92 0 17.82 0z"></path><path d="M4.95 18.7l2.475-2.2-2.475-2.2zM13.915 9.79c-.44-.44-1.265-.99-2.64-.99-1.485 0-3.025.385-4.125.77V3.3h-2.2v9.515l1.54-.715s2.53-1.155 4.785-1.155c1.1 0 1.375.605 1.375 1.155v6.6h2.2v-6.6c0-.165 0-1.375-.935-2.31M11 6.875h2.2c.99-1.155 1.485-2.31 1.65-3.575h-2.2c-.22 1.265-.77 2.42-1.65 3.575"></path></g></svg>