<svg data-v-47152ace="" width="22" height="22" viewBox="0 0 22 22" xmlns="http://www.w3.org/2000/svg"><title>jquery</title><g fill-rule="nonzero" fill="none"><circle fill="#1B75BB" cx="11" cy="11" r="11"></circle><g fill="#FFF"><path d="M17.99 14.077c-2.113 2.312-6.006 2.563-9.083.463-3.174-2.167-4.334-6.053-2.74-8.892-.331.305-.631.65-.894 1.035-2.065 3.026-1.009 7.343 2.359 9.642 3.368 2.298 7.773 1.709 9.839-1.318.203-.299.376-.61.52-.93z"></path><path d="M18.517 10.237l-.093.132c-1.369 1.871-4.32 2.133-6.681.561C9.327 9.323 8.44 6.405 9.766 4.415a3.61 3.61 0 0 1 .636-.725 5.424 5.424 0 0 0-1.034 1.153 5.365 5.365 0 0 0 1.495 7.438c2.467 1.642 5.756.945 7.398-1.522 0 0 .151-.25.256-.522z"></path><path d="M13.471 8.606c1.392.95 3.197.78 4.24-.331a2.905 2.905 0 0 0 .61-.99 2.193 2.193 0 0 1-.716.793c-.95.64-2.4.58-3.602-.24-1.334-.91-1.907-2.45-1.423-3.628a2.196 2.196 0 0 1 .433-.67 2.9 2.9 0 0 0-.554.606l-.019.029c-.944 1.418-.487 3.395 1.031 4.431z"></path></g></g></svg>