<svg data-v-47152ace="" width="29" height="20" viewBox="0 0 29 20" xmlns="http://www.w3.org/2000/svg"><title>laravel</title><g fill-rule="nonzero" fill="none"><path d="M28.085 9.459c-.185-.212-2.766-3.441-3.22-3.987-.454-.547-.679-.44-.956-.41-.278.03-3.525.59-3.926.652-.4.062-.616.216-.383.542l2.828 4.004-8.537 2.036L7.1.96C6.834.56 6.777.4 6.169.445 5.56.489.84.885.507.885c-.335 0-.705.177-.37.97.334.793 5.678 12.326 5.828 12.644.226.572.864.864 1.445.66.93-.224 4.154-1.066 5.917-1.528.93 1.687 2.828 5.106 3.18 5.595.467.656.793.546 1.512.326.563-.172 8.81-3.133 9.163-3.282.352-.15.6-.26.348-.635-.18-.255-2.352-3.159-3.49-4.66l3.847-1.027c.34-.11.388-.296.198-.49zM12.57 12.63l-5.137 1.224c-.255.058-.255.031-.286-.057A3123.4 3123.4 0 0 0 1.383 1.903c-.079-.145-.075-.26 0-.26s4.516-.396 4.67-.405c.154-.009.141.026.198.123l6.37 11.014c.115.176.155.203-.052.256zm13.48 2.524c.076.119.155.198-.087.282-.243.084-8.093 2.74-8.243 2.806-.15.066-.273.088-.467-.198-.194-.286-2.749-4.705-2.749-4.705l8.318-2.163c.242-.08.3-.049.405.097.106.145 2.767 3.766 2.824 3.885v-.004zm.534-5.908c-.185.044-3.234.802-3.234.802l-2.498-3.428c-.07-.1-.127-.198.049-.22a263.16 263.16 0 0 0 3.14-.564.308.308 0 0 1 .397.15 551.92 551.92 0 0 0 2.401 3.058c.084.105-.07.167-.255.207v-.005z" fill="#F0543F"></path><path d="M12.723 12.534c0 .048-.026.066-.15.097l-.678.167.612 1.075.837-.22M23.107 11.155c.05.03.09.073.119.123l.405.577.881-.264-.471-.617" fill="#2B2626" opacity=".4"></path></g></svg>