<svg data-v-47152ace="" width="20" height="22" viewBox="0 0 20 22" xmlns="http://www.w3.org/2000/svg"><title>mocha</title><g fill-rule="nonzero" fill="none"><path d="M18.764 16.917l-8.497 4.91a1.173 1.173 0 0 1-1.18 0L.59 16.916A1.18 1.18 0 0 1 0 15.902V6.083c0-.424.224-.802.59-1.014L9.087.159a1.173 1.173 0 0 1 1.18 0l8.497 4.91c.366.212.59.601.59 1.014v9.82a1.232 1.232 0 0 1-.59 1.014z" fill="#8D6748"></path><path d="M9.665 1.493a.97.97 0 0 0-.507.142L1.818 5.87c-.32.177-.508.52-.508.873v8.474c0 .365.189.696.507.873l7.34 4.237c.154.094.331.141.508.141a.97.97 0 0 0 .508-.141l7.34-4.237c.319-.177.507-.52.507-.873V6.744a.988.988 0 0 0-.507-.873l-7.34-4.237a.97.97 0 0 0-.508-.141zm0 .354c.118 0 .224.035.33.094l7.34 4.237c.202.118.331.342.331.578v8.474c0 .236-.13.46-.33.578l-7.34 4.236a.668.668 0 0 1-.33.095.634.634 0 0 1-.331-.095l-7.34-4.236a.679.679 0 0 1-.331-.578V6.756c0-.236.13-.46.33-.578l7.34-4.237a.703.703 0 0 1 .331-.094zm-.678 7.387h.99a.107.107 0 0 0 .084-.035c.59-.66.649-2.042.649-2.455a.118.118 0 0 0-.118-.118h-2.22a.118.118 0 0 0-.117.118c0 .402.059 1.782.649 2.455a.107.107 0 0 0 .083.035zm-.272-2.242h1.558c.059 0 .118.047.118.118 0 .33-.06 1.263-.46 1.747-.036.023-.06.035-.095.035H9.14a.107.107 0 0 1-.083-.035c-.4-.472-.448-1.416-.46-1.747 0-.059.047-.118.118-.118zm.991-.602s.425-.247.166-.696c-.154-.236-.225-.437-.166-.52-.153.19-.413.39-.13.815.095.106.142.33.13.401zm-.472.036s.284-.165.107-.472c-.107-.154-.154-.295-.107-.343-.106.13-.271.26-.082.555.059.06.082.213.082.26zM9.2 8.75h.59c.024 0 .047-.012.07-.036.202-.236.296-.602.343-.92 0 0-.012.106-.295.212-.39.142-1.074.047-1.074.047.06.248.154.484.295.661.012.024.047.036.071.036zm-4.437 3.316v-2.36h-.437l-.72 1.109-.72-1.11H2.45v2.373h.413V10.39l.731 1.097h.012l.744-1.109v1.688h.413zm2.643-2.313a1.373 1.373 0 0 0-.495-.095 1.16 1.16 0 0 0-.496.095 1.186 1.186 0 0 0-.649.649 1.296 1.296 0 0 0-.095.472v.012c0 .165.036.33.095.472a1.127 1.127 0 0 0 .637.649c.154.059.319.094.496.094s.342-.023.496-.094a1.186 1.186 0 0 0 .649-.649c.059-.154.094-.307.094-.472v-.012c0-.165-.036-.33-.095-.472a1.126 1.126 0 0 0-.637-.649zm.284 1.144c0 .107-.024.213-.06.32-.047.093-.094.188-.165.259a.944.944 0 0 1-.248.177.702.702 0 0 1-.318.07.739.739 0 0 1-.319-.07.944.944 0 0 1-.248-.177.802.802 0 0 1-.165-.272 1.025 1.025 0 0 1-.059-.33v-.012c0-.106.024-.212.06-.319.046-.094.094-.188.164-.26a.944.944 0 0 1 .248-.176c.095-.047.2-.071.319-.071.118 0 .224.024.318.07a.944.944 0 0 1 .248.178c.071.082.13.165.165.271.036.106.06.213.06.33v.012zm1.746-.354a.974.974 0 0 1 .165-.26.947.947 0 0 1 .248-.176.654.654 0 0 1 .307-.071c.142 0 .26.024.366.082.106.06.2.13.295.213l.271-.307a2.067 2.067 0 0 0-.177-.153c-.059-.048-.13-.083-.2-.118-.083-.024-.154-.048-.248-.071a2.299 2.299 0 0 0-.295-.024c-.19 0-.343.036-.496.095a1.128 1.128 0 0 0-.39.26 1.362 1.362 0 0 0-.247.389c-.062.15-.094.31-.095.472v.012c0 .165.036.318.095.472a1.1 1.1 0 0 0 .248.39c.106.105.236.2.377.259.15.063.31.095.472.094.107 0 .213 0 .319-.023a.875.875 0 0 0 .248-.083c.07-.035.141-.07.212-.13.071-.059.13-.106.189-.177l-.271-.271a2.212 2.212 0 0 1-.307.224.7.7 0 0 1-.366.082.897.897 0 0 1-.307-.07.737.737 0 0 1-.248-.177.801.801 0 0 1-.165-.272 1.024 1.024 0 0 1-.059-.33v-.012c0-.106.024-.212.06-.319zm2.49-.837v2.36h.413v-.992h1.133v.992h.413v-2.36h-.413v.979h-1.133v-.98h-.413zm4.532 1.793l.236.567h.436l-1.038-2.372h-.378l-1.038 2.372h.425l.247-.567h1.11zm-.555-1.31l.401.944h-.802l.401-.944zM2.154 12.94H17.2v-.13H2.154v.13zm8.65-4.567c0 .047-.012.082-.012.13H17.2v-.13h-6.396zm-2.632 0H2.154v.13h6.03c0-.047-.012-.083-.012-.13z" fill="#FFF"></path></g></svg>