<svg data-v-47152ace="" width="11" height="22" viewBox="0 0 11 22" xmlns="http://www.w3.org/2000/svg"><title>mongodb</title><g fill-rule="nonzero" fill="none"><path d="M5.464 16.436c-.113 1.445-.277 2.5-.437 2.869l-.064-.046c.403.94.363 2.546.363 2.546l.59.195s-.12-1.559.047-2.312a1.44 1.44 0 0 1 .304-.595l-.034.023c-.576-.266-.743-1.515-.769-2.68z" fill="#C2BFBF"></path><path d="M10.155 8.725C9 3.63 6.272 1.955 5.98 1.315 5.656.862 5.33.06 5.33.06v.01c.273 1.056.227 9.577.258 10.598.064 2.134 0 4.184-.125 5.767.025 1.165.192 2.414.77 2.68l.034-.023c.09-.063.36-.259.718-.588l.026-.023c1.383-1.276 4.044-4.492 3.143-9.757z" fill="#599636"></path><path d="M5.464 16.436c.125-1.583.19-3.633.125-5.767-.031-1.02.015-9.542-.258-10.598A.446.446 0 0 0 5.308 0c-.033.45-.051.626-.478 1.082C4.169 1.599.776 4.444.5 10.234c-.258 5.398 3.9 8.615 4.463 9.025l.064.046c.16-.369.324-1.424.437-2.87z" fill="#69B240"></path></g></svg>