<svg xmlns="http://www.w3.org/2000/svg" width="20" height="22"><path fill="#539E43" d="M9.744 21.96a1.77 1.77 0 0 1-.847-.223l-2.683-1.593c-.404-.222-.202-.303-.081-.343.545-.182.645-.222 1.21-.545.06-.04.141-.02.202.02l2.058 1.23c.08.041.181.041.242 0l8.05-4.66c.08-.04.12-.12.12-.221v-9.3c0-.101-.04-.182-.12-.222l-8.05-4.64c-.08-.04-.182-.04-.242 0l-8.05 4.64c-.08.04-.12.14-.12.221v9.3c0 .081.04.182.12.223l2.2 1.27c1.19.606 1.936-.1 1.936-.806V7.13c0-.12.1-.242.242-.242H6.96c.121 0 .242.101.242.242v9.18c0 1.593-.867 2.521-2.38 2.521-.464 0-.828 0-1.856-.504l-2.119-1.21A1.703 1.703 0 0 1 0 15.644v-9.3c0-.606.323-1.17.847-1.473l8.05-4.66a1.8 1.8 0 0 1 1.694 0l8.05 4.66c.524.303.847.867.847 1.473v9.3c0 .605-.323 1.17-.847 1.472l-8.05 4.66a2.065 2.065 0 0 1-.847.182zm2.481-6.396c-3.53 0-4.256-1.614-4.256-2.986 0-.12.1-.242.242-.242H9.26c.12 0 .222.081.222.202.161 1.07.625 1.594 2.763 1.594 1.695 0 2.421-.384 2.421-1.291 0-.525-.201-.908-2.844-1.17-2.2-.222-3.57-.707-3.57-2.462 0-1.634 1.37-2.602 3.67-2.602 2.583 0 3.854.888 4.015 2.824 0 .06-.02.121-.06.182-.04.04-.101.08-.162.08h-1.049c-.1 0-.201-.08-.222-.181-.242-1.11-.867-1.473-2.521-1.473-1.856 0-2.078.646-2.078 1.13 0 .585.262.767 2.764 1.09 2.481.322 3.651.786 3.651 2.521-.02 1.775-1.473 2.784-4.035 2.784z"/></svg>