<svg data-v-47152ace="" width="26" height="23" viewBox="0 0 26 23" xmlns="http://www.w3.org/2000/svg"><title>react</title><g fill-rule="nonzero" fill="none"><path d="M.898 11.184c0 1.872 1.828 3.62 4.711 4.606-.575 2.898-.103 5.234 1.475 6.144 1.623.936 4.04.288 6.333-1.717 2.236 1.924 4.496 2.681 6.073 1.769 1.62-.939 2.114-3.433 1.522-6.422 3.003-.992 4.682-2.483 4.682-4.38 0-1.83-1.831-3.412-4.676-4.391.637-3.112.098-5.392-1.546-6.34-1.585-.913-3.87-.117-6.14 1.858C10.972.215 8.708-.425 7.067.526c-1.584.916-2.035 3.294-1.458 6.246-2.785.971-4.711 2.59-4.711 4.412z" fill="#FFF"></path><path d="M20.416 7.765c-.234-.08-.47-.155-.709-.223.04-.16.076-.322.11-.484.536-2.605.186-4.703-1.013-5.394-1.148-.663-3.027.028-4.925 1.68-.187.163-.37.33-.548.503-.12-.115-.241-.227-.365-.337C10.977 1.744 8.984 1 7.787 1.693 6.64 2.357 6.3 4.33 6.783 6.799c.048.244.102.487.162.729-.282.08-.554.166-.815.256-2.331.813-3.82 2.087-3.82 3.409 0 1.364 1.598 2.733 4.027 3.563.197.067.395.13.595.186-.065.26-.123.523-.173.787-.46 2.425-.1 4.351 1.044 5.012 1.182.682 3.167-.02 5.099-1.708.152-.134.306-.275.46-.424.193.187.391.368.595.543 1.871 1.61 3.72 2.261 4.863 1.6 1.182-.685 1.565-2.754 1.067-5.271a12.473 12.473 0 0 0-.132-.589c.14-.041.276-.084.41-.128 2.524-.836 4.167-2.188 4.167-3.571 0-1.327-1.537-2.61-3.916-3.428z" fill="#53C1DE"></path><path d="M19.869 13.871c-.12.04-.244.079-.37.116a22.08 22.08 0 0 0-1.115-2.79c.439-.946.8-1.872 1.071-2.749.226.065.444.134.655.207 2.038.701 3.28 1.738 3.28 2.538 0 .85-1.342 1.956-3.521 2.678zm-.905 1.793c.22 1.113.252 2.12.106 2.906-.131.707-.395 1.178-.721 1.367-.694.402-2.178-.12-3.779-1.498a13.487 13.487 0 0 1-.554-.505c.621-.678 1.241-1.467 1.846-2.343a21.96 21.96 0 0 0 2.983-.46c.045.181.085.359.12.533zm-9.147 4.204c-.678.24-1.218.246-1.544.058-.695-.4-.983-1.948-.59-4.022.047-.245.1-.489.161-.731.902.2 1.9.343 2.968.43.61.857 1.247 1.645 1.89 2.335-.136.132-.276.261-.42.386-.854.747-1.71 1.277-2.464 1.544zm-3.176-6.002c-1.074-.367-1.96-.844-2.569-1.364-.546-.468-.822-.933-.822-1.31 0-.801 1.196-1.824 3.19-2.52.25-.086.503-.166.758-.238.276.897.637 1.834 1.073 2.781a22.905 22.905 0 0 0-1.086 2.821 11.589 11.589 0 0 1-.544-.17zm1.065-7.248c-.414-2.115-.14-3.71.552-4.111.737-.427 2.366.182 4.083 1.706.11.098.22.2.33.305-.64.687-1.271 1.47-1.875 2.322-1.036.096-2.027.25-2.939.456a13.793 13.793 0 0 1-.151-.678zm9.499 2.346c-.215-.372-.439-.74-.67-1.102.703.089 1.376.207 2.008.351-.19.608-.426 1.244-.705 1.896a32.788 32.788 0 0 0-.633-1.145zM13.33 5.19c.434.47.869.995 1.296 1.565a27.703 27.703 0 0 0-2.603 0c.428-.565.866-1.09 1.307-1.565zM9.433 8.97a27.8 27.8 0 0 0-.622 1.139 20.762 20.762 0 0 1-.7-1.906c.629-.14 1.299-.255 1.997-.343-.234.365-.46.735-.675 1.11zm.695 5.622c-.721-.08-1.402-.19-2.03-.327.195-.627.434-1.28.714-1.944a27.63 27.63 0 0 0 1.316 2.27zm3.23 2.67a21.145 21.145 0 0 1-1.326-1.587 32.83 32.83 0 0 0 2.618-.004 20.006 20.006 0 0 1-1.293 1.59zm4.49-4.975c.294.671.542 1.32.739 1.938-.639.145-1.328.263-2.054.35.232-.37.458-.743.676-1.12.221-.385.434-.774.638-1.168zm-1.454.697c-.334.58-.686 1.148-1.057 1.705-.653.047-1.328.07-2.016.07-.686 0-1.352-.02-1.994-.062a26.684 26.684 0 0 1-2.016-3.482 26.436 26.436 0 0 1 2.004-3.475 26.654 26.654 0 0 1 4.015 0 30.838 30.838 0 0 1 2.01 3.461c-.294.606-.61 1.2-.946 1.783zm1.94-10.505c.738.425 1.025 2.14.561 4.39-.03.146-.063.292-.099.437a22.537 22.537 0 0 0-2.944-.465 22.1 22.1 0 0 0-1.862-2.323c.165-.16.334-.314.507-.465 1.626-1.415 3.145-1.973 3.837-1.574z" fill="#FFF"></path><path d="M13.32 9.226a1.966 1.966 0 1 1 0 3.933 1.966 1.966 0 0 1 0-3.933" fill="#53C1DE"></path></g></svg>