<svg data-v-47152ace="" width="22" height="22" viewBox="0 0 22 22" xmlns="http://www.w3.org/2000/svg"><title>socketio</title><g fill-rule="nonzero" fill="none"><path d="M8.223.386c2.84-.729 5.978-.304 8.482 1.241 3.154 1.886 5.213 5.454 5.266 9.127.115 3.709-1.818 7.387-4.925 9.404-3.458 2.326-8.241 2.415-11.772.204-3.6-2.148-5.7-6.48-5.16-10.64.434-4.396 3.829-8.273 8.11-9.336z" fill="#010101"></path><path d="M7.788 2.183C13.153.035 19.734 4 20.288 9.753c.865 5.176-3.43 10.436-8.675 10.588-4.988.498-9.808-3.73-9.949-8.739-.372-4.055 2.3-8.078 6.124-9.42z" fill="#FFF"></path><path d="M8.328 10.445c2.405-1.965 4.757-3.998 7.214-5.905-1.289 1.98-2.614 3.935-3.903 5.915-1.105.005-2.21.005-3.31-.01zM10.36 11.54c1.112 0 2.217 0 3.322.015-2.42 1.955-4.762 4.003-7.224 5.905 1.289-1.98 2.614-3.94 3.903-5.92z" fill="#010101"></path></g></svg>