<svg data-v-47152ace="" width="23" height="22" viewBox="0 0 23 22" xmlns="http://www.w3.org/2000/svg"><title>typescript</title><g fill-rule="nonzero" fill="none"><path fill="#FFF" d="M3.024 2.654h19.137v18.822H3.024z"></path><path d="M.824 11v11h22V0h-22v11zm17.73-.877c.558.14.984.388 1.375.793.203.217.503.611.528.706.007.028-.95.67-1.53 1.03-.02.014-.105-.077-.199-.217-.283-.412-.58-.59-1.034-.621-.667-.046-1.096.303-1.093.887 0 .17.025.272.095.412.146.304.419.485 1.274.855 1.575.678 2.25 1.125 2.668 1.76.468.71.573 1.84.255 2.682-.35.915-1.215 1.537-2.434 1.743-.377.066-1.271.056-1.676-.018-.884-.157-1.722-.593-2.238-1.166-.203-.224-.598-.807-.573-.849.01-.014.101-.07.202-.129l.818-.471.632-.367.132.196c.185.282.59.67.835.8.702.37 1.666.317 2.14-.109a.81.81 0 0 0 .287-.66c0-.255-.032-.367-.164-.559-.171-.244-.52-.45-1.512-.88-1.135-.489-1.624-.792-2.071-1.274a2.901 2.901 0 0 1-.604-1.1c-.084-.311-.105-1.09-.039-1.404.234-1.097 1.062-1.861 2.256-2.088.388-.074 1.289-.046 1.67.048zm-5.165.919l.007.9h-2.864v8.137H8.507v-8.136H5.643v-.884c0-.489.01-.897.025-.908.01-.014 1.753-.02 3.865-.017l3.845.01.01.898z" fill="#007ACC"></path></g></svg>