<svg data-v-47152ace="" width="22" height="22" viewBox="0 0 22 22" xmlns="http://www.w3.org/2000/svg"><title>umbraco</title><path d="M.049 10.964C.049 4.934 4.935.036 10.964.036c6.028 0 10.914 4.887 10.914 10.928 0 6.028-4.886 10.927-10.914 10.927-6.03 0-10.915-4.887-10.915-10.927zm10.696 3.743c-1.07 0-1.92-.073-2.516-.23-.669-.17-1.13-.536-1.374-1.107-.255-.571-.377-1.446-.364-2.625 0-.632.048-1.252.121-1.86.073-.595.146-1.094.219-1.483l.073-.389v-.036c0-.11-.085-.207-.182-.219l-1.41-.219h-.037a.223.223 0 0 0-.219.17c-.024.085-.036.158-.085.377-.085.413-.158.815-.243 1.398a17.76 17.76 0 0 0-.158 1.933s-.036.158 0 1.349c.037 1.19.243 2.151.62 2.856.377.717 1.009 1.228 1.92 1.544.9.316 2.152.462 3.756.462h.195c1.604.012 2.856-.146 3.756-.462.899-.316 1.543-.827 1.92-1.544.377-.717.583-1.665.62-2.856.036-1.191 0-1.35 0-1.35a17.76 17.76 0 0 0-.158-1.932 22.838 22.838 0 0 0-.243-1.398c-.037-.219-.061-.28-.085-.377a.223.223 0 0 0-.22-.17h-.036l-1.41.219c-.109.012-.182.11-.182.219v.036l.073.39c.073.388.146.887.219 1.482.073.596.11 1.216.121 1.86.013 1.179-.109 2.066-.364 2.625-.255.571-.717.936-1.374 1.106-.607.158-1.446.231-2.516.231h-.437z" fill="#F37021" fill-rule="evenodd"></path></svg>