<svg data-v-47152ace="" width="20" height="22" viewBox="0 0 20 22" xmlns="http://www.w3.org/2000/svg"><title>webpack</title><g fill-rule="nonzero" fill="none"><path fill="#FFF" d="M9.735 0l9.722 5.5v11L9.735 22 .013 16.5v-11z"></path><path d="M17.721 16.12l-7.665 4.336V17.08l4.776-2.627 2.889 1.668zm.524-.474V6.578L15.44 8.197v5.828l2.805 1.62zm-16.527.474l7.665 4.336V17.08l-4.776-2.627-2.89 1.668zm-.524-.474V6.578l2.804 1.619v5.828l-2.804 1.62zm.328-9.655l7.861-4.447v3.265l-5.036 2.77-.039.022-2.786-1.61zm16.395 0l-7.861-4.447v3.265l5.036 2.77.038.022 2.787-1.61z" fill="#8ED6FB"></path><path d="M9.383 16.311l-4.712-2.59V8.587l4.712 2.721v5.003zm.673 0l4.712-2.59V8.587l-4.712 2.721v5.003zM4.99 7.993l4.73-2.601 4.73 2.601-4.73 2.732-4.73-2.732z" fill="#1C78C0"></path></g></svg>