<svg data-v-47152ace="" width="22" height="22" viewBox="0 0 22 22" xmlns="http://www.w3.org/2000/svg"><title>wordpress</title><g fill-rule="nonzero" fill="#6BD5FF"><path d="M21.16 10.275c-.007 6.141-4.715 10.878-10.57 10.864-2.901-.008-5.402-1.054-7.466-3.096-1.59-1.576-2.558-3.475-2.952-5.675-.33-1.87-.15-3.712.516-5.482a10.292 10.292 0 0 1 3.54-4.722C6.112.745 8.24.029 10.605.043c2.888.014 5.389 1.046 7.445 3.081 2.057 2.057 3.067 4.565 3.11 7.151zM.623 9.573c-.007.015-.007.036-.007.058-.036.4-.05.816-.036 1.218a9.864 9.864 0 0 0 .437 2.709c.33 1.067.832 2.042 1.477 2.937.164.23.336.452.53.652.337.373.695.738 1.075 1.068a9.496 9.496 0 0 0 2.2 1.426 10.038 10.038 0 0 0 4.908.953c.394-.022.795-.072 1.182-.136a9.895 9.895 0 0 0 2.501-.803 10.161 10.161 0 0 0 2.58-1.762c.401-.38.78-.796 1.11-1.233a9.911 9.911 0 0 0 1.72-3.482c.1-.366.172-.753.237-1.125.057-.387.086-.774.1-1.161.007-.287 0-.574-.014-.86a9.631 9.631 0 0 0-.137-1.211 10.114 10.114 0 0 0-1.024-2.93 6.349 6.349 0 0 0-.38-.646c-.1-.179-.23-.337-.344-.501a9.837 9.837 0 0 0-1.927-2.007 10.524 10.524 0 0 0-1.19-.81c-.53-.308-1.09-.558-1.662-.773a10.22 10.22 0 0 0-2.164-.51 9.65 9.65 0 0 0-1.44-.064c-.466.015-.918.05-1.376.122-.91.15-1.785.416-2.623.817-.495.237-.967.509-1.419.817-.344.236-.673.494-.996.774-.1.086-.193.186-.294.28-.458.45-.874.924-1.24 1.447A10.059 10.059 0 0 0 .703 9.015a2.84 2.84 0 0 0-.079.558z"></path><path d="M13.364 2.006c.25.086.501.18.752.28.831.35 1.591.817 2.279 1.397.079.065.165.13.236.208.015.014.029.021.036.043-.451-.022-.831.115-1.14.437-.357.365-.508.817-.465 1.333.036.401.194.774.387 1.132.15.272.315.523.473.788.3.502.545 1.032.666 1.605.08.38.108.76.086 1.154v.057c-.035.48-.136.946-.272 1.412-.115.401-.265.802-.401 1.204-.093.258-.165.53-.244.795-.086.294-.179.588-.265.874-.122.423-.258.853-.38 1.269-.007.007.007.028-.014.028-.022 0-.014-.021-.022-.028-.172-.51-.336-1.018-.508-1.52-.316-.938-.63-1.884-.946-2.816-.057-.186-.13-.365-.194-.558-.2-.638-.43-1.269-.63-1.914-.222-.659-.452-1.325-.667-1.992-.071-.222-.15-.437-.222-.652-.007-.014-.007-.036-.014-.05-.014-.036-.05-.086-.029-.107.022-.022.072-.008.115-.015.3-.021.602-.043.903-.079a.364.364 0 0 0 .322-.422c-.007-.043-.028-.086-.043-.13a.333.333 0 0 0-.294-.178c-.236 0-.472.028-.709.043-.272.014-.537.035-.81.043-.293.014-.58.021-.874.021-.444.007-.881-.021-1.326-.043l-.472-.021c-.223-.015-.452-.036-.667-.043-.165-.008-.286.086-.337.243-.064.186.008.38.165.459a.211.211 0 0 0 .093.036c.15.014.294.035.445.05.179.014.358.036.537.036.029 0 .029.028.036.05.458 1.247.917 2.508 1.376 3.762.014.028.007.057 0 .086-.065.207-.137.415-.208.623-.208.61-.409 1.225-.616 1.842-.344 1.024-.681 2.042-1.025 3.06-.036.1-.072.214-.108.336a.243.243 0 0 0-.021-.057c-.323-.96-.645-1.928-.967-2.888-.273-.81-.545-1.62-.817-2.422L5.467 7.51c-.114-.359-.243-.717-.358-1.075-.014-.05 0-.058.043-.058.337-.021.674-.035 1.018-.086.258-.035.38-.344.243-.566a.33.33 0 0 0-.3-.172l-.789.043-.824.043a17.69 17.69 0 0 1-1.068.022c-.1 0-.2-.007-.3-.007-.03 0-.036-.007-.036-.036.021 0 .028-.022.035-.036a9.037 9.037 0 0 1 2.315-2.357A8.703 8.703 0 0 1 8.14 1.949a8.682 8.682 0 0 1 2.186-.337c.43-.014.852.007 1.275.05.401.043.803.122 1.19.215.193.022.387.08.573.13zM2.343 6.943l4.285 11.738S-.76 15.27 2.343 6.943z"></path><path d="M10.763 11.4l-2.716 7.818s2.644.975 5.51-.122L10.763 11.4zM18.516 6.306s.23 1.856-.337 3.267c0 0-1.72 4.823-3.024 8.8 0 .007 7.159-3.999 3.36-12.067z"></path></g></svg>