<svg data-v-47152ace="" width="22" height="22" viewBox="0 0 22 22" xmlns="http://www.w3.org/2000/svg"><title>wpengine</title><path d="M7.463 22h7.074v-5.349l-1.725-1.726H9.145l-1.682 1.726V22zm9.145-14.537l-1.683 1.682v3.71l1.683 1.682H22V7.463h-5.392zM14.538 0H7.462v5.392l1.682 1.683h3.667l1.725-1.683V0zM22 22v-5.349l-1.682-1.726h-5.393V22H22zM1.682 0L0 1.682v5.393h7.075V0H1.682zm13.243 0v5.392l1.683 1.683H22V0h-7.075zM11 12.035c-.56 0-.992-.474-.992-.992 0-.56.474-.992.992-.992.56 0 .992.474.992.992s-.431.992-.992.992zM7.075 7.463H0v7.074h5.349l1.726-1.682V7.463zm0 9.188l-1.726-1.725H0V22h5.349l1.726-1.682V16.65z" fill-rule="nonzero" fill="#40BAC8"></path></svg>